G04 EAGLE Gerber RS-274X export*
G75*
%MOMM*%
%FSLAX34Y34*%
%LPD*%
%IN*%
%IPPOS*%
%AMOC8*
5,1,8,0,0,1.08239X$1,22.5*%
G01*
%ADD10C,0.254000*%


D10*
X0Y0D02*
X219964Y0D01*
X219964Y153924D01*
X0Y153924D01*
X0Y0D01*
X35098Y131616D02*
X35032Y130689D01*
X34900Y129770D01*
X34702Y128863D01*
X34441Y127972D01*
X34116Y127102D01*
X33730Y126257D01*
X33285Y125442D01*
X32783Y124661D01*
X32227Y123918D01*
X31619Y123216D01*
X30962Y122559D01*
X30260Y121951D01*
X29517Y121395D01*
X28736Y120893D01*
X27921Y120448D01*
X27076Y120062D01*
X26206Y119737D01*
X25315Y119476D01*
X24408Y119278D01*
X23489Y119146D01*
X22562Y119080D01*
X21634Y119080D01*
X20707Y119146D01*
X19788Y119278D01*
X18881Y119476D01*
X17990Y119737D01*
X17120Y120062D01*
X16275Y120448D01*
X15460Y120893D01*
X14679Y121395D01*
X13936Y121951D01*
X13234Y122559D01*
X12577Y123216D01*
X11969Y123918D01*
X11413Y124661D01*
X10911Y125442D01*
X10466Y126257D01*
X10080Y127102D01*
X9755Y127972D01*
X9494Y128863D01*
X9296Y129770D01*
X9164Y130689D01*
X9098Y131616D01*
X9098Y132544D01*
X9164Y133471D01*
X9296Y134390D01*
X9494Y135297D01*
X9755Y136188D01*
X10080Y137058D01*
X10466Y137903D01*
X10911Y138718D01*
X11413Y139499D01*
X11969Y140242D01*
X12577Y140944D01*
X13234Y141601D01*
X13936Y142209D01*
X14679Y142765D01*
X15460Y143267D01*
X16275Y143712D01*
X17120Y144098D01*
X17990Y144423D01*
X18881Y144684D01*
X19788Y144882D01*
X20707Y145014D01*
X21634Y145080D01*
X22562Y145080D01*
X23489Y145014D01*
X24408Y144882D01*
X25315Y144684D01*
X26206Y144423D01*
X27076Y144098D01*
X27921Y143712D01*
X28736Y143267D01*
X29517Y142765D01*
X30260Y142209D01*
X30962Y141601D01*
X31619Y140944D01*
X32227Y140242D01*
X32783Y139499D01*
X33285Y138718D01*
X33730Y137903D01*
X34116Y137058D01*
X34441Y136188D01*
X34702Y135297D01*
X34900Y134390D01*
X35032Y133471D01*
X35098Y132544D01*
X35098Y131616D01*
X35098Y21634D02*
X35032Y20707D01*
X34900Y19788D01*
X34702Y18881D01*
X34441Y17990D01*
X34116Y17120D01*
X33730Y16275D01*
X33285Y15460D01*
X32783Y14679D01*
X32227Y13936D01*
X31619Y13234D01*
X30962Y12577D01*
X30260Y11969D01*
X29517Y11413D01*
X28736Y10911D01*
X27921Y10466D01*
X27076Y10080D01*
X26206Y9755D01*
X25315Y9494D01*
X24408Y9296D01*
X23489Y9164D01*
X22562Y9098D01*
X21634Y9098D01*
X20707Y9164D01*
X19788Y9296D01*
X18881Y9494D01*
X17990Y9755D01*
X17120Y10080D01*
X16275Y10466D01*
X15460Y10911D01*
X14679Y11413D01*
X13936Y11969D01*
X13234Y12577D01*
X12577Y13234D01*
X11969Y13936D01*
X11413Y14679D01*
X10911Y15460D01*
X10466Y16275D01*
X10080Y17120D01*
X9755Y17990D01*
X9494Y18881D01*
X9296Y19788D01*
X9164Y20707D01*
X9098Y21634D01*
X9098Y22562D01*
X9164Y23489D01*
X9296Y24408D01*
X9494Y25315D01*
X9755Y26206D01*
X10080Y27076D01*
X10466Y27921D01*
X10911Y28736D01*
X11413Y29517D01*
X11969Y30260D01*
X12577Y30962D01*
X13234Y31619D01*
X13936Y32227D01*
X14679Y32783D01*
X15460Y33285D01*
X16275Y33730D01*
X17120Y34116D01*
X17990Y34441D01*
X18881Y34702D01*
X19788Y34900D01*
X20707Y35032D01*
X21634Y35098D01*
X22562Y35098D01*
X23489Y35032D01*
X24408Y34900D01*
X25315Y34702D01*
X26206Y34441D01*
X27076Y34116D01*
X27921Y33730D01*
X28736Y33285D01*
X29517Y32783D01*
X30260Y32227D01*
X30962Y31619D01*
X31619Y30962D01*
X32227Y30260D01*
X32783Y29517D01*
X33285Y28736D01*
X33730Y27921D01*
X34116Y27076D01*
X34441Y26206D01*
X34702Y25315D01*
X34900Y24408D01*
X35032Y23489D01*
X35098Y22562D01*
X35098Y21634D01*
X214930Y21634D02*
X214864Y20707D01*
X214732Y19788D01*
X214534Y18881D01*
X214273Y17990D01*
X213948Y17120D01*
X213562Y16275D01*
X213117Y15460D01*
X212615Y14679D01*
X212059Y13936D01*
X211451Y13234D01*
X210794Y12577D01*
X210092Y11969D01*
X209349Y11413D01*
X208568Y10911D01*
X207753Y10466D01*
X206908Y10080D01*
X206038Y9755D01*
X205147Y9494D01*
X204240Y9296D01*
X203321Y9164D01*
X202394Y9098D01*
X201466Y9098D01*
X200539Y9164D01*
X199620Y9296D01*
X198713Y9494D01*
X197822Y9755D01*
X196952Y10080D01*
X196107Y10466D01*
X195292Y10911D01*
X194511Y11413D01*
X193768Y11969D01*
X193066Y12577D01*
X192409Y13234D01*
X191801Y13936D01*
X191245Y14679D01*
X190743Y15460D01*
X190298Y16275D01*
X189912Y17120D01*
X189587Y17990D01*
X189326Y18881D01*
X189128Y19788D01*
X188996Y20707D01*
X188930Y21634D01*
X188930Y22562D01*
X188996Y23489D01*
X189128Y24408D01*
X189326Y25315D01*
X189587Y26206D01*
X189912Y27076D01*
X190298Y27921D01*
X190743Y28736D01*
X191245Y29517D01*
X191801Y30260D01*
X192409Y30962D01*
X193066Y31619D01*
X193768Y32227D01*
X194511Y32783D01*
X195292Y33285D01*
X196107Y33730D01*
X196952Y34116D01*
X197822Y34441D01*
X198713Y34702D01*
X199620Y34900D01*
X200539Y35032D01*
X201466Y35098D01*
X202394Y35098D01*
X203321Y35032D01*
X204240Y34900D01*
X205147Y34702D01*
X206038Y34441D01*
X206908Y34116D01*
X207753Y33730D01*
X208568Y33285D01*
X209349Y32783D01*
X210092Y32227D01*
X210794Y31619D01*
X211451Y30962D01*
X212059Y30260D01*
X212615Y29517D01*
X213117Y28736D01*
X213562Y27921D01*
X213948Y27076D01*
X214273Y26206D01*
X214534Y25315D01*
X214732Y24408D01*
X214864Y23489D01*
X214930Y22562D01*
X214930Y21634D01*
X214930Y131616D02*
X214864Y130689D01*
X214732Y129770D01*
X214534Y128863D01*
X214273Y127972D01*
X213948Y127102D01*
X213562Y126257D01*
X213117Y125442D01*
X212615Y124661D01*
X212059Y123918D01*
X211451Y123216D01*
X210794Y122559D01*
X210092Y121951D01*
X209349Y121395D01*
X208568Y120893D01*
X207753Y120448D01*
X206908Y120062D01*
X206038Y119737D01*
X205147Y119476D01*
X204240Y119278D01*
X203321Y119146D01*
X202394Y119080D01*
X201466Y119080D01*
X200539Y119146D01*
X199620Y119278D01*
X198713Y119476D01*
X197822Y119737D01*
X196952Y120062D01*
X196107Y120448D01*
X195292Y120893D01*
X194511Y121395D01*
X193768Y121951D01*
X193066Y122559D01*
X192409Y123216D01*
X191801Y123918D01*
X191245Y124661D01*
X190743Y125442D01*
X190298Y126257D01*
X189912Y127102D01*
X189587Y127972D01*
X189326Y128863D01*
X189128Y129770D01*
X188996Y130689D01*
X188930Y131616D01*
X188930Y132544D01*
X188996Y133471D01*
X189128Y134390D01*
X189326Y135297D01*
X189587Y136188D01*
X189912Y137058D01*
X190298Y137903D01*
X190743Y138718D01*
X191245Y139499D01*
X191801Y140242D01*
X192409Y140944D01*
X193066Y141601D01*
X193768Y142209D01*
X194511Y142765D01*
X195292Y143267D01*
X196107Y143712D01*
X196952Y144098D01*
X197822Y144423D01*
X198713Y144684D01*
X199620Y144882D01*
X200539Y145014D01*
X201466Y145080D01*
X202394Y145080D01*
X203321Y145014D01*
X204240Y144882D01*
X205147Y144684D01*
X206038Y144423D01*
X206908Y144098D01*
X207753Y143712D01*
X208568Y143267D01*
X209349Y142765D01*
X210092Y142209D01*
X210794Y141601D01*
X211451Y140944D01*
X212059Y140242D01*
X212615Y139499D01*
X213117Y138718D01*
X213562Y137903D01*
X213948Y137058D01*
X214273Y136188D01*
X214534Y135297D01*
X214732Y134390D01*
X214864Y133471D01*
X214930Y132544D01*
X214930Y131616D01*
M02*
