G04 EAGLE Gerber RS-274X export*
G75*
%MOMM*%
%FSLAX34Y34*%
%LPD*%
%INSilkscreen Bottom*%
%IPPOS*%
%AMOC8*
5,1,8,0,0,1.08239X$1,22.5*%
G01*
%ADD10C,0.152400*%


D10*
X168007Y105974D02*
X168009Y105856D01*
X168015Y105738D01*
X168024Y105620D01*
X168038Y105503D01*
X168055Y105386D01*
X168076Y105269D01*
X168101Y105154D01*
X168130Y105039D01*
X168163Y104925D01*
X168199Y104813D01*
X168239Y104702D01*
X168282Y104592D01*
X168329Y104483D01*
X168379Y104376D01*
X168434Y104271D01*
X168491Y104168D01*
X168552Y104067D01*
X168616Y103967D01*
X168683Y103870D01*
X168753Y103775D01*
X168827Y103683D01*
X168903Y103592D01*
X168983Y103505D01*
X169065Y103420D01*
X169150Y103338D01*
X169237Y103258D01*
X169328Y103182D01*
X169420Y103108D01*
X169515Y103038D01*
X169612Y102971D01*
X169712Y102907D01*
X169813Y102846D01*
X169916Y102789D01*
X170021Y102734D01*
X170128Y102684D01*
X170237Y102637D01*
X170347Y102594D01*
X170458Y102554D01*
X170570Y102518D01*
X170684Y102485D01*
X170799Y102456D01*
X170914Y102431D01*
X171031Y102410D01*
X171148Y102393D01*
X171265Y102379D01*
X171383Y102370D01*
X171501Y102364D01*
X171619Y102362D01*
X171802Y102364D01*
X171984Y102371D01*
X172166Y102382D01*
X172348Y102397D01*
X172530Y102417D01*
X172711Y102441D01*
X172891Y102469D01*
X173071Y102501D01*
X173250Y102538D01*
X173427Y102579D01*
X173604Y102625D01*
X173780Y102674D01*
X173955Y102728D01*
X174128Y102786D01*
X174299Y102848D01*
X174470Y102914D01*
X174638Y102985D01*
X174805Y103059D01*
X174970Y103137D01*
X175133Y103219D01*
X175294Y103305D01*
X175453Y103395D01*
X175610Y103489D01*
X175764Y103586D01*
X175916Y103687D01*
X176066Y103792D01*
X176213Y103900D01*
X176357Y104011D01*
X176499Y104126D01*
X176638Y104245D01*
X176774Y104367D01*
X176907Y104492D01*
X177037Y104620D01*
X176586Y115006D02*
X176584Y115124D01*
X176578Y115242D01*
X176569Y115360D01*
X176555Y115477D01*
X176538Y115594D01*
X176517Y115711D01*
X176492Y115826D01*
X176463Y115941D01*
X176430Y116055D01*
X176394Y116167D01*
X176354Y116278D01*
X176311Y116388D01*
X176264Y116497D01*
X176214Y116604D01*
X176159Y116709D01*
X176102Y116812D01*
X176041Y116913D01*
X175977Y117013D01*
X175910Y117110D01*
X175840Y117205D01*
X175766Y117297D01*
X175690Y117388D01*
X175610Y117475D01*
X175528Y117560D01*
X175443Y117642D01*
X175356Y117722D01*
X175265Y117798D01*
X175173Y117872D01*
X175078Y117942D01*
X174981Y118009D01*
X174881Y118073D01*
X174780Y118134D01*
X174677Y118191D01*
X174572Y118246D01*
X174465Y118296D01*
X174356Y118343D01*
X174246Y118386D01*
X174135Y118426D01*
X174023Y118462D01*
X173909Y118495D01*
X173794Y118524D01*
X173679Y118549D01*
X173562Y118570D01*
X173445Y118587D01*
X173328Y118601D01*
X173210Y118610D01*
X173092Y118616D01*
X172974Y118618D01*
X172813Y118616D01*
X172651Y118610D01*
X172490Y118601D01*
X172329Y118587D01*
X172169Y118570D01*
X172009Y118549D01*
X171849Y118524D01*
X171690Y118495D01*
X171532Y118463D01*
X171375Y118427D01*
X171219Y118387D01*
X171063Y118343D01*
X170909Y118295D01*
X170756Y118244D01*
X170604Y118190D01*
X170453Y118131D01*
X170304Y118070D01*
X170157Y118004D01*
X170011Y117935D01*
X169866Y117863D01*
X169724Y117787D01*
X169583Y117708D01*
X169444Y117626D01*
X169308Y117540D01*
X169173Y117451D01*
X169040Y117359D01*
X168910Y117263D01*
X174781Y111845D02*
X174882Y111907D01*
X174982Y111972D01*
X175079Y112041D01*
X175174Y112113D01*
X175267Y112187D01*
X175357Y112265D01*
X175445Y112346D01*
X175530Y112429D01*
X175612Y112515D01*
X175691Y112604D01*
X175768Y112695D01*
X175841Y112789D01*
X175912Y112885D01*
X175979Y112983D01*
X176043Y113083D01*
X176104Y113186D01*
X176161Y113290D01*
X176215Y113396D01*
X176265Y113504D01*
X176312Y113613D01*
X176356Y113724D01*
X176396Y113836D01*
X176432Y113950D01*
X176464Y114064D01*
X176493Y114180D01*
X176518Y114296D01*
X176539Y114413D01*
X176556Y114531D01*
X176570Y114649D01*
X176579Y114768D01*
X176585Y114887D01*
X176587Y115006D01*
X169813Y109135D02*
X169712Y109073D01*
X169612Y109008D01*
X169515Y108939D01*
X169420Y108867D01*
X169327Y108793D01*
X169237Y108715D01*
X169149Y108634D01*
X169064Y108551D01*
X168982Y108465D01*
X168903Y108376D01*
X168826Y108285D01*
X168753Y108191D01*
X168682Y108095D01*
X168615Y107997D01*
X168551Y107897D01*
X168490Y107794D01*
X168433Y107690D01*
X168379Y107584D01*
X168329Y107476D01*
X168282Y107367D01*
X168238Y107256D01*
X168198Y107144D01*
X168162Y107030D01*
X168130Y106916D01*
X168101Y106800D01*
X168076Y106684D01*
X168055Y106567D01*
X168038Y106449D01*
X168024Y106331D01*
X168015Y106212D01*
X168009Y106093D01*
X168007Y105974D01*
X169813Y109135D02*
X174780Y111845D01*
X159340Y102362D02*
X155727Y102362D01*
X159340Y102362D02*
X159441Y102364D01*
X159542Y102370D01*
X159643Y102379D01*
X159744Y102392D01*
X159844Y102409D01*
X159943Y102430D01*
X160041Y102454D01*
X160138Y102482D01*
X160235Y102514D01*
X160330Y102549D01*
X160423Y102588D01*
X160515Y102630D01*
X160606Y102676D01*
X160695Y102725D01*
X160781Y102777D01*
X160866Y102833D01*
X160949Y102891D01*
X161029Y102953D01*
X161107Y103018D01*
X161183Y103085D01*
X161256Y103155D01*
X161326Y103228D01*
X161393Y103304D01*
X161458Y103382D01*
X161520Y103462D01*
X161578Y103545D01*
X161634Y103630D01*
X161686Y103716D01*
X161735Y103805D01*
X161781Y103896D01*
X161823Y103988D01*
X161862Y104081D01*
X161897Y104176D01*
X161929Y104273D01*
X161957Y104370D01*
X161981Y104468D01*
X162002Y104567D01*
X162019Y104667D01*
X162032Y104768D01*
X162041Y104869D01*
X162047Y104970D01*
X162049Y105071D01*
X162049Y110490D01*
X162047Y110591D01*
X162041Y110692D01*
X162032Y110793D01*
X162019Y110894D01*
X162002Y110994D01*
X161981Y111093D01*
X161957Y111191D01*
X161929Y111288D01*
X161897Y111385D01*
X161862Y111480D01*
X161823Y111573D01*
X161781Y111665D01*
X161735Y111756D01*
X161686Y111845D01*
X161634Y111931D01*
X161578Y112016D01*
X161520Y112099D01*
X161458Y112179D01*
X161393Y112257D01*
X161326Y112333D01*
X161256Y112406D01*
X161183Y112476D01*
X161107Y112543D01*
X161029Y112608D01*
X160949Y112670D01*
X160866Y112728D01*
X160781Y112784D01*
X160695Y112836D01*
X160606Y112885D01*
X160515Y112931D01*
X160423Y112973D01*
X160330Y113012D01*
X160235Y113047D01*
X160138Y113079D01*
X160041Y113107D01*
X159943Y113131D01*
X159844Y113152D01*
X159744Y113169D01*
X159643Y113182D01*
X159542Y113191D01*
X159441Y113197D01*
X159340Y113199D01*
X155727Y113199D01*
X150083Y109587D02*
X150083Y105974D01*
X150082Y109587D02*
X150080Y109706D01*
X150074Y109826D01*
X150064Y109945D01*
X150050Y110063D01*
X150033Y110182D01*
X150011Y110299D01*
X149986Y110416D01*
X149956Y110531D01*
X149923Y110646D01*
X149886Y110760D01*
X149846Y110872D01*
X149801Y110983D01*
X149753Y111092D01*
X149702Y111200D01*
X149647Y111306D01*
X149588Y111410D01*
X149526Y111512D01*
X149461Y111612D01*
X149392Y111710D01*
X149320Y111806D01*
X149245Y111899D01*
X149168Y111989D01*
X149087Y112077D01*
X149003Y112162D01*
X148916Y112244D01*
X148827Y112324D01*
X148735Y112400D01*
X148641Y112474D01*
X148544Y112544D01*
X148446Y112611D01*
X148345Y112675D01*
X148241Y112735D01*
X148136Y112792D01*
X148029Y112845D01*
X147921Y112895D01*
X147811Y112941D01*
X147699Y112983D01*
X147586Y113022D01*
X147472Y113057D01*
X147357Y113088D01*
X147240Y113116D01*
X147123Y113139D01*
X147006Y113159D01*
X146887Y113175D01*
X146768Y113187D01*
X146649Y113195D01*
X146530Y113199D01*
X146410Y113199D01*
X146291Y113195D01*
X146172Y113187D01*
X146053Y113175D01*
X145934Y113159D01*
X145817Y113139D01*
X145700Y113116D01*
X145583Y113088D01*
X145468Y113057D01*
X145354Y113022D01*
X145241Y112983D01*
X145129Y112941D01*
X145019Y112895D01*
X144911Y112845D01*
X144804Y112792D01*
X144699Y112735D01*
X144595Y112675D01*
X144494Y112611D01*
X144396Y112544D01*
X144299Y112474D01*
X144205Y112400D01*
X144113Y112324D01*
X144024Y112244D01*
X143937Y112162D01*
X143853Y112077D01*
X143772Y111989D01*
X143695Y111899D01*
X143620Y111806D01*
X143548Y111710D01*
X143479Y111612D01*
X143414Y111512D01*
X143352Y111410D01*
X143293Y111306D01*
X143238Y111200D01*
X143187Y111092D01*
X143139Y110983D01*
X143094Y110872D01*
X143054Y110760D01*
X143017Y110646D01*
X142984Y110531D01*
X142954Y110416D01*
X142929Y110299D01*
X142907Y110182D01*
X142890Y110063D01*
X142876Y109945D01*
X142866Y109826D01*
X142860Y109706D01*
X142858Y109587D01*
X142858Y105974D01*
X142860Y105855D01*
X142866Y105735D01*
X142876Y105616D01*
X142890Y105498D01*
X142907Y105379D01*
X142929Y105262D01*
X142954Y105145D01*
X142984Y105030D01*
X143017Y104915D01*
X143054Y104801D01*
X143094Y104689D01*
X143139Y104578D01*
X143187Y104469D01*
X143238Y104361D01*
X143293Y104255D01*
X143352Y104151D01*
X143414Y104049D01*
X143479Y103949D01*
X143548Y103851D01*
X143620Y103755D01*
X143695Y103662D01*
X143772Y103572D01*
X143853Y103484D01*
X143937Y103399D01*
X144024Y103317D01*
X144113Y103237D01*
X144205Y103161D01*
X144299Y103087D01*
X144396Y103017D01*
X144494Y102950D01*
X144595Y102886D01*
X144699Y102826D01*
X144804Y102769D01*
X144911Y102716D01*
X145019Y102666D01*
X145129Y102620D01*
X145241Y102578D01*
X145354Y102539D01*
X145468Y102504D01*
X145583Y102473D01*
X145700Y102445D01*
X145817Y102422D01*
X145934Y102402D01*
X146053Y102386D01*
X146172Y102374D01*
X146291Y102366D01*
X146410Y102362D01*
X146530Y102362D01*
X146649Y102366D01*
X146768Y102374D01*
X146887Y102386D01*
X147006Y102402D01*
X147123Y102422D01*
X147240Y102445D01*
X147357Y102473D01*
X147472Y102504D01*
X147586Y102539D01*
X147699Y102578D01*
X147811Y102620D01*
X147921Y102666D01*
X148029Y102716D01*
X148136Y102769D01*
X148241Y102826D01*
X148345Y102886D01*
X148446Y102950D01*
X148544Y103017D01*
X148641Y103087D01*
X148735Y103161D01*
X148827Y103237D01*
X148916Y103317D01*
X149003Y103399D01*
X149087Y103484D01*
X149168Y103572D01*
X149245Y103662D01*
X149320Y103755D01*
X149392Y103851D01*
X149461Y103949D01*
X149526Y104049D01*
X149588Y104151D01*
X149647Y104255D01*
X149702Y104361D01*
X149753Y104469D01*
X149801Y104578D01*
X149846Y104689D01*
X149886Y104801D01*
X149923Y104915D01*
X149956Y105030D01*
X149986Y105145D01*
X150011Y105262D01*
X150033Y105379D01*
X150050Y105498D01*
X150064Y105616D01*
X150074Y105735D01*
X150080Y105855D01*
X150082Y105974D01*
X137833Y113199D02*
X132414Y113199D01*
X136027Y118618D02*
X136027Y105071D01*
X136025Y104970D01*
X136019Y104869D01*
X136010Y104768D01*
X135997Y104667D01*
X135980Y104567D01*
X135959Y104468D01*
X135935Y104370D01*
X135907Y104273D01*
X135875Y104176D01*
X135840Y104081D01*
X135801Y103988D01*
X135759Y103896D01*
X135713Y103805D01*
X135664Y103716D01*
X135612Y103630D01*
X135556Y103545D01*
X135498Y103462D01*
X135436Y103382D01*
X135371Y103304D01*
X135304Y103228D01*
X135234Y103155D01*
X135161Y103085D01*
X135085Y103018D01*
X135007Y102953D01*
X134927Y102891D01*
X134844Y102833D01*
X134759Y102777D01*
X134673Y102725D01*
X134584Y102676D01*
X134493Y102630D01*
X134401Y102588D01*
X134308Y102549D01*
X134213Y102514D01*
X134116Y102482D01*
X134019Y102454D01*
X133921Y102430D01*
X133822Y102409D01*
X133722Y102392D01*
X133621Y102379D01*
X133520Y102370D01*
X133419Y102364D01*
X133318Y102362D01*
X132414Y102362D01*
X127933Y113199D02*
X122515Y113199D01*
X126127Y118618D02*
X126127Y105071D01*
X126125Y104970D01*
X126119Y104869D01*
X126110Y104768D01*
X126097Y104667D01*
X126080Y104567D01*
X126059Y104468D01*
X126035Y104370D01*
X126007Y104273D01*
X125975Y104176D01*
X125940Y104081D01*
X125901Y103988D01*
X125859Y103896D01*
X125813Y103805D01*
X125764Y103716D01*
X125712Y103630D01*
X125656Y103545D01*
X125598Y103462D01*
X125536Y103382D01*
X125471Y103304D01*
X125404Y103228D01*
X125334Y103155D01*
X125261Y103085D01*
X125185Y103018D01*
X125107Y102953D01*
X125027Y102891D01*
X124944Y102833D01*
X124859Y102777D01*
X124772Y102725D01*
X124684Y102676D01*
X124593Y102630D01*
X124501Y102588D01*
X124408Y102549D01*
X124313Y102514D01*
X124216Y102482D01*
X124119Y102454D01*
X124021Y102430D01*
X123922Y102409D01*
X123822Y102392D01*
X123721Y102379D01*
X123620Y102370D01*
X123519Y102364D01*
X123418Y102362D01*
X122515Y102362D01*
X107740Y102362D02*
X107740Y118618D01*
X98709Y102362D01*
X98709Y118618D01*
X91761Y113199D02*
X91761Y102362D01*
X92213Y117715D02*
X92213Y118618D01*
X91310Y118618D01*
X91310Y117715D01*
X92213Y117715D01*
X82747Y102362D02*
X79134Y102362D01*
X82747Y102362D02*
X82848Y102364D01*
X82949Y102370D01*
X83050Y102379D01*
X83151Y102392D01*
X83251Y102409D01*
X83350Y102430D01*
X83448Y102454D01*
X83545Y102482D01*
X83642Y102514D01*
X83737Y102549D01*
X83830Y102588D01*
X83922Y102630D01*
X84013Y102676D01*
X84101Y102725D01*
X84188Y102777D01*
X84273Y102833D01*
X84356Y102891D01*
X84436Y102953D01*
X84514Y103018D01*
X84590Y103085D01*
X84663Y103155D01*
X84733Y103228D01*
X84800Y103304D01*
X84865Y103382D01*
X84927Y103462D01*
X84985Y103545D01*
X85041Y103630D01*
X85093Y103716D01*
X85142Y103805D01*
X85188Y103896D01*
X85230Y103988D01*
X85269Y104081D01*
X85304Y104176D01*
X85336Y104273D01*
X85364Y104370D01*
X85388Y104468D01*
X85409Y104567D01*
X85426Y104667D01*
X85439Y104768D01*
X85448Y104869D01*
X85454Y104970D01*
X85456Y105071D01*
X85456Y110490D01*
X85454Y110591D01*
X85448Y110692D01*
X85439Y110793D01*
X85426Y110894D01*
X85409Y110994D01*
X85388Y111093D01*
X85364Y111191D01*
X85336Y111288D01*
X85304Y111385D01*
X85269Y111480D01*
X85230Y111573D01*
X85188Y111665D01*
X85142Y111756D01*
X85093Y111845D01*
X85041Y111931D01*
X84985Y112016D01*
X84927Y112099D01*
X84865Y112179D01*
X84800Y112257D01*
X84733Y112333D01*
X84663Y112406D01*
X84590Y112476D01*
X84514Y112543D01*
X84436Y112608D01*
X84356Y112670D01*
X84273Y112728D01*
X84188Y112784D01*
X84102Y112836D01*
X84013Y112885D01*
X83922Y112931D01*
X83830Y112973D01*
X83737Y113012D01*
X83642Y113047D01*
X83545Y113079D01*
X83448Y113107D01*
X83350Y113131D01*
X83251Y113152D01*
X83151Y113169D01*
X83050Y113182D01*
X82949Y113191D01*
X82848Y113197D01*
X82747Y113199D01*
X79134Y113199D01*
X72969Y118618D02*
X72969Y102362D01*
X72969Y113199D02*
X68453Y113199D01*
X68349Y113197D01*
X68246Y113191D01*
X68142Y113181D01*
X68039Y113167D01*
X67937Y113149D01*
X67836Y113128D01*
X67735Y113102D01*
X67636Y113073D01*
X67537Y113040D01*
X67440Y113003D01*
X67345Y112962D01*
X67251Y112918D01*
X67159Y112870D01*
X67069Y112819D01*
X66980Y112764D01*
X66894Y112706D01*
X66811Y112644D01*
X66729Y112580D01*
X66651Y112512D01*
X66575Y112442D01*
X66501Y112369D01*
X66431Y112292D01*
X66363Y112214D01*
X66299Y112132D01*
X66237Y112049D01*
X66179Y111963D01*
X66124Y111874D01*
X66073Y111784D01*
X66025Y111692D01*
X65981Y111598D01*
X65940Y111503D01*
X65903Y111406D01*
X65870Y111307D01*
X65841Y111208D01*
X65815Y111107D01*
X65794Y111006D01*
X65776Y110904D01*
X65762Y110801D01*
X65752Y110697D01*
X65746Y110594D01*
X65744Y110490D01*
X65744Y102362D01*
X58901Y105974D02*
X58901Y109587D01*
X58900Y109587D02*
X58898Y109706D01*
X58892Y109826D01*
X58882Y109945D01*
X58868Y110063D01*
X58851Y110182D01*
X58829Y110299D01*
X58804Y110416D01*
X58774Y110531D01*
X58741Y110646D01*
X58704Y110760D01*
X58664Y110872D01*
X58619Y110983D01*
X58571Y111092D01*
X58520Y111200D01*
X58465Y111306D01*
X58406Y111410D01*
X58344Y111512D01*
X58279Y111612D01*
X58210Y111710D01*
X58138Y111806D01*
X58063Y111899D01*
X57986Y111989D01*
X57905Y112077D01*
X57821Y112162D01*
X57734Y112244D01*
X57645Y112324D01*
X57553Y112400D01*
X57459Y112474D01*
X57362Y112544D01*
X57264Y112611D01*
X57163Y112675D01*
X57059Y112735D01*
X56954Y112792D01*
X56847Y112845D01*
X56739Y112895D01*
X56629Y112941D01*
X56517Y112983D01*
X56404Y113022D01*
X56290Y113057D01*
X56175Y113088D01*
X56058Y113116D01*
X55941Y113139D01*
X55824Y113159D01*
X55705Y113175D01*
X55586Y113187D01*
X55467Y113195D01*
X55348Y113199D01*
X55228Y113199D01*
X55109Y113195D01*
X54990Y113187D01*
X54871Y113175D01*
X54752Y113159D01*
X54635Y113139D01*
X54518Y113116D01*
X54401Y113088D01*
X54286Y113057D01*
X54172Y113022D01*
X54059Y112983D01*
X53947Y112941D01*
X53837Y112895D01*
X53729Y112845D01*
X53622Y112792D01*
X53517Y112735D01*
X53413Y112675D01*
X53312Y112611D01*
X53214Y112544D01*
X53117Y112474D01*
X53023Y112400D01*
X52931Y112324D01*
X52842Y112244D01*
X52755Y112162D01*
X52671Y112077D01*
X52590Y111989D01*
X52513Y111899D01*
X52438Y111806D01*
X52366Y111710D01*
X52297Y111612D01*
X52232Y111512D01*
X52170Y111410D01*
X52111Y111306D01*
X52056Y111200D01*
X52005Y111092D01*
X51957Y110983D01*
X51912Y110872D01*
X51872Y110760D01*
X51835Y110646D01*
X51802Y110531D01*
X51772Y110416D01*
X51747Y110299D01*
X51725Y110182D01*
X51708Y110063D01*
X51694Y109945D01*
X51684Y109826D01*
X51678Y109706D01*
X51676Y109587D01*
X51676Y105974D01*
X51678Y105855D01*
X51684Y105735D01*
X51694Y105616D01*
X51708Y105498D01*
X51725Y105379D01*
X51747Y105262D01*
X51772Y105145D01*
X51802Y105030D01*
X51835Y104915D01*
X51872Y104801D01*
X51912Y104689D01*
X51957Y104578D01*
X52005Y104469D01*
X52056Y104361D01*
X52111Y104255D01*
X52170Y104151D01*
X52232Y104049D01*
X52297Y103949D01*
X52366Y103851D01*
X52438Y103755D01*
X52513Y103662D01*
X52590Y103572D01*
X52671Y103484D01*
X52755Y103399D01*
X52842Y103317D01*
X52931Y103237D01*
X53023Y103161D01*
X53117Y103087D01*
X53214Y103017D01*
X53312Y102950D01*
X53413Y102886D01*
X53517Y102826D01*
X53622Y102769D01*
X53729Y102716D01*
X53837Y102666D01*
X53947Y102620D01*
X54059Y102578D01*
X54172Y102539D01*
X54286Y102504D01*
X54401Y102473D01*
X54518Y102445D01*
X54635Y102422D01*
X54752Y102402D01*
X54871Y102386D01*
X54990Y102374D01*
X55109Y102366D01*
X55228Y102362D01*
X55348Y102362D01*
X55467Y102366D01*
X55586Y102374D01*
X55705Y102386D01*
X55824Y102402D01*
X55941Y102422D01*
X56058Y102445D01*
X56175Y102473D01*
X56290Y102504D01*
X56404Y102539D01*
X56517Y102578D01*
X56629Y102620D01*
X56739Y102666D01*
X56847Y102716D01*
X56954Y102769D01*
X57059Y102826D01*
X57163Y102886D01*
X57264Y102950D01*
X57362Y103017D01*
X57459Y103087D01*
X57553Y103161D01*
X57645Y103237D01*
X57734Y103317D01*
X57821Y103399D01*
X57905Y103484D01*
X57986Y103572D01*
X58063Y103662D01*
X58138Y103755D01*
X58210Y103851D01*
X58279Y103949D01*
X58344Y104049D01*
X58406Y104151D01*
X58465Y104255D01*
X58520Y104361D01*
X58571Y104469D01*
X58619Y104578D01*
X58664Y104689D01*
X58704Y104801D01*
X58741Y104915D01*
X58774Y105030D01*
X58804Y105145D01*
X58829Y105262D01*
X58851Y105379D01*
X58868Y105498D01*
X58882Y105616D01*
X58892Y105735D01*
X58898Y105855D01*
X58900Y105974D01*
X45117Y105071D02*
X45117Y118618D01*
X45116Y105071D02*
X45114Y104970D01*
X45108Y104869D01*
X45099Y104768D01*
X45086Y104667D01*
X45069Y104567D01*
X45048Y104468D01*
X45024Y104370D01*
X44996Y104273D01*
X44964Y104176D01*
X44929Y104081D01*
X44890Y103988D01*
X44848Y103896D01*
X44802Y103805D01*
X44753Y103716D01*
X44701Y103630D01*
X44645Y103545D01*
X44587Y103462D01*
X44525Y103382D01*
X44460Y103304D01*
X44393Y103228D01*
X44323Y103155D01*
X44250Y103085D01*
X44174Y103018D01*
X44096Y102953D01*
X44016Y102891D01*
X43933Y102833D01*
X43848Y102777D01*
X43761Y102725D01*
X43673Y102676D01*
X43582Y102630D01*
X43490Y102588D01*
X43397Y102549D01*
X43302Y102514D01*
X43205Y102482D01*
X43108Y102454D01*
X43010Y102430D01*
X42911Y102409D01*
X42811Y102392D01*
X42710Y102379D01*
X42609Y102370D01*
X42508Y102364D01*
X42407Y102362D01*
X35662Y108684D02*
X31147Y106878D01*
X35663Y108684D02*
X35751Y108721D01*
X35837Y108762D01*
X35922Y108806D01*
X36005Y108854D01*
X36085Y108905D01*
X36164Y108959D01*
X36240Y109017D01*
X36314Y109077D01*
X36386Y109141D01*
X36454Y109207D01*
X36520Y109277D01*
X36583Y109348D01*
X36644Y109423D01*
X36701Y109499D01*
X36754Y109578D01*
X36805Y109659D01*
X36852Y109742D01*
X36896Y109827D01*
X36936Y109914D01*
X36973Y110002D01*
X37006Y110092D01*
X37036Y110183D01*
X37061Y110275D01*
X37083Y110368D01*
X37101Y110462D01*
X37116Y110556D01*
X37126Y110651D01*
X37132Y110747D01*
X37135Y110842D01*
X37134Y110938D01*
X37128Y111033D01*
X37119Y111129D01*
X37106Y111223D01*
X37090Y111317D01*
X37069Y111411D01*
X37044Y111503D01*
X37016Y111594D01*
X36984Y111684D01*
X36949Y111773D01*
X36910Y111860D01*
X36867Y111946D01*
X36821Y112030D01*
X36771Y112111D01*
X36719Y112191D01*
X36663Y112269D01*
X36603Y112344D01*
X36541Y112416D01*
X36476Y112486D01*
X36408Y112554D01*
X36338Y112618D01*
X36265Y112680D01*
X36189Y112738D01*
X36111Y112794D01*
X36031Y112846D01*
X35949Y112895D01*
X35865Y112940D01*
X35779Y112982D01*
X35692Y113021D01*
X35603Y113056D01*
X35512Y113087D01*
X35421Y113114D01*
X35328Y113138D01*
X35235Y113158D01*
X35141Y113174D01*
X35046Y113186D01*
X34951Y113195D01*
X34855Y113199D01*
X34760Y113200D01*
X34513Y113193D01*
X34267Y113181D01*
X34021Y113163D01*
X33775Y113138D01*
X33531Y113108D01*
X33287Y113072D01*
X33044Y113031D01*
X32802Y112983D01*
X32561Y112929D01*
X32322Y112870D01*
X32084Y112805D01*
X31848Y112734D01*
X31613Y112658D01*
X31380Y112576D01*
X31150Y112488D01*
X30922Y112395D01*
X30695Y112297D01*
X31146Y106877D02*
X31058Y106840D01*
X30972Y106799D01*
X30887Y106755D01*
X30804Y106707D01*
X30724Y106656D01*
X30645Y106602D01*
X30569Y106544D01*
X30495Y106484D01*
X30423Y106420D01*
X30355Y106354D01*
X30289Y106284D01*
X30226Y106213D01*
X30165Y106138D01*
X30108Y106062D01*
X30055Y105983D01*
X30004Y105902D01*
X29957Y105819D01*
X29913Y105734D01*
X29873Y105647D01*
X29836Y105559D01*
X29803Y105469D01*
X29773Y105378D01*
X29748Y105286D01*
X29726Y105193D01*
X29708Y105099D01*
X29693Y105005D01*
X29683Y104910D01*
X29677Y104814D01*
X29674Y104719D01*
X29675Y104623D01*
X29681Y104528D01*
X29690Y104432D01*
X29703Y104338D01*
X29719Y104244D01*
X29740Y104150D01*
X29765Y104058D01*
X29793Y103967D01*
X29825Y103877D01*
X29860Y103788D01*
X29899Y103701D01*
X29942Y103615D01*
X29988Y103531D01*
X30038Y103450D01*
X30090Y103370D01*
X30146Y103292D01*
X30206Y103217D01*
X30268Y103145D01*
X30333Y103075D01*
X30401Y103007D01*
X30471Y102943D01*
X30544Y102881D01*
X30620Y102823D01*
X30698Y102767D01*
X30778Y102715D01*
X30860Y102666D01*
X30944Y102621D01*
X31030Y102579D01*
X31117Y102540D01*
X31206Y102505D01*
X31297Y102474D01*
X31388Y102447D01*
X31481Y102423D01*
X31574Y102403D01*
X31668Y102387D01*
X31763Y102375D01*
X31858Y102366D01*
X31954Y102362D01*
X32049Y102361D01*
X32050Y102362D02*
X32412Y102371D01*
X32774Y102389D01*
X33135Y102416D01*
X33495Y102451D01*
X33855Y102494D01*
X34214Y102546D01*
X34571Y102607D01*
X34926Y102676D01*
X35280Y102753D01*
X35632Y102839D01*
X35982Y102933D01*
X36330Y103036D01*
X36675Y103146D01*
X37017Y103265D01*
X173426Y91948D02*
X177038Y79304D01*
X168007Y79304D01*
X170716Y82917D02*
X170716Y75692D01*
X161268Y82014D02*
X150431Y82014D01*
X140079Y82917D02*
X134660Y82917D01*
X140079Y82917D02*
X140197Y82919D01*
X140315Y82925D01*
X140433Y82934D01*
X140550Y82948D01*
X140667Y82965D01*
X140784Y82986D01*
X140899Y83011D01*
X141014Y83040D01*
X141128Y83073D01*
X141240Y83109D01*
X141351Y83149D01*
X141461Y83192D01*
X141570Y83239D01*
X141677Y83289D01*
X141782Y83344D01*
X141885Y83401D01*
X141986Y83462D01*
X142086Y83526D01*
X142183Y83593D01*
X142278Y83663D01*
X142370Y83737D01*
X142461Y83813D01*
X142548Y83893D01*
X142633Y83975D01*
X142715Y84060D01*
X142795Y84147D01*
X142871Y84238D01*
X142945Y84330D01*
X143015Y84425D01*
X143082Y84522D01*
X143146Y84622D01*
X143207Y84723D01*
X143264Y84826D01*
X143319Y84931D01*
X143369Y85038D01*
X143416Y85147D01*
X143459Y85257D01*
X143499Y85368D01*
X143535Y85480D01*
X143568Y85594D01*
X143597Y85709D01*
X143622Y85824D01*
X143643Y85941D01*
X143660Y86058D01*
X143674Y86175D01*
X143683Y86293D01*
X143689Y86411D01*
X143691Y86529D01*
X143691Y87432D01*
X143692Y87432D02*
X143690Y87565D01*
X143684Y87697D01*
X143674Y87829D01*
X143661Y87961D01*
X143643Y88093D01*
X143622Y88223D01*
X143597Y88354D01*
X143568Y88483D01*
X143535Y88611D01*
X143499Y88739D01*
X143459Y88865D01*
X143415Y88990D01*
X143367Y89114D01*
X143316Y89236D01*
X143261Y89357D01*
X143203Y89476D01*
X143141Y89594D01*
X143076Y89709D01*
X143007Y89823D01*
X142936Y89934D01*
X142860Y90043D01*
X142782Y90150D01*
X142701Y90255D01*
X142616Y90357D01*
X142529Y90457D01*
X142439Y90554D01*
X142346Y90649D01*
X142250Y90740D01*
X142152Y90829D01*
X142051Y90915D01*
X141947Y90998D01*
X141841Y91078D01*
X141733Y91154D01*
X141623Y91228D01*
X141510Y91298D01*
X141396Y91365D01*
X141279Y91428D01*
X141161Y91488D01*
X141041Y91545D01*
X140919Y91598D01*
X140796Y91647D01*
X140672Y91693D01*
X140546Y91735D01*
X140419Y91773D01*
X140291Y91808D01*
X140162Y91839D01*
X140033Y91866D01*
X139902Y91889D01*
X139771Y91909D01*
X139639Y91924D01*
X139507Y91936D01*
X139375Y91944D01*
X139242Y91948D01*
X139110Y91948D01*
X138977Y91944D01*
X138845Y91936D01*
X138713Y91924D01*
X138581Y91909D01*
X138450Y91889D01*
X138319Y91866D01*
X138190Y91839D01*
X138061Y91808D01*
X137933Y91773D01*
X137806Y91735D01*
X137680Y91693D01*
X137556Y91647D01*
X137433Y91598D01*
X137311Y91545D01*
X137191Y91488D01*
X137073Y91428D01*
X136956Y91365D01*
X136842Y91298D01*
X136729Y91228D01*
X136619Y91154D01*
X136511Y91078D01*
X136405Y90998D01*
X136301Y90915D01*
X136200Y90829D01*
X136102Y90740D01*
X136006Y90649D01*
X135913Y90554D01*
X135823Y90457D01*
X135736Y90357D01*
X135651Y90255D01*
X135570Y90150D01*
X135492Y90043D01*
X135416Y89934D01*
X135345Y89823D01*
X135276Y89709D01*
X135211Y89594D01*
X135149Y89476D01*
X135091Y89357D01*
X135036Y89236D01*
X134985Y89114D01*
X134937Y88990D01*
X134893Y88865D01*
X134853Y88739D01*
X134817Y88611D01*
X134784Y88483D01*
X134755Y88354D01*
X134730Y88223D01*
X134709Y88093D01*
X134691Y87961D01*
X134678Y87829D01*
X134668Y87697D01*
X134662Y87565D01*
X134660Y87432D01*
X134660Y82917D01*
X134662Y82742D01*
X134668Y82568D01*
X134679Y82394D01*
X134694Y82220D01*
X134713Y82046D01*
X134736Y81873D01*
X134763Y81701D01*
X134795Y81529D01*
X134830Y81358D01*
X134870Y81188D01*
X134914Y81019D01*
X134962Y80851D01*
X135014Y80684D01*
X135070Y80519D01*
X135130Y80355D01*
X135193Y80192D01*
X135261Y80032D01*
X135333Y79872D01*
X135408Y79715D01*
X135488Y79559D01*
X135571Y79406D01*
X135657Y79254D01*
X135748Y79105D01*
X135842Y78958D01*
X135939Y78813D01*
X136040Y78670D01*
X136144Y78530D01*
X136252Y78393D01*
X136363Y78258D01*
X136477Y78126D01*
X136594Y77997D01*
X136715Y77870D01*
X136838Y77747D01*
X136965Y77626D01*
X137094Y77509D01*
X137226Y77395D01*
X137361Y77284D01*
X137498Y77176D01*
X137638Y77072D01*
X137781Y76971D01*
X137926Y76874D01*
X138073Y76780D01*
X138222Y76689D01*
X138374Y76603D01*
X138527Y76520D01*
X138683Y76440D01*
X138840Y76365D01*
X139000Y76293D01*
X139160Y76225D01*
X139323Y76162D01*
X139487Y76102D01*
X139652Y76046D01*
X139819Y75994D01*
X139987Y75946D01*
X140156Y75902D01*
X140326Y75862D01*
X140497Y75827D01*
X140669Y75795D01*
X140841Y75768D01*
X141014Y75745D01*
X141188Y75726D01*
X141362Y75711D01*
X141536Y75700D01*
X141710Y75694D01*
X141885Y75692D01*
X127921Y82014D02*
X117084Y82014D01*
X105378Y91948D02*
X105253Y91946D01*
X105128Y91940D01*
X105003Y91931D01*
X104879Y91917D01*
X104755Y91900D01*
X104631Y91879D01*
X104509Y91854D01*
X104387Y91825D01*
X104266Y91793D01*
X104146Y91757D01*
X104027Y91717D01*
X103910Y91674D01*
X103794Y91627D01*
X103679Y91576D01*
X103567Y91522D01*
X103455Y91464D01*
X103346Y91404D01*
X103239Y91339D01*
X103133Y91272D01*
X103030Y91201D01*
X102929Y91127D01*
X102830Y91050D01*
X102734Y90970D01*
X102640Y90887D01*
X102549Y90802D01*
X102460Y90713D01*
X102375Y90622D01*
X102292Y90528D01*
X102212Y90432D01*
X102135Y90333D01*
X102061Y90232D01*
X101990Y90129D01*
X101923Y90023D01*
X101858Y89916D01*
X101798Y89807D01*
X101740Y89695D01*
X101686Y89583D01*
X101635Y89468D01*
X101588Y89352D01*
X101545Y89235D01*
X101505Y89116D01*
X101469Y88996D01*
X101437Y88875D01*
X101408Y88753D01*
X101383Y88631D01*
X101362Y88507D01*
X101345Y88383D01*
X101331Y88259D01*
X101322Y88134D01*
X101316Y88009D01*
X101314Y87884D01*
X105378Y91948D02*
X105521Y91946D01*
X105663Y91940D01*
X105806Y91930D01*
X105948Y91917D01*
X106089Y91899D01*
X106231Y91878D01*
X106371Y91853D01*
X106511Y91824D01*
X106650Y91791D01*
X106788Y91754D01*
X106925Y91714D01*
X107060Y91670D01*
X107195Y91622D01*
X107328Y91570D01*
X107460Y91515D01*
X107590Y91456D01*
X107718Y91394D01*
X107845Y91328D01*
X107970Y91259D01*
X108093Y91187D01*
X108214Y91111D01*
X108332Y91032D01*
X108449Y90949D01*
X108563Y90864D01*
X108675Y90775D01*
X108784Y90684D01*
X108891Y90589D01*
X108996Y90492D01*
X109097Y90391D01*
X109196Y90288D01*
X109292Y90183D01*
X109385Y90074D01*
X109475Y89963D01*
X109562Y89850D01*
X109646Y89735D01*
X109726Y89617D01*
X109804Y89497D01*
X109878Y89375D01*
X109948Y89251D01*
X110016Y89125D01*
X110079Y88997D01*
X110140Y88868D01*
X110197Y88737D01*
X110250Y88605D01*
X110299Y88471D01*
X110345Y88336D01*
X102669Y84723D02*
X102575Y84815D01*
X102485Y84909D01*
X102397Y85006D01*
X102312Y85106D01*
X102230Y85208D01*
X102151Y85313D01*
X102076Y85420D01*
X102004Y85529D01*
X101935Y85640D01*
X101869Y85754D01*
X101807Y85869D01*
X101748Y85986D01*
X101693Y86105D01*
X101642Y86225D01*
X101594Y86347D01*
X101549Y86470D01*
X101509Y86594D01*
X101472Y86720D01*
X101439Y86847D01*
X101410Y86974D01*
X101384Y87103D01*
X101363Y87232D01*
X101345Y87362D01*
X101332Y87492D01*
X101322Y87622D01*
X101316Y87753D01*
X101314Y87884D01*
X102668Y84723D02*
X110345Y75692D01*
X101314Y75692D01*
X94713Y83820D02*
X94709Y84140D01*
X94698Y84459D01*
X94679Y84779D01*
X94652Y85097D01*
X94618Y85415D01*
X94576Y85732D01*
X94526Y86048D01*
X94469Y86363D01*
X94405Y86676D01*
X94333Y86988D01*
X94254Y87298D01*
X94167Y87605D01*
X94073Y87911D01*
X93972Y88214D01*
X93863Y88515D01*
X93748Y88813D01*
X93625Y89109D01*
X93495Y89401D01*
X93358Y89690D01*
X93359Y89691D02*
X93320Y89799D01*
X93277Y89906D01*
X93231Y90011D01*
X93180Y90115D01*
X93127Y90217D01*
X93070Y90317D01*
X93009Y90415D01*
X92945Y90510D01*
X92878Y90604D01*
X92807Y90695D01*
X92734Y90784D01*
X92657Y90870D01*
X92578Y90953D01*
X92496Y91034D01*
X92411Y91112D01*
X92323Y91186D01*
X92233Y91258D01*
X92141Y91326D01*
X92046Y91392D01*
X91949Y91454D01*
X91850Y91512D01*
X91748Y91568D01*
X91646Y91619D01*
X91541Y91667D01*
X91435Y91712D01*
X91327Y91753D01*
X91218Y91790D01*
X91108Y91823D01*
X90996Y91852D01*
X90884Y91878D01*
X90771Y91900D01*
X90657Y91917D01*
X90543Y91931D01*
X90428Y91941D01*
X90313Y91947D01*
X90198Y91949D01*
X90198Y91948D02*
X90083Y91946D01*
X89968Y91940D01*
X89853Y91930D01*
X89739Y91916D01*
X89625Y91899D01*
X89512Y91877D01*
X89400Y91851D01*
X89288Y91822D01*
X89178Y91789D01*
X89069Y91752D01*
X88961Y91711D01*
X88855Y91666D01*
X88751Y91618D01*
X88648Y91567D01*
X88547Y91511D01*
X88447Y91453D01*
X88350Y91391D01*
X88256Y91326D01*
X88163Y91257D01*
X88073Y91185D01*
X87985Y91111D01*
X87900Y91033D01*
X87818Y90952D01*
X87739Y90869D01*
X87662Y90783D01*
X87589Y90694D01*
X87518Y90603D01*
X87451Y90509D01*
X87387Y90414D01*
X87326Y90316D01*
X87269Y90216D01*
X87216Y90114D01*
X87165Y90010D01*
X87119Y89905D01*
X87076Y89798D01*
X87037Y89690D01*
X87038Y89690D02*
X86901Y89401D01*
X86771Y89109D01*
X86648Y88813D01*
X86533Y88515D01*
X86424Y88214D01*
X86323Y87911D01*
X86229Y87605D01*
X86142Y87298D01*
X86063Y86988D01*
X85991Y86676D01*
X85927Y86363D01*
X85870Y86048D01*
X85820Y85732D01*
X85778Y85415D01*
X85744Y85097D01*
X85717Y84779D01*
X85698Y84459D01*
X85687Y84140D01*
X85683Y83820D01*
X94713Y83820D02*
X94709Y83500D01*
X94698Y83181D01*
X94679Y82861D01*
X94652Y82543D01*
X94618Y82225D01*
X94576Y81908D01*
X94526Y81592D01*
X94469Y81277D01*
X94405Y80964D01*
X94333Y80652D01*
X94254Y80342D01*
X94167Y80035D01*
X94073Y79729D01*
X93972Y79426D01*
X93863Y79125D01*
X93748Y78827D01*
X93625Y78531D01*
X93495Y78239D01*
X93358Y77950D01*
X93359Y77950D02*
X93320Y77842D01*
X93277Y77735D01*
X93231Y77630D01*
X93180Y77526D01*
X93127Y77424D01*
X93070Y77324D01*
X93009Y77226D01*
X92945Y77131D01*
X92878Y77037D01*
X92807Y76946D01*
X92734Y76857D01*
X92657Y76771D01*
X92578Y76688D01*
X92496Y76607D01*
X92411Y76529D01*
X92323Y76455D01*
X92233Y76383D01*
X92140Y76314D01*
X92046Y76249D01*
X91949Y76187D01*
X91849Y76129D01*
X91748Y76073D01*
X91646Y76022D01*
X91541Y75974D01*
X91435Y75929D01*
X91327Y75888D01*
X91218Y75851D01*
X91108Y75818D01*
X90996Y75789D01*
X90884Y75763D01*
X90771Y75741D01*
X90657Y75724D01*
X90543Y75710D01*
X90428Y75700D01*
X90313Y75694D01*
X90198Y75692D01*
X87038Y77950D02*
X86901Y78239D01*
X86771Y78531D01*
X86648Y78827D01*
X86533Y79125D01*
X86424Y79426D01*
X86323Y79729D01*
X86229Y80035D01*
X86142Y80342D01*
X86063Y80652D01*
X85991Y80964D01*
X85927Y81277D01*
X85870Y81592D01*
X85820Y81908D01*
X85778Y82225D01*
X85744Y82543D01*
X85717Y82861D01*
X85698Y83181D01*
X85687Y83500D01*
X85683Y83820D01*
X87037Y77950D02*
X87076Y77842D01*
X87119Y77735D01*
X87165Y77630D01*
X87216Y77526D01*
X87269Y77424D01*
X87327Y77324D01*
X87387Y77226D01*
X87451Y77131D01*
X87518Y77037D01*
X87589Y76946D01*
X87662Y76857D01*
X87739Y76771D01*
X87818Y76688D01*
X87900Y76607D01*
X87985Y76529D01*
X88073Y76455D01*
X88163Y76383D01*
X88256Y76314D01*
X88350Y76249D01*
X88447Y76187D01*
X88547Y76129D01*
X88648Y76073D01*
X88751Y76022D01*
X88855Y75974D01*
X88961Y75929D01*
X89069Y75888D01*
X89178Y75851D01*
X89288Y75818D01*
X89400Y75789D01*
X89512Y75763D01*
X89625Y75741D01*
X89739Y75724D01*
X89853Y75710D01*
X89968Y75700D01*
X90083Y75694D01*
X90198Y75692D01*
X93811Y79304D02*
X86586Y88336D01*
X74115Y91948D02*
X73990Y91946D01*
X73865Y91940D01*
X73740Y91931D01*
X73616Y91917D01*
X73492Y91900D01*
X73368Y91879D01*
X73246Y91854D01*
X73124Y91825D01*
X73003Y91793D01*
X72883Y91757D01*
X72764Y91717D01*
X72647Y91674D01*
X72531Y91627D01*
X72416Y91576D01*
X72304Y91522D01*
X72192Y91464D01*
X72083Y91404D01*
X71976Y91339D01*
X71870Y91272D01*
X71767Y91201D01*
X71666Y91127D01*
X71567Y91050D01*
X71471Y90970D01*
X71377Y90887D01*
X71286Y90802D01*
X71197Y90713D01*
X71112Y90622D01*
X71029Y90528D01*
X70949Y90432D01*
X70872Y90333D01*
X70798Y90232D01*
X70727Y90129D01*
X70660Y90023D01*
X70595Y89916D01*
X70535Y89807D01*
X70477Y89695D01*
X70423Y89583D01*
X70372Y89468D01*
X70325Y89352D01*
X70282Y89235D01*
X70242Y89116D01*
X70206Y88996D01*
X70174Y88875D01*
X70145Y88753D01*
X70120Y88631D01*
X70099Y88507D01*
X70082Y88383D01*
X70068Y88259D01*
X70059Y88134D01*
X70053Y88009D01*
X70051Y87884D01*
X74115Y91948D02*
X74258Y91946D01*
X74400Y91940D01*
X74543Y91930D01*
X74685Y91917D01*
X74826Y91899D01*
X74968Y91878D01*
X75108Y91853D01*
X75248Y91824D01*
X75387Y91791D01*
X75525Y91754D01*
X75662Y91714D01*
X75797Y91670D01*
X75932Y91622D01*
X76065Y91570D01*
X76197Y91515D01*
X76327Y91456D01*
X76455Y91394D01*
X76582Y91328D01*
X76707Y91259D01*
X76830Y91187D01*
X76951Y91111D01*
X77069Y91032D01*
X77186Y90949D01*
X77300Y90864D01*
X77412Y90775D01*
X77521Y90684D01*
X77628Y90589D01*
X77733Y90492D01*
X77834Y90391D01*
X77933Y90288D01*
X78029Y90183D01*
X78122Y90074D01*
X78212Y89963D01*
X78299Y89850D01*
X78383Y89735D01*
X78463Y89617D01*
X78541Y89497D01*
X78615Y89375D01*
X78685Y89251D01*
X78753Y89125D01*
X78816Y88997D01*
X78877Y88868D01*
X78934Y88737D01*
X78987Y88605D01*
X79036Y88471D01*
X79082Y88336D01*
X71406Y84723D02*
X71312Y84815D01*
X71222Y84909D01*
X71134Y85006D01*
X71049Y85106D01*
X70967Y85208D01*
X70888Y85313D01*
X70813Y85420D01*
X70741Y85529D01*
X70672Y85640D01*
X70606Y85754D01*
X70544Y85869D01*
X70485Y85986D01*
X70430Y86105D01*
X70379Y86225D01*
X70331Y86347D01*
X70286Y86470D01*
X70246Y86594D01*
X70209Y86720D01*
X70176Y86847D01*
X70147Y86974D01*
X70121Y87103D01*
X70100Y87232D01*
X70082Y87362D01*
X70069Y87492D01*
X70059Y87622D01*
X70053Y87753D01*
X70051Y87884D01*
X71406Y84723D02*
X79082Y75692D01*
X70051Y75692D01*
X63451Y88336D02*
X58936Y91948D01*
X58936Y75692D01*
X63451Y75692D02*
X54420Y75692D01*
X173426Y49022D02*
X177038Y65278D01*
X169813Y59859D02*
X173426Y49022D01*
X166201Y49022D02*
X169813Y59859D01*
X162588Y65278D02*
X166201Y49022D01*
X156787Y49022D02*
X156787Y59859D01*
X157239Y64375D02*
X157239Y65278D01*
X156336Y65278D01*
X156336Y64375D01*
X157239Y64375D01*
X149979Y59859D02*
X149979Y49022D01*
X149979Y59859D02*
X145463Y59859D01*
X145359Y59857D01*
X145256Y59851D01*
X145152Y59841D01*
X145049Y59827D01*
X144947Y59809D01*
X144846Y59788D01*
X144745Y59762D01*
X144646Y59733D01*
X144547Y59700D01*
X144450Y59663D01*
X144355Y59622D01*
X144261Y59578D01*
X144169Y59530D01*
X144079Y59479D01*
X143990Y59424D01*
X143904Y59366D01*
X143821Y59304D01*
X143739Y59240D01*
X143661Y59172D01*
X143585Y59102D01*
X143511Y59029D01*
X143441Y58952D01*
X143373Y58874D01*
X143309Y58792D01*
X143247Y58709D01*
X143189Y58623D01*
X143134Y58534D01*
X143083Y58444D01*
X143035Y58352D01*
X142991Y58258D01*
X142950Y58163D01*
X142913Y58066D01*
X142880Y57967D01*
X142851Y57868D01*
X142825Y57767D01*
X142804Y57666D01*
X142786Y57564D01*
X142772Y57461D01*
X142762Y57357D01*
X142756Y57254D01*
X142754Y57150D01*
X142754Y49022D01*
X128759Y49022D02*
X128759Y65278D01*
X128759Y49022D02*
X133275Y49022D01*
X133376Y49024D01*
X133477Y49030D01*
X133578Y49039D01*
X133679Y49052D01*
X133779Y49069D01*
X133878Y49090D01*
X133976Y49114D01*
X134073Y49142D01*
X134170Y49174D01*
X134265Y49209D01*
X134358Y49248D01*
X134450Y49290D01*
X134541Y49336D01*
X134630Y49385D01*
X134716Y49437D01*
X134801Y49493D01*
X134884Y49551D01*
X134964Y49613D01*
X135042Y49678D01*
X135118Y49745D01*
X135191Y49815D01*
X135261Y49888D01*
X135328Y49964D01*
X135393Y50042D01*
X135455Y50122D01*
X135513Y50205D01*
X135569Y50290D01*
X135621Y50376D01*
X135670Y50465D01*
X135716Y50556D01*
X135758Y50648D01*
X135797Y50741D01*
X135832Y50836D01*
X135864Y50933D01*
X135892Y51030D01*
X135916Y51128D01*
X135937Y51227D01*
X135954Y51327D01*
X135967Y51428D01*
X135976Y51529D01*
X135982Y51630D01*
X135984Y51731D01*
X135984Y57150D01*
X135982Y57251D01*
X135976Y57352D01*
X135967Y57453D01*
X135954Y57554D01*
X135937Y57654D01*
X135916Y57753D01*
X135892Y57851D01*
X135864Y57948D01*
X135832Y58045D01*
X135797Y58140D01*
X135758Y58233D01*
X135716Y58325D01*
X135670Y58416D01*
X135621Y58505D01*
X135569Y58591D01*
X135513Y58676D01*
X135455Y58759D01*
X135393Y58839D01*
X135328Y58917D01*
X135261Y58993D01*
X135191Y59066D01*
X135118Y59136D01*
X135042Y59203D01*
X134964Y59268D01*
X134884Y59330D01*
X134801Y59388D01*
X134716Y59444D01*
X134630Y59496D01*
X134541Y59545D01*
X134450Y59591D01*
X134358Y59633D01*
X134265Y59672D01*
X134170Y59707D01*
X134073Y59739D01*
X133976Y59767D01*
X133878Y59791D01*
X133779Y59812D01*
X133679Y59829D01*
X133578Y59842D01*
X133477Y59851D01*
X133376Y59857D01*
X133275Y59859D01*
X128759Y59859D01*
X120314Y65278D02*
X120314Y49022D01*
X118508Y49022D02*
X122121Y49022D01*
X122121Y65278D02*
X118508Y65278D01*
X112325Y60762D02*
X112325Y53538D01*
X112325Y60762D02*
X112323Y60895D01*
X112317Y61027D01*
X112307Y61159D01*
X112294Y61291D01*
X112276Y61423D01*
X112255Y61553D01*
X112230Y61684D01*
X112201Y61813D01*
X112168Y61941D01*
X112132Y62069D01*
X112092Y62195D01*
X112048Y62320D01*
X112000Y62444D01*
X111949Y62566D01*
X111894Y62687D01*
X111836Y62806D01*
X111774Y62924D01*
X111709Y63039D01*
X111640Y63153D01*
X111569Y63264D01*
X111493Y63373D01*
X111415Y63480D01*
X111334Y63585D01*
X111249Y63687D01*
X111162Y63787D01*
X111072Y63884D01*
X110979Y63979D01*
X110883Y64070D01*
X110785Y64159D01*
X110684Y64245D01*
X110580Y64328D01*
X110474Y64408D01*
X110366Y64484D01*
X110256Y64558D01*
X110143Y64628D01*
X110029Y64695D01*
X109912Y64758D01*
X109794Y64818D01*
X109674Y64875D01*
X109552Y64928D01*
X109429Y64977D01*
X109305Y65023D01*
X109179Y65065D01*
X109052Y65103D01*
X108924Y65138D01*
X108795Y65169D01*
X108666Y65196D01*
X108535Y65219D01*
X108404Y65239D01*
X108272Y65254D01*
X108140Y65266D01*
X108008Y65274D01*
X107875Y65278D01*
X107743Y65278D01*
X107610Y65274D01*
X107478Y65266D01*
X107346Y65254D01*
X107214Y65239D01*
X107083Y65219D01*
X106952Y65196D01*
X106823Y65169D01*
X106694Y65138D01*
X106566Y65103D01*
X106439Y65065D01*
X106313Y65023D01*
X106189Y64977D01*
X106066Y64928D01*
X105944Y64875D01*
X105824Y64818D01*
X105706Y64758D01*
X105589Y64695D01*
X105475Y64628D01*
X105362Y64558D01*
X105252Y64484D01*
X105144Y64408D01*
X105038Y64328D01*
X104934Y64245D01*
X104833Y64159D01*
X104735Y64070D01*
X104639Y63979D01*
X104546Y63884D01*
X104456Y63787D01*
X104369Y63687D01*
X104284Y63585D01*
X104203Y63480D01*
X104125Y63373D01*
X104049Y63264D01*
X103978Y63153D01*
X103909Y63039D01*
X103844Y62924D01*
X103782Y62806D01*
X103724Y62687D01*
X103669Y62566D01*
X103618Y62444D01*
X103570Y62320D01*
X103526Y62195D01*
X103486Y62069D01*
X103450Y61941D01*
X103417Y61813D01*
X103388Y61684D01*
X103363Y61553D01*
X103342Y61423D01*
X103324Y61291D01*
X103311Y61159D01*
X103301Y61027D01*
X103295Y60895D01*
X103293Y60762D01*
X103294Y60762D02*
X103294Y53538D01*
X103293Y53538D02*
X103295Y53405D01*
X103301Y53273D01*
X103311Y53141D01*
X103324Y53009D01*
X103342Y52877D01*
X103363Y52747D01*
X103388Y52616D01*
X103417Y52487D01*
X103450Y52359D01*
X103486Y52231D01*
X103526Y52105D01*
X103570Y51980D01*
X103618Y51856D01*
X103669Y51734D01*
X103724Y51613D01*
X103782Y51494D01*
X103844Y51376D01*
X103909Y51261D01*
X103978Y51147D01*
X104049Y51036D01*
X104125Y50927D01*
X104203Y50820D01*
X104284Y50715D01*
X104369Y50613D01*
X104456Y50513D01*
X104546Y50416D01*
X104639Y50321D01*
X104735Y50230D01*
X104833Y50141D01*
X104934Y50055D01*
X105038Y49972D01*
X105144Y49892D01*
X105252Y49816D01*
X105362Y49742D01*
X105475Y49672D01*
X105589Y49605D01*
X105706Y49542D01*
X105824Y49482D01*
X105944Y49425D01*
X106066Y49372D01*
X106189Y49323D01*
X106313Y49277D01*
X106439Y49235D01*
X106566Y49197D01*
X106694Y49162D01*
X106823Y49131D01*
X106952Y49104D01*
X107083Y49081D01*
X107214Y49061D01*
X107346Y49046D01*
X107478Y49034D01*
X107610Y49026D01*
X107743Y49022D01*
X107875Y49022D01*
X108008Y49026D01*
X108140Y49034D01*
X108272Y49046D01*
X108404Y49061D01*
X108535Y49081D01*
X108666Y49104D01*
X108795Y49131D01*
X108924Y49162D01*
X109052Y49197D01*
X109179Y49235D01*
X109305Y49277D01*
X109429Y49323D01*
X109552Y49372D01*
X109674Y49425D01*
X109794Y49482D01*
X109912Y49542D01*
X110029Y49605D01*
X110143Y49672D01*
X110256Y49742D01*
X110366Y49816D01*
X110474Y49892D01*
X110580Y49972D01*
X110684Y50055D01*
X110785Y50141D01*
X110883Y50230D01*
X110979Y50321D01*
X111072Y50416D01*
X111162Y50513D01*
X111249Y50613D01*
X111334Y50715D01*
X111415Y50820D01*
X111493Y50927D01*
X111569Y51036D01*
X111640Y51147D01*
X111709Y51261D01*
X111774Y51376D01*
X111836Y51494D01*
X111894Y51613D01*
X111949Y51734D01*
X112000Y51856D01*
X112048Y51980D01*
X112092Y52105D01*
X112132Y52231D01*
X112168Y52359D01*
X112201Y52487D01*
X112230Y52616D01*
X112255Y52747D01*
X112276Y52877D01*
X112294Y53009D01*
X112307Y53141D01*
X112317Y53273D01*
X112323Y53405D01*
X112325Y53538D01*
X93220Y49022D02*
X93220Y65278D01*
X88705Y65278D02*
X97736Y65278D01*
M02*
