G04 EAGLE Gerber RS-274X export*
G75*
%MOMM*%
%FSLAX34Y34*%
%LPD*%
%INSilkscreen Top*%
%IPPOS*%
%AMOC8*
5,1,8,0,0,1.08239X$1,22.5*%
G01*
%ADD10C,0.076200*%
%ADD11C,0.101600*%


D10*
X60719Y121558D02*
X60719Y119469D01*
X60717Y119380D01*
X60711Y119292D01*
X60702Y119204D01*
X60689Y119116D01*
X60672Y119029D01*
X60652Y118943D01*
X60627Y118858D01*
X60600Y118773D01*
X60568Y118690D01*
X60534Y118609D01*
X60495Y118529D01*
X60454Y118451D01*
X60409Y118374D01*
X60361Y118300D01*
X60310Y118227D01*
X60256Y118157D01*
X60198Y118090D01*
X60138Y118024D01*
X60076Y117962D01*
X60010Y117902D01*
X59943Y117844D01*
X59873Y117790D01*
X59800Y117739D01*
X59726Y117691D01*
X59649Y117646D01*
X59571Y117605D01*
X59491Y117566D01*
X59410Y117532D01*
X59327Y117500D01*
X59242Y117473D01*
X59157Y117448D01*
X59071Y117428D01*
X58984Y117411D01*
X58896Y117398D01*
X58808Y117389D01*
X58720Y117383D01*
X58631Y117381D01*
X53409Y117381D01*
X53318Y117383D01*
X53227Y117389D01*
X53136Y117399D01*
X53046Y117413D01*
X52957Y117431D01*
X52868Y117452D01*
X52781Y117478D01*
X52695Y117507D01*
X52610Y117540D01*
X52526Y117577D01*
X52444Y117617D01*
X52365Y117661D01*
X52287Y117708D01*
X52211Y117759D01*
X52137Y117813D01*
X52066Y117870D01*
X51998Y117930D01*
X51932Y117993D01*
X51869Y118059D01*
X51809Y118127D01*
X51752Y118198D01*
X51698Y118272D01*
X51647Y118348D01*
X51600Y118425D01*
X51556Y118505D01*
X51516Y118587D01*
X51479Y118671D01*
X51446Y118755D01*
X51417Y118842D01*
X51391Y118929D01*
X51370Y119018D01*
X51352Y119107D01*
X51338Y119197D01*
X51328Y119288D01*
X51322Y119379D01*
X51320Y119470D01*
X51321Y119469D02*
X51321Y121558D01*
X53409Y125027D02*
X51321Y127637D01*
X60719Y127637D01*
X60719Y125027D02*
X60719Y130248D01*
X143269Y121558D02*
X143269Y119469D01*
X143267Y119380D01*
X143261Y119292D01*
X143252Y119204D01*
X143239Y119116D01*
X143222Y119029D01*
X143202Y118943D01*
X143177Y118858D01*
X143150Y118773D01*
X143118Y118690D01*
X143084Y118609D01*
X143045Y118529D01*
X143004Y118451D01*
X142959Y118374D01*
X142911Y118300D01*
X142860Y118227D01*
X142806Y118157D01*
X142748Y118090D01*
X142688Y118024D01*
X142626Y117962D01*
X142560Y117902D01*
X142493Y117844D01*
X142423Y117790D01*
X142350Y117739D01*
X142276Y117691D01*
X142199Y117646D01*
X142121Y117605D01*
X142041Y117566D01*
X141960Y117532D01*
X141877Y117500D01*
X141792Y117473D01*
X141707Y117448D01*
X141621Y117428D01*
X141534Y117411D01*
X141446Y117398D01*
X141358Y117389D01*
X141270Y117383D01*
X141181Y117381D01*
X135959Y117381D01*
X135868Y117383D01*
X135777Y117389D01*
X135686Y117399D01*
X135596Y117413D01*
X135507Y117431D01*
X135418Y117452D01*
X135331Y117478D01*
X135245Y117507D01*
X135160Y117540D01*
X135076Y117577D01*
X134994Y117617D01*
X134915Y117661D01*
X134837Y117708D01*
X134761Y117759D01*
X134687Y117813D01*
X134616Y117870D01*
X134548Y117930D01*
X134482Y117993D01*
X134419Y118059D01*
X134359Y118127D01*
X134302Y118198D01*
X134248Y118272D01*
X134197Y118348D01*
X134150Y118425D01*
X134106Y118505D01*
X134066Y118587D01*
X134029Y118671D01*
X133996Y118755D01*
X133967Y118842D01*
X133941Y118929D01*
X133920Y119018D01*
X133902Y119107D01*
X133888Y119197D01*
X133878Y119288D01*
X133872Y119379D01*
X133870Y119470D01*
X133871Y119469D02*
X133871Y121558D01*
X133871Y127898D02*
X133873Y127993D01*
X133879Y128087D01*
X133888Y128181D01*
X133901Y128275D01*
X133918Y128368D01*
X133939Y128460D01*
X133964Y128552D01*
X133992Y128642D01*
X134024Y128731D01*
X134059Y128819D01*
X134098Y128905D01*
X134140Y128990D01*
X134186Y129073D01*
X134235Y129154D01*
X134287Y129233D01*
X134342Y129310D01*
X134401Y129384D01*
X134462Y129456D01*
X134526Y129526D01*
X134593Y129593D01*
X134663Y129657D01*
X134735Y129718D01*
X134809Y129777D01*
X134886Y129832D01*
X134965Y129884D01*
X135046Y129933D01*
X135129Y129979D01*
X135214Y130021D01*
X135300Y130060D01*
X135388Y130095D01*
X135477Y130127D01*
X135567Y130155D01*
X135659Y130180D01*
X135751Y130201D01*
X135844Y130218D01*
X135938Y130231D01*
X136032Y130240D01*
X136126Y130246D01*
X136221Y130248D01*
X133871Y127898D02*
X133873Y127790D01*
X133879Y127681D01*
X133889Y127573D01*
X133902Y127466D01*
X133920Y127359D01*
X133941Y127252D01*
X133966Y127147D01*
X133995Y127042D01*
X134027Y126939D01*
X134064Y126837D01*
X134104Y126736D01*
X134147Y126637D01*
X134194Y126539D01*
X134245Y126443D01*
X134299Y126349D01*
X134356Y126257D01*
X134417Y126167D01*
X134481Y126079D01*
X134547Y125994D01*
X134617Y125911D01*
X134690Y125831D01*
X134766Y125753D01*
X134844Y125678D01*
X134925Y125606D01*
X135009Y125537D01*
X135095Y125471D01*
X135183Y125408D01*
X135274Y125349D01*
X135366Y125292D01*
X135461Y125239D01*
X135558Y125190D01*
X135656Y125144D01*
X135755Y125101D01*
X135857Y125062D01*
X135959Y125027D01*
X138049Y129465D02*
X137980Y129534D01*
X137909Y129600D01*
X137836Y129664D01*
X137760Y129725D01*
X137681Y129783D01*
X137601Y129837D01*
X137518Y129889D01*
X137434Y129937D01*
X137348Y129983D01*
X137260Y130024D01*
X137170Y130063D01*
X137079Y130098D01*
X136987Y130129D01*
X136894Y130157D01*
X136800Y130181D01*
X136705Y130201D01*
X136609Y130218D01*
X136512Y130231D01*
X136415Y130240D01*
X136318Y130246D01*
X136221Y130248D01*
X138048Y129465D02*
X143269Y125027D01*
X143269Y130248D01*
D11*
X77978Y56642D02*
X71374Y56642D01*
X77978Y56642D02*
X78078Y56644D01*
X78177Y56650D01*
X78277Y56660D01*
X78375Y56673D01*
X78474Y56691D01*
X78571Y56712D01*
X78667Y56737D01*
X78763Y56766D01*
X78857Y56799D01*
X78950Y56835D01*
X79041Y56875D01*
X79131Y56919D01*
X79219Y56966D01*
X79305Y57016D01*
X79389Y57070D01*
X79471Y57127D01*
X79550Y57187D01*
X79628Y57251D01*
X79702Y57317D01*
X79774Y57386D01*
X79843Y57458D01*
X79909Y57532D01*
X79973Y57610D01*
X80033Y57689D01*
X80090Y57771D01*
X80144Y57855D01*
X80194Y57941D01*
X80241Y58029D01*
X80285Y58119D01*
X80325Y58210D01*
X80361Y58303D01*
X80394Y58397D01*
X80423Y58493D01*
X80448Y58589D01*
X80469Y58686D01*
X80487Y58785D01*
X80500Y58883D01*
X80510Y58983D01*
X80516Y59082D01*
X80518Y59182D01*
X80516Y59282D01*
X80510Y59381D01*
X80500Y59481D01*
X80487Y59579D01*
X80469Y59678D01*
X80448Y59775D01*
X80423Y59871D01*
X80394Y59967D01*
X80361Y60061D01*
X80325Y60154D01*
X80285Y60245D01*
X80241Y60335D01*
X80194Y60423D01*
X80144Y60509D01*
X80090Y60593D01*
X80033Y60675D01*
X79973Y60754D01*
X79909Y60832D01*
X79843Y60906D01*
X79774Y60978D01*
X79702Y61047D01*
X79628Y61113D01*
X79550Y61177D01*
X79471Y61237D01*
X79389Y61294D01*
X79305Y61348D01*
X79219Y61398D01*
X79131Y61445D01*
X79041Y61489D01*
X78950Y61529D01*
X78857Y61565D01*
X78763Y61598D01*
X78667Y61627D01*
X78571Y61652D01*
X78474Y61673D01*
X78375Y61691D01*
X78277Y61704D01*
X78177Y61714D01*
X78078Y61720D01*
X77978Y61722D01*
X71374Y61722D01*
X73406Y66091D02*
X71374Y68631D01*
X80518Y68631D01*
X80518Y66091D02*
X80518Y71171D01*
X45776Y87870D02*
X37338Y87870D01*
X45776Y87869D02*
X45889Y87871D01*
X46002Y87877D01*
X46115Y87887D01*
X46228Y87901D01*
X46340Y87918D01*
X46451Y87940D01*
X46561Y87965D01*
X46671Y87995D01*
X46779Y88028D01*
X46886Y88065D01*
X46992Y88105D01*
X47096Y88150D01*
X47199Y88198D01*
X47300Y88249D01*
X47399Y88304D01*
X47496Y88362D01*
X47591Y88424D01*
X47684Y88489D01*
X47774Y88557D01*
X47862Y88628D01*
X47948Y88703D01*
X48031Y88780D01*
X48111Y88860D01*
X48188Y88943D01*
X48263Y89029D01*
X48334Y89117D01*
X48402Y89207D01*
X48467Y89300D01*
X48529Y89395D01*
X48587Y89492D01*
X48642Y89591D01*
X48693Y89692D01*
X48741Y89795D01*
X48786Y89899D01*
X48826Y90005D01*
X48863Y90112D01*
X48896Y90220D01*
X48926Y90330D01*
X48951Y90440D01*
X48973Y90551D01*
X48990Y90663D01*
X49004Y90776D01*
X49014Y90889D01*
X49020Y91002D01*
X49022Y91115D01*
X49020Y91228D01*
X49014Y91341D01*
X49004Y91454D01*
X48990Y91567D01*
X48973Y91679D01*
X48951Y91790D01*
X48926Y91900D01*
X48896Y92010D01*
X48863Y92118D01*
X48826Y92225D01*
X48786Y92331D01*
X48741Y92435D01*
X48693Y92538D01*
X48642Y92639D01*
X48587Y92738D01*
X48529Y92835D01*
X48467Y92930D01*
X48402Y93023D01*
X48334Y93113D01*
X48263Y93201D01*
X48188Y93287D01*
X48111Y93370D01*
X48031Y93450D01*
X47948Y93527D01*
X47862Y93602D01*
X47774Y93673D01*
X47684Y93741D01*
X47591Y93806D01*
X47496Y93868D01*
X47399Y93926D01*
X47300Y93981D01*
X47199Y94032D01*
X47096Y94080D01*
X46992Y94125D01*
X46886Y94165D01*
X46779Y94202D01*
X46671Y94235D01*
X46561Y94265D01*
X46451Y94290D01*
X46340Y94312D01*
X46228Y94329D01*
X46115Y94343D01*
X46002Y94353D01*
X45889Y94359D01*
X45776Y94361D01*
X37338Y94361D01*
X37338Y103251D02*
X37340Y103358D01*
X37346Y103464D01*
X37356Y103570D01*
X37369Y103676D01*
X37387Y103782D01*
X37408Y103886D01*
X37433Y103990D01*
X37462Y104093D01*
X37494Y104194D01*
X37531Y104294D01*
X37571Y104393D01*
X37614Y104491D01*
X37661Y104587D01*
X37712Y104681D01*
X37766Y104773D01*
X37823Y104863D01*
X37883Y104951D01*
X37947Y105036D01*
X38014Y105119D01*
X38084Y105200D01*
X38156Y105278D01*
X38232Y105354D01*
X38310Y105426D01*
X38391Y105496D01*
X38474Y105563D01*
X38559Y105627D01*
X38647Y105687D01*
X38737Y105744D01*
X38829Y105798D01*
X38923Y105849D01*
X39019Y105896D01*
X39117Y105939D01*
X39216Y105979D01*
X39316Y106016D01*
X39417Y106048D01*
X39520Y106077D01*
X39624Y106102D01*
X39728Y106123D01*
X39834Y106141D01*
X39940Y106154D01*
X40046Y106164D01*
X40152Y106170D01*
X40259Y106172D01*
X37338Y103251D02*
X37340Y103130D01*
X37346Y103009D01*
X37356Y102889D01*
X37369Y102768D01*
X37387Y102649D01*
X37408Y102529D01*
X37433Y102411D01*
X37462Y102294D01*
X37495Y102177D01*
X37531Y102062D01*
X37572Y101948D01*
X37615Y101835D01*
X37663Y101723D01*
X37714Y101614D01*
X37769Y101506D01*
X37827Y101399D01*
X37888Y101295D01*
X37953Y101193D01*
X38021Y101093D01*
X38092Y100995D01*
X38166Y100899D01*
X38243Y100806D01*
X38324Y100716D01*
X38407Y100628D01*
X38493Y100543D01*
X38582Y100460D01*
X38673Y100381D01*
X38767Y100304D01*
X38863Y100231D01*
X38961Y100161D01*
X39062Y100094D01*
X39165Y100030D01*
X39270Y99970D01*
X39377Y99912D01*
X39485Y99859D01*
X39595Y99809D01*
X39707Y99763D01*
X39820Y99720D01*
X39935Y99681D01*
X42531Y105198D02*
X42453Y105277D01*
X42373Y105353D01*
X42290Y105426D01*
X42204Y105496D01*
X42117Y105563D01*
X42026Y105627D01*
X41934Y105687D01*
X41840Y105745D01*
X41743Y105799D01*
X41645Y105849D01*
X41545Y105896D01*
X41444Y105940D01*
X41341Y105980D01*
X41236Y106016D01*
X41131Y106048D01*
X41024Y106077D01*
X40917Y106102D01*
X40808Y106124D01*
X40699Y106141D01*
X40590Y106155D01*
X40480Y106164D01*
X40369Y106170D01*
X40259Y106172D01*
X42531Y105198D02*
X49022Y99681D01*
X49022Y106172D01*
X177908Y43128D02*
X186996Y43128D01*
X186996Y43127D02*
X187095Y43125D01*
X187195Y43119D01*
X187294Y43110D01*
X187392Y43097D01*
X187490Y43080D01*
X187588Y43059D01*
X187684Y43034D01*
X187779Y43006D01*
X187873Y42974D01*
X187966Y42939D01*
X188058Y42900D01*
X188148Y42857D01*
X188236Y42812D01*
X188323Y42762D01*
X188407Y42710D01*
X188490Y42654D01*
X188570Y42596D01*
X188648Y42534D01*
X188723Y42469D01*
X188796Y42401D01*
X188866Y42331D01*
X188934Y42258D01*
X188999Y42183D01*
X189061Y42105D01*
X189119Y42025D01*
X189175Y41942D01*
X189227Y41858D01*
X189277Y41771D01*
X189322Y41683D01*
X189365Y41593D01*
X189404Y41501D01*
X189439Y41408D01*
X189471Y41314D01*
X189499Y41219D01*
X189524Y41123D01*
X189545Y41025D01*
X189562Y40927D01*
X189575Y40829D01*
X189584Y40730D01*
X189590Y40630D01*
X189592Y40531D01*
X189592Y39233D01*
X180504Y48401D02*
X177908Y51646D01*
X189592Y51646D01*
X189592Y48401D02*
X189592Y54892D01*
M02*
