G04 EAGLE Gerber RS-274X export*
G75*
%MOMM*%
%FSLAX34Y34*%
%LPD*%
%INTop Copper*%
%IPPOS*%
%AMOC8*
5,1,8,0,0,1.08239X$1,22.5*%
G01*
%ADD10C,1.800000*%
%ADD11C,1.700000*%
%ADD12P,1.429621X8X22.500000*%
%ADD13R,2.700000X1.600000*%
%ADD14R,1.600000X2.700000*%
%ADD15C,1.879600*%
%ADD16C,1.016000*%
%ADD17C,0.508000*%
%ADD18C,0.254000*%
%ADD19C,0.152400*%


D10*
X292100Y478900D02*
X292100Y460900D01*
X266700Y460900D02*
X266700Y478900D01*
X393700Y478900D02*
X393700Y460900D01*
X368300Y460900D02*
X368300Y478900D01*
X85200Y101600D02*
X67200Y101600D01*
X67200Y127000D02*
X85200Y127000D01*
X85200Y152400D02*
X67200Y152400D01*
X67200Y177800D02*
X85200Y177800D01*
D11*
X520700Y431800D03*
X444500Y431800D03*
X520700Y469900D03*
X444500Y469900D03*
D10*
X317500Y47100D02*
X317500Y29100D01*
X292100Y29100D02*
X292100Y47100D01*
X266700Y47100D02*
X266700Y29100D01*
X241300Y29100D02*
X241300Y47100D01*
D12*
X546100Y139700D03*
X495300Y139700D03*
X520700Y139700D03*
D13*
X419100Y141000D03*
X419100Y113000D03*
X241300Y303500D03*
X241300Y331500D03*
D14*
X242600Y127000D03*
X214600Y127000D03*
X278100Y127000D03*
X306100Y127000D03*
D13*
X495300Y278100D03*
X495300Y306100D03*
D10*
X609600Y186800D02*
X609600Y168800D01*
X635000Y168800D02*
X635000Y186800D01*
X127000Y47100D02*
X127000Y29100D01*
X152400Y29100D02*
X152400Y47100D01*
X177800Y47100D02*
X177800Y29100D01*
X457200Y29100D02*
X457200Y47100D01*
X482600Y47100D02*
X482600Y29100D01*
X508000Y29100D02*
X508000Y47100D01*
X558800Y47100D02*
X558800Y29100D01*
X584200Y29100D02*
X584200Y47100D01*
X609600Y47100D02*
X609600Y29100D01*
D15*
X520700Y393700D03*
X495300Y393700D03*
X469900Y393700D03*
X444500Y393700D03*
X419100Y393700D03*
X393700Y393700D03*
X368300Y393700D03*
X342900Y393700D03*
X317500Y393700D03*
X292100Y393700D03*
X266700Y393700D03*
X241300Y393700D03*
X241300Y215900D03*
X266700Y215900D03*
X292100Y215900D03*
X317500Y215900D03*
X342900Y215900D03*
X368300Y215900D03*
X393700Y215900D03*
X419100Y215900D03*
X444500Y215900D03*
X469900Y215900D03*
X495300Y215900D03*
X520700Y215900D03*
X215900Y393700D03*
X190500Y393700D03*
X165100Y393700D03*
X139700Y393700D03*
X114300Y393700D03*
X88900Y393700D03*
X88900Y215900D03*
X114300Y215900D03*
X139700Y215900D03*
X165100Y215900D03*
X190500Y215900D03*
X215900Y215900D03*
D10*
X609600Y384700D02*
X609600Y402700D01*
X635000Y402700D02*
X635000Y384700D01*
D13*
X393700Y303500D03*
X393700Y331500D03*
D16*
X520700Y393700D02*
X520700Y431800D01*
X520700Y469900D01*
D17*
X444500Y469900D02*
X393700Y469900D01*
D18*
X520700Y306100D02*
X520700Y215900D01*
X520700Y177800D01*
X546100Y152400D01*
X546100Y139700D01*
X609600Y76200D01*
X609600Y12700D02*
X508000Y12700D01*
X508000Y38100D01*
X508000Y12700D02*
X419100Y12700D01*
X317500Y12700D01*
X215900Y12700D01*
X419100Y12700D02*
X419100Y113000D01*
X214889Y101589D02*
X214600Y127000D01*
X214889Y101589D02*
X215900Y12700D01*
X317500Y12700D02*
X317500Y38100D01*
X317500Y101600D01*
X306100Y127000D01*
X152400Y101594D02*
X76200Y101600D01*
X152400Y101594D02*
X214889Y101589D01*
X152400Y101594D02*
X152400Y38100D01*
X34036Y255683D02*
X49117Y270764D01*
X208564Y270764D01*
X241300Y303500D01*
X76200Y101600D02*
X38100Y101600D01*
X34036Y105664D01*
X34036Y138741D01*
X33712Y139388D01*
X34036Y140360D01*
X34036Y255683D01*
X495300Y306100D02*
X520700Y306100D01*
X609600Y76200D02*
X609600Y38100D01*
X609600Y12700D01*
X241300Y331500D02*
X241300Y393700D01*
X88900Y76200D02*
X50800Y76200D01*
X25400Y101600D01*
X25400Y266700D01*
X152400Y355600D01*
X241300Y355600D01*
X241300Y331500D01*
X88900Y76200D02*
X127000Y38100D01*
X278100Y127000D02*
X266700Y166400D01*
X266700Y215900D01*
X292100Y76200D02*
X292100Y38100D01*
X292100Y76200D02*
X279400Y101600D01*
X278100Y127000D01*
X241300Y266700D02*
X50800Y266700D01*
X241300Y266700D02*
X266700Y215900D01*
X76200Y127000D02*
X38100Y139700D01*
X38100Y254000D01*
X50800Y266700D01*
X266700Y76200D02*
X266700Y38100D01*
D19*
X243840Y99060D02*
X243840Y126492D01*
X243840Y99060D02*
X266700Y76200D01*
X243840Y126492D02*
X242600Y127000D01*
X242316Y152400D02*
X242316Y214884D01*
X242316Y152400D02*
X242316Y140208D01*
X242600Y127000D01*
X242316Y214884D02*
X241300Y215900D01*
X242316Y152400D02*
X76200Y152400D01*
D18*
X344200Y215900D02*
X419100Y141000D01*
X344200Y215900D02*
X342900Y215900D01*
X419100Y141000D02*
X458500Y141000D01*
X482600Y165100D01*
X508000Y165100D01*
X520700Y152400D01*
X520700Y139700D01*
X482600Y101600D01*
X482600Y38100D01*
X584200Y38100D02*
X584200Y76200D01*
X520700Y139700D01*
X495300Y215900D02*
X495300Y278100D01*
X609600Y292100D02*
X609600Y177800D01*
X609600Y292100D02*
X558800Y342900D01*
X495300Y342900D01*
X494000Y279400D02*
X495300Y278100D01*
X494000Y279400D02*
X457200Y279400D01*
X457200Y304800D01*
X495300Y342900D01*
X393700Y303500D02*
X393700Y215900D01*
D17*
X444500Y431800D02*
X330200Y431800D01*
X292100Y469900D01*
D18*
X393700Y331500D02*
X395000Y331500D01*
X609600Y355600D02*
X609600Y393700D01*
X609600Y355600D02*
X419100Y355600D01*
X395000Y331500D01*
M02*
