G04 EAGLE Gerber RS-274X export*
G75*
%MOMM*%
%FSLAX34Y34*%
%LPD*%
%INBottom Copper*%
%IPPOS*%
%AMOC8*
5,1,8,0,0,1.08239X$1,22.5*%
G01*
%ADD10C,1.800000*%
%ADD11C,1.700000*%
%ADD12P,1.429621X8X22.500000*%
%ADD13C,1.879600*%

G36*
X684298Y10164D02*
X684298Y10164D01*
X684317Y10162D01*
X684419Y10184D01*
X684521Y10200D01*
X684538Y10210D01*
X684558Y10214D01*
X684647Y10267D01*
X684738Y10316D01*
X684752Y10330D01*
X684769Y10340D01*
X684836Y10419D01*
X684908Y10494D01*
X684916Y10512D01*
X684929Y10527D01*
X684968Y10623D01*
X685011Y10717D01*
X685013Y10737D01*
X685021Y10755D01*
X685039Y10922D01*
X685039Y496978D01*
X685036Y496998D01*
X685038Y497017D01*
X685016Y497119D01*
X685000Y497221D01*
X684990Y497238D01*
X684986Y497258D01*
X684933Y497347D01*
X684884Y497438D01*
X684870Y497452D01*
X684860Y497469D01*
X684781Y497536D01*
X684706Y497608D01*
X684688Y497616D01*
X684673Y497629D01*
X684577Y497668D01*
X684483Y497711D01*
X684463Y497713D01*
X684445Y497721D01*
X684278Y497739D01*
X10922Y497739D01*
X10902Y497736D01*
X10883Y497738D01*
X10781Y497716D01*
X10679Y497700D01*
X10662Y497690D01*
X10642Y497686D01*
X10553Y497633D01*
X10462Y497584D01*
X10448Y497570D01*
X10431Y497560D01*
X10364Y497481D01*
X10292Y497406D01*
X10284Y497388D01*
X10271Y497373D01*
X10232Y497277D01*
X10189Y497183D01*
X10187Y497163D01*
X10179Y497145D01*
X10161Y496978D01*
X10161Y10922D01*
X10164Y10902D01*
X10162Y10883D01*
X10184Y10781D01*
X10200Y10679D01*
X10210Y10662D01*
X10214Y10642D01*
X10267Y10553D01*
X10316Y10462D01*
X10330Y10448D01*
X10340Y10431D01*
X10419Y10364D01*
X10494Y10292D01*
X10512Y10284D01*
X10527Y10271D01*
X10623Y10232D01*
X10717Y10189D01*
X10737Y10187D01*
X10755Y10179D01*
X10922Y10161D01*
X684278Y10161D01*
X684298Y10164D01*
G37*
%LPC*%
G36*
X65107Y116475D02*
X65107Y116475D01*
X61238Y118078D01*
X58278Y121038D01*
X56675Y124907D01*
X56675Y129093D01*
X58278Y132962D01*
X61238Y135922D01*
X65107Y137525D01*
X87293Y137525D01*
X91162Y135922D01*
X94122Y132962D01*
X95725Y129093D01*
X95725Y124907D01*
X94122Y121038D01*
X91162Y118078D01*
X87293Y116475D01*
X65107Y116475D01*
G37*
%LPD*%
%LPC*%
G36*
X65107Y91075D02*
X65107Y91075D01*
X61238Y92678D01*
X58278Y95638D01*
X56675Y99507D01*
X56675Y103693D01*
X58278Y107562D01*
X61238Y110522D01*
X65107Y112125D01*
X87293Y112125D01*
X91162Y110522D01*
X94122Y107562D01*
X95725Y103693D01*
X95725Y99507D01*
X94122Y95638D01*
X91162Y92678D01*
X87293Y91075D01*
X65107Y91075D01*
G37*
%LPD*%
%LPC*%
G36*
X290007Y18575D02*
X290007Y18575D01*
X286138Y20178D01*
X283178Y23138D01*
X281575Y27007D01*
X281575Y49193D01*
X283178Y53062D01*
X286138Y56022D01*
X290007Y57625D01*
X294193Y57625D01*
X298062Y56022D01*
X301022Y53062D01*
X302625Y49193D01*
X302625Y27007D01*
X301022Y23138D01*
X298062Y20178D01*
X294193Y18575D01*
X290007Y18575D01*
G37*
%LPD*%
%LPC*%
G36*
X315407Y18575D02*
X315407Y18575D01*
X311538Y20178D01*
X308578Y23138D01*
X306975Y27007D01*
X306975Y49193D01*
X308578Y53062D01*
X311538Y56022D01*
X315407Y57625D01*
X319593Y57625D01*
X323462Y56022D01*
X326422Y53062D01*
X328025Y49193D01*
X328025Y27007D01*
X326422Y23138D01*
X323462Y20178D01*
X319593Y18575D01*
X315407Y18575D01*
G37*
%LPD*%
%LPC*%
G36*
X391607Y450375D02*
X391607Y450375D01*
X387738Y451978D01*
X384778Y454938D01*
X383175Y458807D01*
X383175Y480993D01*
X384778Y484862D01*
X387738Y487822D01*
X391607Y489425D01*
X395793Y489425D01*
X399662Y487822D01*
X402622Y484862D01*
X404225Y480993D01*
X404225Y458807D01*
X402622Y454938D01*
X399662Y451978D01*
X395793Y450375D01*
X391607Y450375D01*
G37*
%LPD*%
%LPC*%
G36*
X290007Y450375D02*
X290007Y450375D01*
X286138Y451978D01*
X283178Y454938D01*
X281575Y458807D01*
X281575Y480993D01*
X283178Y484862D01*
X286138Y487822D01*
X290007Y489425D01*
X294193Y489425D01*
X298062Y487822D01*
X301022Y484862D01*
X302625Y480993D01*
X302625Y458807D01*
X301022Y454938D01*
X298062Y451978D01*
X294193Y450375D01*
X290007Y450375D01*
G37*
%LPD*%
%LPC*%
G36*
X607507Y374175D02*
X607507Y374175D01*
X603638Y375778D01*
X600678Y378738D01*
X599075Y382607D01*
X599075Y404793D01*
X600678Y408662D01*
X603638Y411622D01*
X607507Y413225D01*
X611693Y413225D01*
X615562Y411622D01*
X618522Y408662D01*
X620125Y404793D01*
X620125Y382607D01*
X618522Y378738D01*
X615562Y375778D01*
X611693Y374175D01*
X607507Y374175D01*
G37*
%LPD*%
%LPC*%
G36*
X150307Y18575D02*
X150307Y18575D01*
X146438Y20178D01*
X143478Y23138D01*
X141875Y27007D01*
X141875Y49193D01*
X143478Y53062D01*
X146438Y56022D01*
X150307Y57625D01*
X154493Y57625D01*
X158362Y56022D01*
X161322Y53062D01*
X162925Y49193D01*
X162925Y27007D01*
X161322Y23138D01*
X158362Y20178D01*
X154493Y18575D01*
X150307Y18575D01*
G37*
%LPD*%
%LPC*%
G36*
X480507Y18575D02*
X480507Y18575D01*
X476638Y20178D01*
X473678Y23138D01*
X472075Y27007D01*
X472075Y49193D01*
X473678Y53062D01*
X476638Y56022D01*
X480507Y57625D01*
X484693Y57625D01*
X488562Y56022D01*
X491522Y53062D01*
X493125Y49193D01*
X493125Y27007D01*
X491522Y23138D01*
X488562Y20178D01*
X484693Y18575D01*
X480507Y18575D01*
G37*
%LPD*%
%LPC*%
G36*
X505907Y18575D02*
X505907Y18575D01*
X502038Y20178D01*
X499078Y23138D01*
X497475Y27007D01*
X497475Y49193D01*
X499078Y53062D01*
X502038Y56022D01*
X505907Y57625D01*
X510093Y57625D01*
X513962Y56022D01*
X516922Y53062D01*
X518525Y49193D01*
X518525Y27007D01*
X516922Y23138D01*
X513962Y20178D01*
X510093Y18575D01*
X505907Y18575D01*
G37*
%LPD*%
%LPC*%
G36*
X582107Y18575D02*
X582107Y18575D01*
X578238Y20178D01*
X575278Y23138D01*
X573675Y27007D01*
X573675Y49193D01*
X575278Y53062D01*
X578238Y56022D01*
X582107Y57625D01*
X586293Y57625D01*
X590162Y56022D01*
X593122Y53062D01*
X594725Y49193D01*
X594725Y27007D01*
X593122Y23138D01*
X590162Y20178D01*
X586293Y18575D01*
X582107Y18575D01*
G37*
%LPD*%
%LPC*%
G36*
X607507Y18575D02*
X607507Y18575D01*
X603638Y20178D01*
X600678Y23138D01*
X599075Y27007D01*
X599075Y49193D01*
X600678Y53062D01*
X603638Y56022D01*
X607507Y57625D01*
X611693Y57625D01*
X615562Y56022D01*
X618522Y53062D01*
X620125Y49193D01*
X620125Y27007D01*
X618522Y23138D01*
X615562Y20178D01*
X611693Y18575D01*
X607507Y18575D01*
G37*
%LPD*%
%LPC*%
G36*
X264607Y18575D02*
X264607Y18575D01*
X260738Y20178D01*
X257778Y23138D01*
X256175Y27007D01*
X256175Y49193D01*
X257778Y53062D01*
X260738Y56022D01*
X264607Y57625D01*
X268793Y57625D01*
X272662Y56022D01*
X275622Y53062D01*
X277225Y49193D01*
X277225Y27007D01*
X275622Y23138D01*
X272662Y20178D01*
X268793Y18575D01*
X264607Y18575D01*
G37*
%LPD*%
%LPC*%
G36*
X124907Y18575D02*
X124907Y18575D01*
X121038Y20178D01*
X118078Y23138D01*
X116475Y27007D01*
X116475Y49193D01*
X118078Y53062D01*
X121038Y56022D01*
X124907Y57625D01*
X129093Y57625D01*
X132962Y56022D01*
X135922Y53062D01*
X137525Y49193D01*
X137525Y27007D01*
X135922Y23138D01*
X132962Y20178D01*
X129093Y18575D01*
X124907Y18575D01*
G37*
%LPD*%
%LPC*%
G36*
X607507Y158275D02*
X607507Y158275D01*
X603638Y159878D01*
X600678Y162838D01*
X599075Y166707D01*
X599075Y188893D01*
X600678Y192762D01*
X603638Y195722D01*
X607507Y197325D01*
X611693Y197325D01*
X615562Y195722D01*
X618522Y192762D01*
X620125Y188893D01*
X620125Y166707D01*
X618522Y162838D01*
X615562Y159878D01*
X611693Y158275D01*
X607507Y158275D01*
G37*
%LPD*%
%LPC*%
G36*
X65107Y141875D02*
X65107Y141875D01*
X61238Y143478D01*
X58278Y146438D01*
X56675Y150307D01*
X56675Y154493D01*
X58278Y158362D01*
X61238Y161322D01*
X65107Y162925D01*
X87293Y162925D01*
X91162Y161322D01*
X94122Y158362D01*
X95725Y154493D01*
X95725Y150307D01*
X94122Y146438D01*
X91162Y143478D01*
X87293Y141875D01*
X65107Y141875D01*
G37*
%LPD*%
%LPC*%
G36*
X340727Y204977D02*
X340727Y204977D01*
X336713Y206640D01*
X333640Y209713D01*
X331977Y213727D01*
X331977Y218073D01*
X333640Y222087D01*
X336713Y225160D01*
X340727Y226823D01*
X345073Y226823D01*
X349087Y225160D01*
X352160Y222087D01*
X353823Y218073D01*
X353823Y213727D01*
X352160Y209713D01*
X349087Y206640D01*
X345073Y204977D01*
X340727Y204977D01*
G37*
%LPD*%
%LPC*%
G36*
X315327Y204977D02*
X315327Y204977D01*
X311313Y206640D01*
X308240Y209713D01*
X306577Y213727D01*
X306577Y218073D01*
X308240Y222087D01*
X311313Y225160D01*
X315327Y226823D01*
X319673Y226823D01*
X323687Y225160D01*
X326760Y222087D01*
X328423Y218073D01*
X328423Y213727D01*
X326760Y209713D01*
X323687Y206640D01*
X319673Y204977D01*
X315327Y204977D01*
G37*
%LPD*%
%LPC*%
G36*
X340727Y382777D02*
X340727Y382777D01*
X336713Y384440D01*
X333640Y387513D01*
X331977Y391527D01*
X331977Y395873D01*
X333640Y399887D01*
X336713Y402960D01*
X340727Y404623D01*
X345073Y404623D01*
X349087Y402960D01*
X352160Y399887D01*
X353823Y395873D01*
X353823Y391527D01*
X352160Y387513D01*
X349087Y384440D01*
X345073Y382777D01*
X340727Y382777D01*
G37*
%LPD*%
%LPC*%
G36*
X289927Y204977D02*
X289927Y204977D01*
X285913Y206640D01*
X282840Y209713D01*
X281177Y213727D01*
X281177Y218073D01*
X282840Y222087D01*
X285913Y225160D01*
X289927Y226823D01*
X294273Y226823D01*
X298287Y225160D01*
X301360Y222087D01*
X303023Y218073D01*
X303023Y213727D01*
X301360Y209713D01*
X298287Y206640D01*
X294273Y204977D01*
X289927Y204977D01*
G37*
%LPD*%
%LPC*%
G36*
X162927Y382777D02*
X162927Y382777D01*
X158913Y384440D01*
X155840Y387513D01*
X154177Y391527D01*
X154177Y395873D01*
X155840Y399887D01*
X158913Y402960D01*
X162927Y404623D01*
X167273Y404623D01*
X171287Y402960D01*
X174360Y399887D01*
X176023Y395873D01*
X176023Y391527D01*
X174360Y387513D01*
X171287Y384440D01*
X167273Y382777D01*
X162927Y382777D01*
G37*
%LPD*%
%LPC*%
G36*
X416927Y382777D02*
X416927Y382777D01*
X412913Y384440D01*
X409840Y387513D01*
X408177Y391527D01*
X408177Y395873D01*
X409840Y399887D01*
X412913Y402960D01*
X416927Y404623D01*
X421273Y404623D01*
X425287Y402960D01*
X428360Y399887D01*
X430023Y395873D01*
X430023Y391527D01*
X428360Y387513D01*
X425287Y384440D01*
X421273Y382777D01*
X416927Y382777D01*
G37*
%LPD*%
%LPC*%
G36*
X391527Y382777D02*
X391527Y382777D01*
X387513Y384440D01*
X384440Y387513D01*
X382777Y391527D01*
X382777Y395873D01*
X384440Y399887D01*
X387513Y402960D01*
X391527Y404623D01*
X395873Y404623D01*
X399887Y402960D01*
X402960Y399887D01*
X404623Y395873D01*
X404623Y391527D01*
X402960Y387513D01*
X399887Y384440D01*
X395873Y382777D01*
X391527Y382777D01*
G37*
%LPD*%
%LPC*%
G36*
X518527Y382777D02*
X518527Y382777D01*
X514513Y384440D01*
X511440Y387513D01*
X509777Y391527D01*
X509777Y395873D01*
X511440Y399887D01*
X514513Y402960D01*
X518527Y404623D01*
X522873Y404623D01*
X526887Y402960D01*
X529960Y399887D01*
X531623Y395873D01*
X531623Y391527D01*
X529960Y387513D01*
X526887Y384440D01*
X522873Y382777D01*
X518527Y382777D01*
G37*
%LPD*%
%LPC*%
G36*
X467727Y382777D02*
X467727Y382777D01*
X463713Y384440D01*
X460640Y387513D01*
X458977Y391527D01*
X458977Y395873D01*
X460640Y399887D01*
X463713Y402960D01*
X467727Y404623D01*
X472073Y404623D01*
X476087Y402960D01*
X479160Y399887D01*
X480823Y395873D01*
X480823Y391527D01*
X479160Y387513D01*
X476087Y384440D01*
X472073Y382777D01*
X467727Y382777D01*
G37*
%LPD*%
%LPC*%
G36*
X442327Y382777D02*
X442327Y382777D01*
X438313Y384440D01*
X435240Y387513D01*
X433577Y391527D01*
X433577Y395873D01*
X435240Y399887D01*
X438313Y402960D01*
X442327Y404623D01*
X446673Y404623D01*
X450687Y402960D01*
X453760Y399887D01*
X455423Y395873D01*
X455423Y391527D01*
X453760Y387513D01*
X450687Y384440D01*
X446673Y382777D01*
X442327Y382777D01*
G37*
%LPD*%
%LPC*%
G36*
X366127Y382777D02*
X366127Y382777D01*
X362113Y384440D01*
X359040Y387513D01*
X357377Y391527D01*
X357377Y395873D01*
X359040Y399887D01*
X362113Y402960D01*
X366127Y404623D01*
X370473Y404623D01*
X374487Y402960D01*
X377560Y399887D01*
X379223Y395873D01*
X379223Y391527D01*
X377560Y387513D01*
X374487Y384440D01*
X370473Y382777D01*
X366127Y382777D01*
G37*
%LPD*%
%LPC*%
G36*
X162927Y204977D02*
X162927Y204977D01*
X158913Y206640D01*
X155840Y209713D01*
X154177Y213727D01*
X154177Y218073D01*
X155840Y222087D01*
X158913Y225160D01*
X162927Y226823D01*
X167273Y226823D01*
X171287Y225160D01*
X174360Y222087D01*
X176023Y218073D01*
X176023Y213727D01*
X174360Y209713D01*
X171287Y206640D01*
X167273Y204977D01*
X162927Y204977D01*
G37*
%LPD*%
%LPC*%
G36*
X315327Y382777D02*
X315327Y382777D01*
X311313Y384440D01*
X308240Y387513D01*
X306577Y391527D01*
X306577Y395873D01*
X308240Y399887D01*
X311313Y402960D01*
X315327Y404623D01*
X319673Y404623D01*
X323687Y402960D01*
X326760Y399887D01*
X328423Y395873D01*
X328423Y391527D01*
X326760Y387513D01*
X323687Y384440D01*
X319673Y382777D01*
X315327Y382777D01*
G37*
%LPD*%
%LPC*%
G36*
X289927Y382777D02*
X289927Y382777D01*
X285913Y384440D01*
X282840Y387513D01*
X281177Y391527D01*
X281177Y395873D01*
X282840Y399887D01*
X285913Y402960D01*
X289927Y404623D01*
X294273Y404623D01*
X298287Y402960D01*
X301360Y399887D01*
X303023Y395873D01*
X303023Y391527D01*
X301360Y387513D01*
X298287Y384440D01*
X294273Y382777D01*
X289927Y382777D01*
G37*
%LPD*%
%LPC*%
G36*
X264527Y382777D02*
X264527Y382777D01*
X260513Y384440D01*
X257440Y387513D01*
X255777Y391527D01*
X255777Y395873D01*
X257440Y399887D01*
X260513Y402960D01*
X264527Y404623D01*
X268873Y404623D01*
X272887Y402960D01*
X275960Y399887D01*
X277623Y395873D01*
X277623Y391527D01*
X275960Y387513D01*
X272887Y384440D01*
X268873Y382777D01*
X264527Y382777D01*
G37*
%LPD*%
%LPC*%
G36*
X239127Y382777D02*
X239127Y382777D01*
X235113Y384440D01*
X232040Y387513D01*
X230377Y391527D01*
X230377Y395873D01*
X232040Y399887D01*
X235113Y402960D01*
X239127Y404623D01*
X243473Y404623D01*
X247487Y402960D01*
X250560Y399887D01*
X252223Y395873D01*
X252223Y391527D01*
X250560Y387513D01*
X247487Y384440D01*
X243473Y382777D01*
X239127Y382777D01*
G37*
%LPD*%
%LPC*%
G36*
X213727Y382777D02*
X213727Y382777D01*
X209713Y384440D01*
X206640Y387513D01*
X204977Y391527D01*
X204977Y395873D01*
X206640Y399887D01*
X209713Y402960D01*
X213727Y404623D01*
X218073Y404623D01*
X222087Y402960D01*
X225160Y399887D01*
X226823Y395873D01*
X226823Y391527D01*
X225160Y387513D01*
X222087Y384440D01*
X218073Y382777D01*
X213727Y382777D01*
G37*
%LPD*%
%LPC*%
G36*
X188327Y382777D02*
X188327Y382777D01*
X184313Y384440D01*
X181240Y387513D01*
X179577Y391527D01*
X179577Y395873D01*
X181240Y399887D01*
X184313Y402960D01*
X188327Y404623D01*
X192673Y404623D01*
X196687Y402960D01*
X199760Y399887D01*
X201423Y395873D01*
X201423Y391527D01*
X199760Y387513D01*
X196687Y384440D01*
X192673Y382777D01*
X188327Y382777D01*
G37*
%LPD*%
%LPC*%
G36*
X137527Y382777D02*
X137527Y382777D01*
X133513Y384440D01*
X130440Y387513D01*
X128777Y391527D01*
X128777Y395873D01*
X130440Y399887D01*
X133513Y402960D01*
X137527Y404623D01*
X141873Y404623D01*
X145887Y402960D01*
X148960Y399887D01*
X150623Y395873D01*
X150623Y391527D01*
X148960Y387513D01*
X145887Y384440D01*
X141873Y382777D01*
X137527Y382777D01*
G37*
%LPD*%
%LPC*%
G36*
X112127Y382777D02*
X112127Y382777D01*
X108113Y384440D01*
X105040Y387513D01*
X103377Y391527D01*
X103377Y395873D01*
X105040Y399887D01*
X108113Y402960D01*
X112127Y404623D01*
X116473Y404623D01*
X120487Y402960D01*
X123560Y399887D01*
X125223Y395873D01*
X125223Y391527D01*
X123560Y387513D01*
X120487Y384440D01*
X116473Y382777D01*
X112127Y382777D01*
G37*
%LPD*%
%LPC*%
G36*
X86727Y382777D02*
X86727Y382777D01*
X82713Y384440D01*
X79640Y387513D01*
X77977Y391527D01*
X77977Y395873D01*
X79640Y399887D01*
X82713Y402960D01*
X86727Y404623D01*
X91073Y404623D01*
X95087Y402960D01*
X98160Y399887D01*
X99823Y395873D01*
X99823Y391527D01*
X98160Y387513D01*
X95087Y384440D01*
X91073Y382777D01*
X86727Y382777D01*
G37*
%LPD*%
%LPC*%
G36*
X137527Y204977D02*
X137527Y204977D01*
X133513Y206640D01*
X130440Y209713D01*
X128777Y213727D01*
X128777Y218073D01*
X130440Y222087D01*
X133513Y225160D01*
X137527Y226823D01*
X141873Y226823D01*
X145887Y225160D01*
X148960Y222087D01*
X150623Y218073D01*
X150623Y213727D01*
X148960Y209713D01*
X145887Y206640D01*
X141873Y204977D01*
X137527Y204977D01*
G37*
%LPD*%
%LPC*%
G36*
X188327Y204977D02*
X188327Y204977D01*
X184313Y206640D01*
X181240Y209713D01*
X179577Y213727D01*
X179577Y218073D01*
X181240Y222087D01*
X184313Y225160D01*
X188327Y226823D01*
X192673Y226823D01*
X196687Y225160D01*
X199760Y222087D01*
X201423Y218073D01*
X201423Y213727D01*
X199760Y209713D01*
X196687Y206640D01*
X192673Y204977D01*
X188327Y204977D01*
G37*
%LPD*%
%LPC*%
G36*
X264527Y204977D02*
X264527Y204977D01*
X260513Y206640D01*
X257440Y209713D01*
X255777Y213727D01*
X255777Y218073D01*
X257440Y222087D01*
X260513Y225160D01*
X264527Y226823D01*
X268873Y226823D01*
X272887Y225160D01*
X275960Y222087D01*
X277623Y218073D01*
X277623Y213727D01*
X275960Y209713D01*
X272887Y206640D01*
X268873Y204977D01*
X264527Y204977D01*
G37*
%LPD*%
%LPC*%
G36*
X213727Y204977D02*
X213727Y204977D01*
X209713Y206640D01*
X206640Y209713D01*
X204977Y213727D01*
X204977Y218073D01*
X206640Y222087D01*
X209713Y225160D01*
X213727Y226823D01*
X218073Y226823D01*
X222087Y225160D01*
X225160Y222087D01*
X226823Y218073D01*
X226823Y213727D01*
X225160Y209713D01*
X222087Y206640D01*
X218073Y204977D01*
X213727Y204977D01*
G37*
%LPD*%
%LPC*%
G36*
X239127Y204977D02*
X239127Y204977D01*
X235113Y206640D01*
X232040Y209713D01*
X230377Y213727D01*
X230377Y218073D01*
X232040Y222087D01*
X235113Y225160D01*
X239127Y226823D01*
X243473Y226823D01*
X247487Y225160D01*
X250560Y222087D01*
X252223Y218073D01*
X252223Y213727D01*
X250560Y209713D01*
X247487Y206640D01*
X243473Y204977D01*
X239127Y204977D01*
G37*
%LPD*%
%LPC*%
G36*
X112127Y204977D02*
X112127Y204977D01*
X108113Y206640D01*
X105040Y209713D01*
X103377Y213727D01*
X103377Y218073D01*
X105040Y222087D01*
X108113Y225160D01*
X112127Y226823D01*
X116473Y226823D01*
X120487Y225160D01*
X123560Y222087D01*
X125223Y218073D01*
X125223Y213727D01*
X123560Y209713D01*
X120487Y206640D01*
X116473Y204977D01*
X112127Y204977D01*
G37*
%LPD*%
%LPC*%
G36*
X86727Y204977D02*
X86727Y204977D01*
X82713Y206640D01*
X79640Y209713D01*
X77977Y213727D01*
X77977Y218073D01*
X79640Y222087D01*
X82713Y225160D01*
X86727Y226823D01*
X91073Y226823D01*
X95087Y225160D01*
X98160Y222087D01*
X99823Y218073D01*
X99823Y213727D01*
X98160Y209713D01*
X95087Y206640D01*
X91073Y204977D01*
X86727Y204977D01*
G37*
%LPD*%
%LPC*%
G36*
X493127Y204977D02*
X493127Y204977D01*
X489113Y206640D01*
X486040Y209713D01*
X484377Y213727D01*
X484377Y218073D01*
X486040Y222087D01*
X489113Y225160D01*
X493127Y226823D01*
X497473Y226823D01*
X501487Y225160D01*
X504560Y222087D01*
X506223Y218073D01*
X506223Y213727D01*
X504560Y209713D01*
X501487Y206640D01*
X497473Y204977D01*
X493127Y204977D01*
G37*
%LPD*%
%LPC*%
G36*
X467727Y204977D02*
X467727Y204977D01*
X463713Y206640D01*
X460640Y209713D01*
X458977Y213727D01*
X458977Y218073D01*
X460640Y222087D01*
X463713Y225160D01*
X467727Y226823D01*
X472073Y226823D01*
X476087Y225160D01*
X479160Y222087D01*
X480823Y218073D01*
X480823Y213727D01*
X479160Y209713D01*
X476087Y206640D01*
X472073Y204977D01*
X467727Y204977D01*
G37*
%LPD*%
%LPC*%
G36*
X416927Y204977D02*
X416927Y204977D01*
X412913Y206640D01*
X409840Y209713D01*
X408177Y213727D01*
X408177Y218073D01*
X409840Y222087D01*
X412913Y225160D01*
X416927Y226823D01*
X421273Y226823D01*
X425287Y225160D01*
X428360Y222087D01*
X430023Y218073D01*
X430023Y213727D01*
X428360Y209713D01*
X425287Y206640D01*
X421273Y204977D01*
X416927Y204977D01*
G37*
%LPD*%
%LPC*%
G36*
X391527Y204977D02*
X391527Y204977D01*
X387513Y206640D01*
X384440Y209713D01*
X382777Y213727D01*
X382777Y218073D01*
X384440Y222087D01*
X387513Y225160D01*
X391527Y226823D01*
X395873Y226823D01*
X399887Y225160D01*
X402960Y222087D01*
X404623Y218073D01*
X404623Y213727D01*
X402960Y209713D01*
X399887Y206640D01*
X395873Y204977D01*
X391527Y204977D01*
G37*
%LPD*%
%LPC*%
G36*
X366127Y204977D02*
X366127Y204977D01*
X362113Y206640D01*
X359040Y209713D01*
X357377Y213727D01*
X357377Y218073D01*
X359040Y222087D01*
X362113Y225160D01*
X366127Y226823D01*
X370473Y226823D01*
X374487Y225160D01*
X377560Y222087D01*
X379223Y218073D01*
X379223Y213727D01*
X377560Y209713D01*
X374487Y206640D01*
X370473Y204977D01*
X366127Y204977D01*
G37*
%LPD*%
%LPC*%
G36*
X518527Y204977D02*
X518527Y204977D01*
X514513Y206640D01*
X511440Y209713D01*
X509777Y213727D01*
X509777Y218073D01*
X511440Y222087D01*
X514513Y225160D01*
X518527Y226823D01*
X522873Y226823D01*
X526887Y225160D01*
X529960Y222087D01*
X531623Y218073D01*
X531623Y213727D01*
X529960Y209713D01*
X526887Y206640D01*
X522873Y204977D01*
X518527Y204977D01*
G37*
%LPD*%
%LPC*%
G36*
X518706Y459875D02*
X518706Y459875D01*
X515021Y461401D01*
X512201Y464221D01*
X510675Y467906D01*
X510675Y471894D01*
X512201Y475579D01*
X515021Y478399D01*
X518706Y479925D01*
X522694Y479925D01*
X526379Y478399D01*
X529199Y475579D01*
X530725Y471894D01*
X530725Y467906D01*
X529199Y464221D01*
X526379Y461401D01*
X522694Y459875D01*
X518706Y459875D01*
G37*
%LPD*%
%LPC*%
G36*
X442506Y421775D02*
X442506Y421775D01*
X438821Y423301D01*
X436001Y426121D01*
X434475Y429806D01*
X434475Y433794D01*
X436001Y437479D01*
X438821Y440299D01*
X442506Y441825D01*
X446494Y441825D01*
X450179Y440299D01*
X452999Y437479D01*
X454525Y433794D01*
X454525Y429806D01*
X452999Y426121D01*
X450179Y423301D01*
X446494Y421775D01*
X442506Y421775D01*
G37*
%LPD*%
%LPC*%
G36*
X518706Y421775D02*
X518706Y421775D01*
X515021Y423301D01*
X512201Y426121D01*
X510675Y429806D01*
X510675Y433794D01*
X512201Y437479D01*
X515021Y440299D01*
X518706Y441825D01*
X522694Y441825D01*
X526379Y440299D01*
X529199Y437479D01*
X530725Y433794D01*
X530725Y429806D01*
X529199Y426121D01*
X526379Y423301D01*
X522694Y421775D01*
X518706Y421775D01*
G37*
%LPD*%
%LPC*%
G36*
X442506Y459875D02*
X442506Y459875D01*
X438821Y461401D01*
X436001Y464221D01*
X434475Y467906D01*
X434475Y471894D01*
X436001Y475579D01*
X438821Y478399D01*
X442506Y479925D01*
X446494Y479925D01*
X450179Y478399D01*
X452999Y475579D01*
X454525Y471894D01*
X454525Y467906D01*
X452999Y464221D01*
X450179Y461401D01*
X446494Y459875D01*
X442506Y459875D01*
G37*
%LPD*%
%LPC*%
G36*
X517333Y131571D02*
X517333Y131571D01*
X512571Y136333D01*
X512571Y143067D01*
X517333Y147829D01*
X524067Y147829D01*
X528829Y143067D01*
X528829Y136333D01*
X524067Y131571D01*
X517333Y131571D01*
G37*
%LPD*%
%LPC*%
G36*
X542733Y131571D02*
X542733Y131571D01*
X537971Y136333D01*
X537971Y143067D01*
X542733Y147829D01*
X549467Y147829D01*
X554229Y143067D01*
X554229Y136333D01*
X549467Y131571D01*
X542733Y131571D01*
G37*
%LPD*%
%LPC*%
G36*
X636523Y395223D02*
X636523Y395223D01*
X636523Y414143D01*
X637702Y413957D01*
X639430Y413395D01*
X641049Y412571D01*
X642518Y411503D01*
X643803Y410218D01*
X644871Y408749D01*
X645695Y407130D01*
X646257Y405402D01*
X646541Y403608D01*
X646541Y395223D01*
X636523Y395223D01*
G37*
%LPD*%
%LPC*%
G36*
X458723Y39623D02*
X458723Y39623D01*
X458723Y58543D01*
X459902Y58357D01*
X461630Y57795D01*
X463249Y56971D01*
X464718Y55903D01*
X466003Y54618D01*
X467071Y53149D01*
X467895Y51530D01*
X468457Y49802D01*
X468741Y48008D01*
X468741Y39623D01*
X458723Y39623D01*
G37*
%LPD*%
%LPC*%
G36*
X636523Y179323D02*
X636523Y179323D01*
X636523Y198243D01*
X637702Y198057D01*
X639430Y197495D01*
X641049Y196671D01*
X642518Y195603D01*
X643803Y194318D01*
X644871Y192849D01*
X645695Y191230D01*
X646257Y189502D01*
X646541Y187708D01*
X646541Y179323D01*
X636523Y179323D01*
G37*
%LPD*%
%LPC*%
G36*
X77723Y179323D02*
X77723Y179323D01*
X77723Y189341D01*
X86108Y189341D01*
X87902Y189057D01*
X89630Y188495D01*
X91249Y187671D01*
X92718Y186603D01*
X94003Y185318D01*
X95071Y183849D01*
X95895Y182230D01*
X96457Y180502D01*
X96643Y179323D01*
X77723Y179323D01*
G37*
%LPD*%
%LPC*%
G36*
X560323Y39623D02*
X560323Y39623D01*
X560323Y58543D01*
X561502Y58357D01*
X563230Y57795D01*
X564849Y56971D01*
X566318Y55903D01*
X567603Y54618D01*
X568671Y53149D01*
X569495Y51530D01*
X570057Y49802D01*
X570341Y48008D01*
X570341Y39623D01*
X560323Y39623D01*
G37*
%LPD*%
%LPC*%
G36*
X179323Y39623D02*
X179323Y39623D01*
X179323Y58543D01*
X180502Y58357D01*
X182230Y57795D01*
X183849Y56971D01*
X185318Y55903D01*
X186603Y54618D01*
X187671Y53149D01*
X188495Y51530D01*
X189057Y49802D01*
X189341Y48008D01*
X189341Y39623D01*
X179323Y39623D01*
G37*
%LPD*%
%LPC*%
G36*
X242823Y39623D02*
X242823Y39623D01*
X242823Y58543D01*
X244002Y58357D01*
X245730Y57795D01*
X247349Y56971D01*
X248818Y55903D01*
X250103Y54618D01*
X251171Y53149D01*
X251995Y51530D01*
X252557Y49802D01*
X252841Y48008D01*
X252841Y39623D01*
X242823Y39623D01*
G37*
%LPD*%
%LPC*%
G36*
X268223Y471423D02*
X268223Y471423D01*
X268223Y490343D01*
X269402Y490157D01*
X271130Y489595D01*
X272749Y488771D01*
X274218Y487703D01*
X275503Y486418D01*
X276571Y484949D01*
X277395Y483330D01*
X277957Y481602D01*
X278241Y479808D01*
X278241Y471423D01*
X268223Y471423D01*
G37*
%LPD*%
%LPC*%
G36*
X369823Y471423D02*
X369823Y471423D01*
X369823Y490343D01*
X371002Y490157D01*
X372730Y489595D01*
X374349Y488771D01*
X375818Y487703D01*
X377103Y486418D01*
X378171Y484949D01*
X378995Y483330D01*
X379557Y481602D01*
X379841Y479808D01*
X379841Y471423D01*
X369823Y471423D01*
G37*
%LPD*%
%LPC*%
G36*
X636523Y392177D02*
X636523Y392177D01*
X646541Y392177D01*
X646541Y383792D01*
X646257Y381998D01*
X645695Y380270D01*
X644871Y378651D01*
X643803Y377182D01*
X642518Y375897D01*
X641049Y374829D01*
X639430Y374005D01*
X637702Y373443D01*
X636523Y373257D01*
X636523Y392177D01*
G37*
%LPD*%
%LPC*%
G36*
X179323Y36577D02*
X179323Y36577D01*
X189341Y36577D01*
X189341Y28192D01*
X189057Y26398D01*
X188495Y24670D01*
X187671Y23051D01*
X186603Y21582D01*
X185318Y20297D01*
X183849Y19229D01*
X182230Y18405D01*
X180502Y17843D01*
X179323Y17657D01*
X179323Y36577D01*
G37*
%LPD*%
%LPC*%
G36*
X55757Y179323D02*
X55757Y179323D01*
X55943Y180502D01*
X56505Y182230D01*
X57329Y183849D01*
X58397Y185318D01*
X59682Y186603D01*
X61151Y187671D01*
X62770Y188495D01*
X64498Y189057D01*
X66292Y189341D01*
X74677Y189341D01*
X74677Y179323D01*
X55757Y179323D01*
G37*
%LPD*%
%LPC*%
G36*
X369823Y468377D02*
X369823Y468377D01*
X379841Y468377D01*
X379841Y459992D01*
X379557Y458198D01*
X378995Y456470D01*
X378171Y454851D01*
X377103Y453382D01*
X375818Y452097D01*
X374349Y451029D01*
X372730Y450205D01*
X371002Y449643D01*
X369823Y449457D01*
X369823Y468377D01*
G37*
%LPD*%
%LPC*%
G36*
X242823Y36577D02*
X242823Y36577D01*
X252841Y36577D01*
X252841Y28192D01*
X252557Y26398D01*
X251995Y24670D01*
X251171Y23051D01*
X250103Y21582D01*
X248818Y20297D01*
X247349Y19229D01*
X245730Y18405D01*
X244002Y17843D01*
X242823Y17657D01*
X242823Y36577D01*
G37*
%LPD*%
%LPC*%
G36*
X636523Y176277D02*
X636523Y176277D01*
X646541Y176277D01*
X646541Y167892D01*
X646257Y166098D01*
X645695Y164370D01*
X644871Y162751D01*
X643803Y161282D01*
X642518Y159997D01*
X641049Y158929D01*
X639430Y158105D01*
X637702Y157543D01*
X636523Y157357D01*
X636523Y176277D01*
G37*
%LPD*%
%LPC*%
G36*
X268223Y468377D02*
X268223Y468377D01*
X278241Y468377D01*
X278241Y459992D01*
X277957Y458198D01*
X277395Y456470D01*
X276571Y454851D01*
X275503Y453382D01*
X274218Y452097D01*
X272749Y451029D01*
X271130Y450205D01*
X269402Y449643D01*
X268223Y449457D01*
X268223Y468377D01*
G37*
%LPD*%
%LPC*%
G36*
X458723Y36577D02*
X458723Y36577D01*
X468741Y36577D01*
X468741Y28192D01*
X468457Y26398D01*
X467895Y24670D01*
X467071Y23051D01*
X466003Y21582D01*
X464718Y20297D01*
X463249Y19229D01*
X461630Y18405D01*
X459902Y17843D01*
X458723Y17657D01*
X458723Y36577D01*
G37*
%LPD*%
%LPC*%
G36*
X560323Y36577D02*
X560323Y36577D01*
X570341Y36577D01*
X570341Y28192D01*
X570057Y26398D01*
X569495Y24670D01*
X568671Y23051D01*
X567603Y21582D01*
X566318Y20297D01*
X564849Y19229D01*
X563230Y18405D01*
X561502Y17843D01*
X560323Y17657D01*
X560323Y36577D01*
G37*
%LPD*%
%LPC*%
G36*
X445659Y39623D02*
X445659Y39623D01*
X445659Y48008D01*
X445943Y49802D01*
X446505Y51530D01*
X447329Y53149D01*
X448397Y54618D01*
X449682Y55903D01*
X451151Y56971D01*
X452770Y57795D01*
X454498Y58357D01*
X455677Y58543D01*
X455677Y39623D01*
X445659Y39623D01*
G37*
%LPD*%
%LPC*%
G36*
X623459Y179323D02*
X623459Y179323D01*
X623459Y187708D01*
X623743Y189502D01*
X624305Y191230D01*
X625129Y192849D01*
X626197Y194318D01*
X627482Y195603D01*
X628951Y196671D01*
X630570Y197495D01*
X632298Y198057D01*
X633477Y198243D01*
X633477Y179323D01*
X623459Y179323D01*
G37*
%LPD*%
%LPC*%
G36*
X229759Y39623D02*
X229759Y39623D01*
X229759Y48008D01*
X230043Y49802D01*
X230605Y51530D01*
X231429Y53149D01*
X232497Y54618D01*
X233782Y55903D01*
X235251Y56971D01*
X236870Y57795D01*
X238598Y58357D01*
X239777Y58543D01*
X239777Y39623D01*
X229759Y39623D01*
G37*
%LPD*%
%LPC*%
G36*
X623459Y395223D02*
X623459Y395223D01*
X623459Y403608D01*
X623743Y405402D01*
X624305Y407130D01*
X625129Y408749D01*
X626197Y410218D01*
X627482Y411503D01*
X628951Y412571D01*
X630570Y413395D01*
X632298Y413957D01*
X633477Y414143D01*
X633477Y395223D01*
X623459Y395223D01*
G37*
%LPD*%
%LPC*%
G36*
X77723Y166259D02*
X77723Y166259D01*
X77723Y176277D01*
X96643Y176277D01*
X96457Y175098D01*
X95895Y173370D01*
X95071Y171751D01*
X94003Y170282D01*
X92718Y168997D01*
X91249Y167929D01*
X89630Y167105D01*
X87902Y166543D01*
X86108Y166259D01*
X77723Y166259D01*
G37*
%LPD*%
%LPC*%
G36*
X255159Y471423D02*
X255159Y471423D01*
X255159Y479808D01*
X255443Y481602D01*
X256005Y483330D01*
X256829Y484949D01*
X257897Y486418D01*
X259182Y487703D01*
X260651Y488771D01*
X262270Y489595D01*
X263998Y490157D01*
X265177Y490343D01*
X265177Y471423D01*
X255159Y471423D01*
G37*
%LPD*%
%LPC*%
G36*
X166259Y39623D02*
X166259Y39623D01*
X166259Y48008D01*
X166543Y49802D01*
X167105Y51530D01*
X167929Y53149D01*
X168997Y54618D01*
X170282Y55903D01*
X171751Y56971D01*
X173370Y57795D01*
X175098Y58357D01*
X176277Y58543D01*
X176277Y39623D01*
X166259Y39623D01*
G37*
%LPD*%
%LPC*%
G36*
X356759Y471423D02*
X356759Y471423D01*
X356759Y479808D01*
X357043Y481602D01*
X357605Y483330D01*
X358429Y484949D01*
X359497Y486418D01*
X360782Y487703D01*
X362251Y488771D01*
X363870Y489595D01*
X365598Y490157D01*
X366777Y490343D01*
X366777Y471423D01*
X356759Y471423D01*
G37*
%LPD*%
%LPC*%
G36*
X547259Y39623D02*
X547259Y39623D01*
X547259Y48008D01*
X547543Y49802D01*
X548105Y51530D01*
X548929Y53149D01*
X549997Y54618D01*
X551282Y55903D01*
X552751Y56971D01*
X554370Y57795D01*
X556098Y58357D01*
X557277Y58543D01*
X557277Y39623D01*
X547259Y39623D01*
G37*
%LPD*%
%LPC*%
G36*
X556098Y17843D02*
X556098Y17843D01*
X554370Y18405D01*
X552751Y19229D01*
X551282Y20297D01*
X549997Y21582D01*
X548929Y23051D01*
X548105Y24670D01*
X547543Y26398D01*
X547259Y28192D01*
X547259Y36577D01*
X557277Y36577D01*
X557277Y17657D01*
X556098Y17843D01*
G37*
%LPD*%
%LPC*%
G36*
X454498Y17843D02*
X454498Y17843D01*
X452770Y18405D01*
X451151Y19229D01*
X449682Y20297D01*
X448397Y21582D01*
X447329Y23051D01*
X446505Y24670D01*
X445943Y26398D01*
X445659Y28192D01*
X445659Y36577D01*
X455677Y36577D01*
X455677Y17657D01*
X454498Y17843D01*
G37*
%LPD*%
%LPC*%
G36*
X238598Y17843D02*
X238598Y17843D01*
X236870Y18405D01*
X235251Y19229D01*
X233782Y20297D01*
X232497Y21582D01*
X231429Y23051D01*
X230605Y24670D01*
X230043Y26398D01*
X229759Y28192D01*
X229759Y36577D01*
X239777Y36577D01*
X239777Y17657D01*
X238598Y17843D01*
G37*
%LPD*%
%LPC*%
G36*
X632298Y157543D02*
X632298Y157543D01*
X630570Y158105D01*
X628951Y158929D01*
X627482Y159997D01*
X626197Y161282D01*
X625129Y162751D01*
X624305Y164370D01*
X623743Y166098D01*
X623459Y167892D01*
X623459Y176277D01*
X633477Y176277D01*
X633477Y157357D01*
X632298Y157543D01*
G37*
%LPD*%
%LPC*%
G36*
X66292Y166259D02*
X66292Y166259D01*
X64498Y166543D01*
X62770Y167105D01*
X61151Y167929D01*
X59682Y168997D01*
X58397Y170282D01*
X57329Y171751D01*
X56505Y173370D01*
X55943Y175098D01*
X55757Y176277D01*
X74677Y176277D01*
X74677Y166259D01*
X66292Y166259D01*
G37*
%LPD*%
%LPC*%
G36*
X263998Y449643D02*
X263998Y449643D01*
X262270Y450205D01*
X260651Y451029D01*
X259182Y452097D01*
X257897Y453382D01*
X256829Y454851D01*
X256005Y456470D01*
X255443Y458198D01*
X255159Y459992D01*
X255159Y468377D01*
X265177Y468377D01*
X265177Y449457D01*
X263998Y449643D01*
G37*
%LPD*%
%LPC*%
G36*
X632298Y373443D02*
X632298Y373443D01*
X630570Y374005D01*
X628951Y374829D01*
X627482Y375897D01*
X626197Y377182D01*
X625129Y378651D01*
X624305Y380270D01*
X623743Y381998D01*
X623459Y383792D01*
X623459Y392177D01*
X633477Y392177D01*
X633477Y373257D01*
X632298Y373443D01*
G37*
%LPD*%
%LPC*%
G36*
X175098Y17843D02*
X175098Y17843D01*
X173370Y18405D01*
X171751Y19229D01*
X170282Y20297D01*
X168997Y21582D01*
X167929Y23051D01*
X167105Y24670D01*
X166543Y26398D01*
X166259Y28192D01*
X166259Y36577D01*
X176277Y36577D01*
X176277Y17657D01*
X175098Y17843D01*
G37*
%LPD*%
%LPC*%
G36*
X365598Y449643D02*
X365598Y449643D01*
X363870Y450205D01*
X362251Y451029D01*
X360782Y452097D01*
X359497Y453382D01*
X358429Y454851D01*
X357605Y456470D01*
X357043Y458198D01*
X356759Y459992D01*
X356759Y468377D01*
X366777Y468377D01*
X366777Y449457D01*
X365598Y449643D01*
G37*
%LPD*%
%LPC*%
G36*
X496823Y395223D02*
X496823Y395223D01*
X496823Y405546D01*
X498096Y405345D01*
X499883Y404764D01*
X501557Y403911D01*
X503078Y402806D01*
X504406Y401478D01*
X505511Y399957D01*
X506364Y398283D01*
X506945Y396496D01*
X507146Y395223D01*
X496823Y395223D01*
G37*
%LPD*%
%LPC*%
G36*
X446023Y217423D02*
X446023Y217423D01*
X446023Y227746D01*
X447296Y227545D01*
X449083Y226964D01*
X450757Y226111D01*
X452278Y225006D01*
X453606Y223678D01*
X454711Y222157D01*
X455564Y220483D01*
X456145Y218696D01*
X456346Y217423D01*
X446023Y217423D01*
G37*
%LPD*%
%LPC*%
G36*
X432654Y217423D02*
X432654Y217423D01*
X432855Y218696D01*
X433436Y220483D01*
X434289Y222157D01*
X435394Y223678D01*
X436722Y225006D01*
X438243Y226111D01*
X439917Y226964D01*
X441704Y227545D01*
X442977Y227746D01*
X442977Y217423D01*
X432654Y217423D01*
G37*
%LPD*%
%LPC*%
G36*
X496823Y392177D02*
X496823Y392177D01*
X507146Y392177D01*
X506945Y390904D01*
X506364Y389117D01*
X505511Y387443D01*
X504406Y385922D01*
X503078Y384594D01*
X501557Y383489D01*
X499883Y382636D01*
X498096Y382055D01*
X496823Y381854D01*
X496823Y392177D01*
G37*
%LPD*%
%LPC*%
G36*
X483454Y395223D02*
X483454Y395223D01*
X483655Y396496D01*
X484236Y398283D01*
X485089Y399957D01*
X486194Y401478D01*
X487522Y402806D01*
X489043Y403911D01*
X490717Y404764D01*
X492504Y405345D01*
X493777Y405546D01*
X493777Y395223D01*
X483454Y395223D01*
G37*
%LPD*%
%LPC*%
G36*
X446023Y214377D02*
X446023Y214377D01*
X456346Y214377D01*
X456145Y213104D01*
X455564Y211317D01*
X454711Y209643D01*
X453606Y208122D01*
X452278Y206794D01*
X450757Y205689D01*
X449083Y204836D01*
X447296Y204255D01*
X446023Y204054D01*
X446023Y214377D01*
G37*
%LPD*%
%LPC*%
G36*
X441704Y204255D02*
X441704Y204255D01*
X439917Y204836D01*
X438243Y205689D01*
X436722Y206794D01*
X435394Y208122D01*
X434289Y209643D01*
X433436Y211317D01*
X432855Y213104D01*
X432654Y214377D01*
X442977Y214377D01*
X442977Y204054D01*
X441704Y204255D01*
G37*
%LPD*%
%LPC*%
G36*
X492504Y382055D02*
X492504Y382055D01*
X490717Y382636D01*
X489043Y383489D01*
X487522Y384594D01*
X486194Y385922D01*
X485089Y387443D01*
X484236Y389117D01*
X483655Y390904D01*
X483454Y392177D01*
X493777Y392177D01*
X493777Y381854D01*
X492504Y382055D01*
G37*
%LPD*%
%LPC*%
G36*
X496823Y141223D02*
X496823Y141223D01*
X496823Y148845D01*
X499088Y148845D01*
X504445Y143488D01*
X504445Y141223D01*
X496823Y141223D01*
G37*
%LPD*%
%LPC*%
G36*
X486155Y141223D02*
X486155Y141223D01*
X486155Y143488D01*
X491512Y148845D01*
X493777Y148845D01*
X493777Y141223D01*
X486155Y141223D01*
G37*
%LPD*%
%LPC*%
G36*
X496823Y130555D02*
X496823Y130555D01*
X496823Y138177D01*
X504445Y138177D01*
X504445Y135912D01*
X499088Y130555D01*
X496823Y130555D01*
G37*
%LPD*%
%LPC*%
G36*
X491512Y130555D02*
X491512Y130555D01*
X486155Y135912D01*
X486155Y138177D01*
X493777Y138177D01*
X493777Y130555D01*
X491512Y130555D01*
G37*
%LPD*%
%LPC*%
G36*
X495299Y393699D02*
X495299Y393699D01*
X495299Y393701D01*
X495301Y393701D01*
X495301Y393699D01*
X495299Y393699D01*
G37*
%LPD*%
%LPC*%
G36*
X266699Y469899D02*
X266699Y469899D01*
X266699Y469901D01*
X266701Y469901D01*
X266701Y469899D01*
X266699Y469899D01*
G37*
%LPD*%
%LPC*%
G36*
X368299Y469899D02*
X368299Y469899D01*
X368299Y469901D01*
X368301Y469901D01*
X368301Y469899D01*
X368299Y469899D01*
G37*
%LPD*%
%LPC*%
G36*
X444499Y215899D02*
X444499Y215899D01*
X444499Y215901D01*
X444501Y215901D01*
X444501Y215899D01*
X444499Y215899D01*
G37*
%LPD*%
%LPC*%
G36*
X558799Y38099D02*
X558799Y38099D01*
X558799Y38101D01*
X558801Y38101D01*
X558801Y38099D01*
X558799Y38099D01*
G37*
%LPD*%
%LPC*%
G36*
X457199Y38099D02*
X457199Y38099D01*
X457199Y38101D01*
X457201Y38101D01*
X457201Y38099D01*
X457199Y38099D01*
G37*
%LPD*%
%LPC*%
G36*
X241299Y38099D02*
X241299Y38099D01*
X241299Y38101D01*
X241301Y38101D01*
X241301Y38099D01*
X241299Y38099D01*
G37*
%LPD*%
%LPC*%
G36*
X177799Y38099D02*
X177799Y38099D01*
X177799Y38101D01*
X177801Y38101D01*
X177801Y38099D01*
X177799Y38099D01*
G37*
%LPD*%
%LPC*%
G36*
X634999Y177799D02*
X634999Y177799D01*
X634999Y177801D01*
X635001Y177801D01*
X635001Y177799D01*
X634999Y177799D01*
G37*
%LPD*%
%LPC*%
G36*
X634999Y393699D02*
X634999Y393699D01*
X634999Y393701D01*
X635001Y393701D01*
X635001Y393699D01*
X634999Y393699D01*
G37*
%LPD*%
%LPC*%
G36*
X76199Y177799D02*
X76199Y177799D01*
X76199Y177801D01*
X76201Y177801D01*
X76201Y177799D01*
X76199Y177799D01*
G37*
%LPD*%
%LPC*%
G36*
X495299Y139699D02*
X495299Y139699D01*
X495299Y139701D01*
X495301Y139701D01*
X495301Y139699D01*
X495299Y139699D01*
G37*
%LPD*%
D10*
X292100Y478900D02*
X292100Y460900D01*
X266700Y460900D02*
X266700Y478900D01*
X393700Y478900D02*
X393700Y460900D01*
X368300Y460900D02*
X368300Y478900D01*
X85200Y101600D02*
X67200Y101600D01*
X67200Y127000D02*
X85200Y127000D01*
X85200Y152400D02*
X67200Y152400D01*
X67200Y177800D02*
X85200Y177800D01*
D11*
X520700Y431800D03*
X444500Y431800D03*
X520700Y469900D03*
X444500Y469900D03*
D10*
X317500Y47100D02*
X317500Y29100D01*
X292100Y29100D02*
X292100Y47100D01*
X266700Y47100D02*
X266700Y29100D01*
X241300Y29100D02*
X241300Y47100D01*
D12*
X546100Y139700D03*
X495300Y139700D03*
X520700Y139700D03*
D10*
X609600Y168800D02*
X609600Y186800D01*
X635000Y186800D02*
X635000Y168800D01*
X127000Y47100D02*
X127000Y29100D01*
X152400Y29100D02*
X152400Y47100D01*
X177800Y47100D02*
X177800Y29100D01*
X457200Y29100D02*
X457200Y47100D01*
X482600Y47100D02*
X482600Y29100D01*
X508000Y29100D02*
X508000Y47100D01*
X558800Y47100D02*
X558800Y29100D01*
X584200Y29100D02*
X584200Y47100D01*
X609600Y47100D02*
X609600Y29100D01*
D13*
X520700Y393700D03*
X495300Y393700D03*
X469900Y393700D03*
X444500Y393700D03*
X419100Y393700D03*
X393700Y393700D03*
X368300Y393700D03*
X342900Y393700D03*
X317500Y393700D03*
X292100Y393700D03*
X266700Y393700D03*
X241300Y393700D03*
X241300Y215900D03*
X266700Y215900D03*
X292100Y215900D03*
X317500Y215900D03*
X342900Y215900D03*
X368300Y215900D03*
X393700Y215900D03*
X419100Y215900D03*
X444500Y215900D03*
X469900Y215900D03*
X495300Y215900D03*
X520700Y215900D03*
X215900Y393700D03*
X190500Y393700D03*
X165100Y393700D03*
X139700Y393700D03*
X114300Y393700D03*
X88900Y393700D03*
X88900Y215900D03*
X114300Y215900D03*
X139700Y215900D03*
X165100Y215900D03*
X190500Y215900D03*
X215900Y215900D03*
D10*
X609600Y384700D02*
X609600Y402700D01*
X635000Y402700D02*
X635000Y384700D01*
M02*
