G04 EAGLE Gerber RS-274X export*
G75*
%MOMM*%
%FSLAX34Y34*%
%LPD*%
%INSilkscreen Top*%
%IPPOS*%
%AMOC8*
5,1,8,0,0,1.08239X$1,22.5*%
G01*
%ADD10C,0.127000*%
%ADD11C,0.177800*%
%ADD12C,0.254000*%
%ADD13C,0.152400*%
%ADD14C,0.101600*%
%ADD15R,0.508000X1.870000*%
%ADD16R,0.635000X0.850000*%
%ADD17C,0.304800*%


D10*
X91087Y479425D02*
X91087Y465455D01*
X89535Y465455D02*
X92639Y465455D01*
X92639Y479425D02*
X89535Y479425D01*
X98158Y475544D02*
X98158Y469336D01*
X98157Y475544D02*
X98159Y475667D01*
X98165Y475790D01*
X98175Y475913D01*
X98188Y476035D01*
X98206Y476157D01*
X98227Y476278D01*
X98252Y476399D01*
X98281Y476519D01*
X98314Y476637D01*
X98351Y476755D01*
X98391Y476871D01*
X98435Y476986D01*
X98483Y477100D01*
X98534Y477212D01*
X98588Y477322D01*
X98647Y477431D01*
X98708Y477538D01*
X98773Y477642D01*
X98841Y477745D01*
X98913Y477845D01*
X98987Y477943D01*
X99065Y478039D01*
X99146Y478132D01*
X99229Y478222D01*
X99316Y478310D01*
X99405Y478395D01*
X99496Y478477D01*
X99591Y478556D01*
X99688Y478632D01*
X99787Y478705D01*
X99888Y478775D01*
X99992Y478842D01*
X100097Y478905D01*
X100205Y478965D01*
X100315Y479021D01*
X100426Y479074D01*
X100539Y479124D01*
X100653Y479169D01*
X100769Y479212D01*
X100886Y479250D01*
X101004Y479285D01*
X101123Y479316D01*
X101243Y479343D01*
X101364Y479366D01*
X101486Y479385D01*
X101608Y479401D01*
X101730Y479413D01*
X101853Y479421D01*
X101976Y479425D01*
X102100Y479425D01*
X102223Y479421D01*
X102346Y479413D01*
X102468Y479401D01*
X102590Y479385D01*
X102712Y479366D01*
X102833Y479343D01*
X102953Y479316D01*
X103072Y479285D01*
X103190Y479250D01*
X103307Y479212D01*
X103423Y479169D01*
X103537Y479124D01*
X103650Y479074D01*
X103761Y479021D01*
X103871Y478965D01*
X103979Y478905D01*
X104084Y478842D01*
X104188Y478775D01*
X104289Y478705D01*
X104388Y478632D01*
X104485Y478556D01*
X104580Y478477D01*
X104671Y478395D01*
X104760Y478310D01*
X104847Y478222D01*
X104930Y478132D01*
X105011Y478039D01*
X105089Y477943D01*
X105163Y477845D01*
X105235Y477745D01*
X105303Y477642D01*
X105368Y477538D01*
X105429Y477431D01*
X105488Y477322D01*
X105542Y477212D01*
X105593Y477100D01*
X105641Y476986D01*
X105685Y476871D01*
X105725Y476755D01*
X105762Y476637D01*
X105795Y476519D01*
X105824Y476399D01*
X105849Y476278D01*
X105870Y476157D01*
X105888Y476035D01*
X105901Y475913D01*
X105911Y475790D01*
X105917Y475667D01*
X105919Y475544D01*
X105919Y469336D01*
X105917Y469213D01*
X105911Y469090D01*
X105901Y468967D01*
X105888Y468845D01*
X105870Y468723D01*
X105849Y468602D01*
X105824Y468481D01*
X105795Y468361D01*
X105762Y468243D01*
X105725Y468125D01*
X105685Y468009D01*
X105641Y467894D01*
X105593Y467780D01*
X105542Y467668D01*
X105488Y467558D01*
X105429Y467449D01*
X105368Y467342D01*
X105303Y467238D01*
X105235Y467135D01*
X105163Y467035D01*
X105089Y466937D01*
X105011Y466841D01*
X104930Y466748D01*
X104847Y466658D01*
X104760Y466570D01*
X104671Y466485D01*
X104580Y466403D01*
X104485Y466324D01*
X104388Y466248D01*
X104289Y466175D01*
X104188Y466105D01*
X104084Y466038D01*
X103978Y465975D01*
X103871Y465915D01*
X103761Y465859D01*
X103650Y465806D01*
X103537Y465756D01*
X103423Y465711D01*
X103307Y465668D01*
X103190Y465630D01*
X103072Y465595D01*
X102953Y465564D01*
X102833Y465537D01*
X102712Y465514D01*
X102590Y465495D01*
X102468Y465479D01*
X102346Y465467D01*
X102223Y465459D01*
X102100Y465455D01*
X101976Y465455D01*
X101853Y465459D01*
X101730Y465467D01*
X101608Y465479D01*
X101486Y465495D01*
X101364Y465514D01*
X101243Y465537D01*
X101123Y465564D01*
X101004Y465595D01*
X100886Y465630D01*
X100769Y465668D01*
X100653Y465711D01*
X100539Y465756D01*
X100426Y465806D01*
X100315Y465859D01*
X100205Y465915D01*
X100097Y465975D01*
X99992Y466038D01*
X99888Y466105D01*
X99787Y466175D01*
X99688Y466248D01*
X99591Y466324D01*
X99496Y466403D01*
X99405Y466485D01*
X99316Y466570D01*
X99229Y466658D01*
X99146Y466748D01*
X99065Y466841D01*
X98987Y466937D01*
X98913Y467035D01*
X98841Y467135D01*
X98773Y467238D01*
X98708Y467342D01*
X98647Y467449D01*
X98588Y467558D01*
X98534Y467668D01*
X98483Y467780D01*
X98435Y467894D01*
X98391Y468009D01*
X98351Y468125D01*
X98314Y468243D01*
X98281Y468361D01*
X98252Y468481D01*
X98227Y468602D01*
X98206Y468723D01*
X98188Y468845D01*
X98175Y468967D01*
X98165Y469090D01*
X98159Y469213D01*
X98157Y469336D01*
X114814Y465455D02*
X114814Y479425D01*
X110933Y479425D02*
X118695Y479425D01*
X134890Y479425D02*
X130234Y465455D01*
X139547Y465455D02*
X134890Y479425D01*
X138383Y468948D02*
X131398Y468948D01*
X145018Y465455D02*
X145018Y474768D01*
X148899Y474768D01*
X148995Y474766D01*
X149091Y474760D01*
X149187Y474750D01*
X149282Y474736D01*
X149377Y474718D01*
X149470Y474697D01*
X149563Y474671D01*
X149655Y474642D01*
X149745Y474609D01*
X149834Y474572D01*
X149921Y474531D01*
X150007Y474487D01*
X150091Y474440D01*
X150172Y474389D01*
X150252Y474335D01*
X150329Y474277D01*
X150404Y474216D01*
X150476Y474153D01*
X150545Y474086D01*
X150612Y474017D01*
X150675Y473945D01*
X150736Y473870D01*
X150794Y473793D01*
X150848Y473713D01*
X150899Y473632D01*
X150946Y473548D01*
X150990Y473462D01*
X151031Y473375D01*
X151068Y473286D01*
X151101Y473196D01*
X151130Y473104D01*
X151156Y473012D01*
X151177Y472918D01*
X151195Y472823D01*
X151209Y472728D01*
X151219Y472632D01*
X151225Y472536D01*
X151227Y472440D01*
X151227Y465455D01*
X159666Y465455D02*
X163547Y465455D01*
X159666Y465455D02*
X159572Y465457D01*
X159479Y465463D01*
X159385Y465472D01*
X159293Y465485D01*
X159200Y465502D01*
X159109Y465523D01*
X159018Y465547D01*
X158929Y465575D01*
X158840Y465606D01*
X158754Y465641D01*
X158668Y465680D01*
X158584Y465722D01*
X158502Y465767D01*
X158422Y465815D01*
X158344Y465867D01*
X158267Y465922D01*
X158194Y465980D01*
X158122Y466040D01*
X158053Y466104D01*
X157987Y466170D01*
X157923Y466239D01*
X157863Y466311D01*
X157805Y466384D01*
X157750Y466461D01*
X157698Y466539D01*
X157650Y466619D01*
X157605Y466701D01*
X157563Y466785D01*
X157524Y466871D01*
X157489Y466957D01*
X157458Y467046D01*
X157430Y467135D01*
X157406Y467226D01*
X157385Y467317D01*
X157368Y467410D01*
X157355Y467502D01*
X157346Y467596D01*
X157340Y467689D01*
X157338Y467783D01*
X157338Y471664D01*
X157340Y471775D01*
X157346Y471885D01*
X157356Y471996D01*
X157370Y472106D01*
X157387Y472215D01*
X157409Y472324D01*
X157434Y472432D01*
X157464Y472538D01*
X157497Y472644D01*
X157534Y472749D01*
X157574Y472852D01*
X157619Y472953D01*
X157666Y473053D01*
X157718Y473152D01*
X157773Y473248D01*
X157831Y473342D01*
X157892Y473434D01*
X157957Y473524D01*
X158025Y473612D01*
X158096Y473697D01*
X158170Y473779D01*
X158247Y473859D01*
X158327Y473936D01*
X158409Y474010D01*
X158494Y474081D01*
X158582Y474149D01*
X158672Y474214D01*
X158764Y474275D01*
X158858Y474333D01*
X158954Y474388D01*
X159053Y474440D01*
X159153Y474487D01*
X159254Y474532D01*
X159357Y474572D01*
X159462Y474609D01*
X159568Y474642D01*
X159674Y474672D01*
X159782Y474697D01*
X159891Y474719D01*
X160000Y474736D01*
X160110Y474750D01*
X160221Y474760D01*
X160331Y474766D01*
X160442Y474768D01*
X160553Y474766D01*
X160663Y474760D01*
X160774Y474750D01*
X160884Y474736D01*
X160993Y474719D01*
X161102Y474697D01*
X161210Y474672D01*
X161316Y474642D01*
X161422Y474609D01*
X161527Y474572D01*
X161630Y474532D01*
X161731Y474487D01*
X161831Y474440D01*
X161930Y474388D01*
X162026Y474333D01*
X162120Y474275D01*
X162212Y474214D01*
X162302Y474149D01*
X162390Y474081D01*
X162475Y474010D01*
X162557Y473936D01*
X162637Y473859D01*
X162714Y473779D01*
X162788Y473697D01*
X162859Y473612D01*
X162927Y473524D01*
X162992Y473434D01*
X163053Y473342D01*
X163111Y473248D01*
X163166Y473152D01*
X163218Y473053D01*
X163265Y472953D01*
X163310Y472852D01*
X163350Y472749D01*
X163387Y472644D01*
X163420Y472538D01*
X163450Y472432D01*
X163475Y472324D01*
X163497Y472215D01*
X163514Y472106D01*
X163528Y471996D01*
X163538Y471885D01*
X163544Y471775D01*
X163546Y471664D01*
X163547Y471664D02*
X163547Y470112D01*
X157338Y470112D01*
X169931Y465455D02*
X169931Y474768D01*
X176916Y474768D01*
X177010Y474766D01*
X177103Y474760D01*
X177197Y474751D01*
X177289Y474738D01*
X177382Y474721D01*
X177473Y474700D01*
X177564Y474676D01*
X177653Y474648D01*
X177742Y474617D01*
X177828Y474582D01*
X177914Y474543D01*
X177998Y474501D01*
X178080Y474456D01*
X178160Y474408D01*
X178238Y474356D01*
X178315Y474301D01*
X178388Y474243D01*
X178460Y474183D01*
X178529Y474119D01*
X178595Y474053D01*
X178659Y473984D01*
X178719Y473912D01*
X178777Y473839D01*
X178832Y473762D01*
X178884Y473684D01*
X178932Y473604D01*
X178977Y473522D01*
X179019Y473438D01*
X179058Y473352D01*
X179093Y473266D01*
X179124Y473177D01*
X179152Y473088D01*
X179176Y472997D01*
X179197Y472906D01*
X179214Y472813D01*
X179227Y472721D01*
X179236Y472627D01*
X179242Y472534D01*
X179244Y472440D01*
X179244Y465455D01*
X174587Y465455D02*
X174587Y474768D01*
X185628Y471664D02*
X185628Y468559D01*
X185628Y471664D02*
X185630Y471775D01*
X185636Y471885D01*
X185646Y471996D01*
X185660Y472106D01*
X185677Y472215D01*
X185699Y472324D01*
X185724Y472432D01*
X185754Y472538D01*
X185787Y472644D01*
X185824Y472749D01*
X185864Y472852D01*
X185909Y472953D01*
X185956Y473053D01*
X186008Y473152D01*
X186063Y473248D01*
X186121Y473342D01*
X186182Y473434D01*
X186247Y473524D01*
X186315Y473612D01*
X186386Y473697D01*
X186460Y473779D01*
X186537Y473859D01*
X186617Y473936D01*
X186699Y474010D01*
X186784Y474081D01*
X186872Y474149D01*
X186962Y474214D01*
X187054Y474275D01*
X187148Y474333D01*
X187244Y474388D01*
X187343Y474440D01*
X187443Y474487D01*
X187544Y474532D01*
X187647Y474572D01*
X187752Y474609D01*
X187858Y474642D01*
X187964Y474672D01*
X188072Y474697D01*
X188181Y474719D01*
X188290Y474736D01*
X188400Y474750D01*
X188511Y474760D01*
X188621Y474766D01*
X188732Y474768D01*
X188843Y474766D01*
X188953Y474760D01*
X189064Y474750D01*
X189174Y474736D01*
X189283Y474719D01*
X189392Y474697D01*
X189500Y474672D01*
X189606Y474642D01*
X189712Y474609D01*
X189817Y474572D01*
X189920Y474532D01*
X190021Y474487D01*
X190121Y474440D01*
X190220Y474388D01*
X190316Y474333D01*
X190410Y474275D01*
X190502Y474214D01*
X190592Y474149D01*
X190680Y474081D01*
X190765Y474010D01*
X190847Y473936D01*
X190927Y473859D01*
X191004Y473779D01*
X191078Y473697D01*
X191149Y473612D01*
X191217Y473524D01*
X191282Y473434D01*
X191343Y473342D01*
X191401Y473248D01*
X191456Y473152D01*
X191508Y473053D01*
X191555Y472953D01*
X191600Y472852D01*
X191640Y472749D01*
X191677Y472644D01*
X191710Y472538D01*
X191740Y472432D01*
X191765Y472324D01*
X191787Y472215D01*
X191804Y472106D01*
X191818Y471996D01*
X191828Y471885D01*
X191834Y471775D01*
X191836Y471664D01*
X191836Y468559D01*
X191834Y468448D01*
X191828Y468338D01*
X191818Y468227D01*
X191804Y468117D01*
X191787Y468008D01*
X191765Y467899D01*
X191740Y467791D01*
X191710Y467685D01*
X191677Y467579D01*
X191640Y467474D01*
X191600Y467371D01*
X191555Y467270D01*
X191508Y467170D01*
X191456Y467071D01*
X191401Y466975D01*
X191343Y466881D01*
X191282Y466789D01*
X191217Y466699D01*
X191149Y466611D01*
X191078Y466526D01*
X191004Y466444D01*
X190927Y466364D01*
X190847Y466287D01*
X190765Y466213D01*
X190680Y466142D01*
X190592Y466074D01*
X190502Y466009D01*
X190410Y465948D01*
X190316Y465890D01*
X190220Y465835D01*
X190121Y465783D01*
X190021Y465736D01*
X189920Y465691D01*
X189817Y465651D01*
X189712Y465614D01*
X189606Y465581D01*
X189500Y465551D01*
X189392Y465526D01*
X189283Y465504D01*
X189174Y465487D01*
X189064Y465473D01*
X188953Y465463D01*
X188843Y465457D01*
X188732Y465455D01*
X188621Y465457D01*
X188511Y465463D01*
X188400Y465473D01*
X188290Y465487D01*
X188181Y465504D01*
X188072Y465526D01*
X187964Y465551D01*
X187858Y465581D01*
X187752Y465614D01*
X187647Y465651D01*
X187544Y465691D01*
X187443Y465736D01*
X187343Y465783D01*
X187244Y465835D01*
X187148Y465890D01*
X187054Y465948D01*
X186962Y466009D01*
X186872Y466074D01*
X186784Y466142D01*
X186699Y466213D01*
X186617Y466287D01*
X186537Y466364D01*
X186460Y466444D01*
X186386Y466526D01*
X186315Y466611D01*
X186247Y466699D01*
X186182Y466789D01*
X186121Y466881D01*
X186063Y466975D01*
X186008Y467071D01*
X185956Y467170D01*
X185909Y467270D01*
X185864Y467371D01*
X185824Y467474D01*
X185787Y467579D01*
X185754Y467685D01*
X185724Y467791D01*
X185699Y467899D01*
X185677Y468008D01*
X185660Y468117D01*
X185646Y468227D01*
X185636Y468338D01*
X185630Y468448D01*
X185628Y468559D01*
X198220Y465455D02*
X198220Y474768D01*
X205205Y474768D01*
X205299Y474766D01*
X205392Y474760D01*
X205486Y474751D01*
X205578Y474738D01*
X205671Y474721D01*
X205762Y474700D01*
X205853Y474676D01*
X205942Y474648D01*
X206031Y474617D01*
X206117Y474582D01*
X206203Y474543D01*
X206287Y474501D01*
X206369Y474456D01*
X206449Y474408D01*
X206527Y474356D01*
X206604Y474301D01*
X206677Y474243D01*
X206749Y474183D01*
X206818Y474119D01*
X206884Y474053D01*
X206948Y473984D01*
X207008Y473912D01*
X207066Y473839D01*
X207121Y473762D01*
X207173Y473684D01*
X207221Y473604D01*
X207266Y473522D01*
X207308Y473438D01*
X207347Y473352D01*
X207382Y473266D01*
X207413Y473177D01*
X207441Y473088D01*
X207465Y472997D01*
X207486Y472906D01*
X207503Y472813D01*
X207516Y472721D01*
X207525Y472627D01*
X207531Y472534D01*
X207533Y472440D01*
X207533Y465455D01*
X202877Y465455D02*
X202877Y474768D01*
X216245Y465455D02*
X220126Y465455D01*
X216245Y465455D02*
X216151Y465457D01*
X216058Y465463D01*
X215964Y465472D01*
X215872Y465485D01*
X215779Y465502D01*
X215688Y465523D01*
X215597Y465547D01*
X215508Y465575D01*
X215419Y465606D01*
X215333Y465641D01*
X215247Y465680D01*
X215163Y465722D01*
X215081Y465767D01*
X215001Y465815D01*
X214923Y465867D01*
X214846Y465922D01*
X214773Y465980D01*
X214701Y466040D01*
X214632Y466104D01*
X214566Y466170D01*
X214502Y466239D01*
X214442Y466311D01*
X214384Y466384D01*
X214329Y466461D01*
X214277Y466539D01*
X214229Y466619D01*
X214184Y466701D01*
X214142Y466785D01*
X214103Y466871D01*
X214068Y466957D01*
X214037Y467046D01*
X214009Y467135D01*
X213985Y467226D01*
X213964Y467317D01*
X213947Y467410D01*
X213934Y467502D01*
X213925Y467596D01*
X213919Y467689D01*
X213917Y467783D01*
X213917Y471664D01*
X213918Y471664D02*
X213920Y471775D01*
X213926Y471885D01*
X213936Y471996D01*
X213950Y472106D01*
X213967Y472215D01*
X213989Y472324D01*
X214014Y472432D01*
X214044Y472538D01*
X214077Y472644D01*
X214114Y472749D01*
X214154Y472852D01*
X214199Y472953D01*
X214246Y473053D01*
X214298Y473152D01*
X214353Y473248D01*
X214411Y473342D01*
X214472Y473434D01*
X214537Y473524D01*
X214605Y473612D01*
X214676Y473697D01*
X214750Y473779D01*
X214827Y473859D01*
X214907Y473936D01*
X214989Y474010D01*
X215074Y474081D01*
X215162Y474149D01*
X215252Y474214D01*
X215344Y474275D01*
X215438Y474333D01*
X215534Y474388D01*
X215633Y474440D01*
X215733Y474487D01*
X215834Y474532D01*
X215937Y474572D01*
X216042Y474609D01*
X216148Y474642D01*
X216254Y474672D01*
X216362Y474697D01*
X216471Y474719D01*
X216580Y474736D01*
X216690Y474750D01*
X216801Y474760D01*
X216911Y474766D01*
X217022Y474768D01*
X217133Y474766D01*
X217243Y474760D01*
X217354Y474750D01*
X217464Y474736D01*
X217573Y474719D01*
X217682Y474697D01*
X217790Y474672D01*
X217896Y474642D01*
X218002Y474609D01*
X218107Y474572D01*
X218210Y474532D01*
X218311Y474487D01*
X218411Y474440D01*
X218510Y474388D01*
X218606Y474333D01*
X218700Y474275D01*
X218792Y474214D01*
X218882Y474149D01*
X218970Y474081D01*
X219055Y474010D01*
X219137Y473936D01*
X219217Y473859D01*
X219294Y473779D01*
X219368Y473697D01*
X219439Y473612D01*
X219507Y473524D01*
X219572Y473434D01*
X219633Y473342D01*
X219691Y473248D01*
X219746Y473152D01*
X219798Y473053D01*
X219845Y472953D01*
X219890Y472852D01*
X219930Y472749D01*
X219967Y472644D01*
X220000Y472538D01*
X220030Y472432D01*
X220055Y472324D01*
X220077Y472215D01*
X220094Y472106D01*
X220108Y471996D01*
X220118Y471885D01*
X220124Y471775D01*
X220126Y471664D01*
X220126Y470112D01*
X213917Y470112D01*
X224620Y474768D02*
X229276Y474768D01*
X226172Y479425D02*
X226172Y467783D01*
X226174Y467689D01*
X226180Y467596D01*
X226189Y467502D01*
X226202Y467410D01*
X226219Y467317D01*
X226240Y467226D01*
X226264Y467135D01*
X226292Y467046D01*
X226323Y466957D01*
X226358Y466871D01*
X226397Y466785D01*
X226439Y466701D01*
X226484Y466619D01*
X226532Y466539D01*
X226584Y466461D01*
X226639Y466384D01*
X226697Y466311D01*
X226757Y466239D01*
X226821Y466170D01*
X226887Y466104D01*
X226956Y466040D01*
X227028Y465980D01*
X227101Y465922D01*
X227178Y465867D01*
X227256Y465815D01*
X227336Y465767D01*
X227418Y465722D01*
X227502Y465680D01*
X227588Y465641D01*
X227674Y465606D01*
X227763Y465575D01*
X227852Y465547D01*
X227943Y465523D01*
X228034Y465502D01*
X228127Y465485D01*
X228219Y465472D01*
X228313Y465463D01*
X228406Y465457D01*
X228500Y465455D01*
X229276Y465455D01*
X236778Y465455D02*
X240659Y465455D01*
X236778Y465455D02*
X236684Y465457D01*
X236591Y465463D01*
X236497Y465472D01*
X236405Y465485D01*
X236312Y465502D01*
X236221Y465523D01*
X236130Y465547D01*
X236041Y465575D01*
X235952Y465606D01*
X235866Y465641D01*
X235780Y465680D01*
X235696Y465722D01*
X235614Y465767D01*
X235534Y465815D01*
X235456Y465867D01*
X235379Y465922D01*
X235306Y465980D01*
X235234Y466040D01*
X235165Y466104D01*
X235099Y466170D01*
X235035Y466239D01*
X234975Y466311D01*
X234917Y466384D01*
X234862Y466461D01*
X234810Y466539D01*
X234762Y466619D01*
X234717Y466701D01*
X234675Y466785D01*
X234636Y466871D01*
X234601Y466957D01*
X234570Y467046D01*
X234542Y467135D01*
X234518Y467226D01*
X234497Y467317D01*
X234480Y467410D01*
X234467Y467502D01*
X234458Y467596D01*
X234452Y467689D01*
X234450Y467783D01*
X234450Y471664D01*
X234452Y471775D01*
X234458Y471885D01*
X234468Y471996D01*
X234482Y472106D01*
X234499Y472215D01*
X234521Y472324D01*
X234546Y472432D01*
X234576Y472538D01*
X234609Y472644D01*
X234646Y472749D01*
X234686Y472852D01*
X234731Y472953D01*
X234778Y473053D01*
X234830Y473152D01*
X234885Y473248D01*
X234943Y473342D01*
X235004Y473434D01*
X235069Y473524D01*
X235137Y473612D01*
X235208Y473697D01*
X235282Y473779D01*
X235359Y473859D01*
X235439Y473936D01*
X235521Y474010D01*
X235606Y474081D01*
X235694Y474149D01*
X235784Y474214D01*
X235876Y474275D01*
X235970Y474333D01*
X236066Y474388D01*
X236165Y474440D01*
X236265Y474487D01*
X236366Y474532D01*
X236469Y474572D01*
X236574Y474609D01*
X236680Y474642D01*
X236786Y474672D01*
X236894Y474697D01*
X237003Y474719D01*
X237112Y474736D01*
X237222Y474750D01*
X237333Y474760D01*
X237443Y474766D01*
X237554Y474768D01*
X237665Y474766D01*
X237775Y474760D01*
X237886Y474750D01*
X237996Y474736D01*
X238105Y474719D01*
X238214Y474697D01*
X238322Y474672D01*
X238428Y474642D01*
X238534Y474609D01*
X238639Y474572D01*
X238742Y474532D01*
X238843Y474487D01*
X238943Y474440D01*
X239042Y474388D01*
X239138Y474333D01*
X239232Y474275D01*
X239324Y474214D01*
X239414Y474149D01*
X239502Y474081D01*
X239587Y474010D01*
X239669Y473936D01*
X239749Y473859D01*
X239826Y473779D01*
X239900Y473697D01*
X239971Y473612D01*
X240039Y473524D01*
X240104Y473434D01*
X240165Y473342D01*
X240223Y473248D01*
X240278Y473152D01*
X240330Y473053D01*
X240377Y472953D01*
X240422Y472852D01*
X240462Y472749D01*
X240499Y472644D01*
X240532Y472538D01*
X240562Y472432D01*
X240587Y472324D01*
X240609Y472215D01*
X240626Y472106D01*
X240640Y471996D01*
X240650Y471885D01*
X240656Y471775D01*
X240658Y471664D01*
X240659Y471664D02*
X240659Y470112D01*
X234450Y470112D01*
X246850Y465455D02*
X246850Y474768D01*
X251507Y474768D01*
X251507Y473216D01*
X97296Y445699D02*
X97294Y445588D01*
X97288Y445478D01*
X97278Y445367D01*
X97264Y445257D01*
X97247Y445148D01*
X97225Y445039D01*
X97200Y444931D01*
X97170Y444825D01*
X97137Y444719D01*
X97100Y444614D01*
X97060Y444511D01*
X97015Y444410D01*
X96968Y444310D01*
X96916Y444211D01*
X96861Y444115D01*
X96803Y444021D01*
X96742Y443929D01*
X96677Y443839D01*
X96609Y443751D01*
X96538Y443666D01*
X96464Y443584D01*
X96387Y443504D01*
X96307Y443427D01*
X96225Y443353D01*
X96140Y443282D01*
X96052Y443214D01*
X95962Y443149D01*
X95870Y443088D01*
X95776Y443030D01*
X95680Y442975D01*
X95581Y442923D01*
X95481Y442876D01*
X95380Y442831D01*
X95277Y442791D01*
X95172Y442754D01*
X95066Y442721D01*
X94960Y442691D01*
X94852Y442666D01*
X94743Y442644D01*
X94634Y442627D01*
X94524Y442613D01*
X94413Y442603D01*
X94303Y442597D01*
X94192Y442595D01*
X94035Y442597D01*
X93878Y442603D01*
X93722Y442612D01*
X93565Y442625D01*
X93409Y442642D01*
X93254Y442662D01*
X93099Y442687D01*
X92944Y442715D01*
X92791Y442746D01*
X92638Y442782D01*
X92486Y442821D01*
X92335Y442863D01*
X92185Y442910D01*
X92036Y442959D01*
X91889Y443013D01*
X91742Y443070D01*
X91597Y443130D01*
X91454Y443194D01*
X91312Y443261D01*
X91172Y443332D01*
X91034Y443406D01*
X90897Y443483D01*
X90763Y443563D01*
X90630Y443647D01*
X90499Y443734D01*
X90370Y443824D01*
X90244Y443916D01*
X90120Y444012D01*
X89998Y444111D01*
X89879Y444213D01*
X89762Y444318D01*
X89647Y444425D01*
X89535Y444535D01*
X89923Y453461D02*
X89925Y453569D01*
X89931Y453678D01*
X89940Y453785D01*
X89953Y453893D01*
X89970Y454000D01*
X89991Y454106D01*
X90015Y454212D01*
X90043Y454317D01*
X90075Y454420D01*
X90110Y454523D01*
X90149Y454624D01*
X90191Y454724D01*
X90237Y454822D01*
X90286Y454918D01*
X90339Y455013D01*
X90395Y455106D01*
X90454Y455197D01*
X90516Y455285D01*
X90581Y455372D01*
X90649Y455456D01*
X90720Y455538D01*
X90794Y455617D01*
X90871Y455694D01*
X90950Y455768D01*
X91032Y455839D01*
X91116Y455907D01*
X91203Y455972D01*
X91291Y456034D01*
X91382Y456093D01*
X91475Y456149D01*
X91570Y456202D01*
X91666Y456251D01*
X91765Y456297D01*
X91864Y456339D01*
X91965Y456378D01*
X92068Y456413D01*
X92171Y456445D01*
X92276Y456473D01*
X92382Y456497D01*
X92488Y456518D01*
X92595Y456535D01*
X92703Y456548D01*
X92811Y456557D01*
X92919Y456563D01*
X93027Y456565D01*
X93177Y456563D01*
X93327Y456557D01*
X93476Y456548D01*
X93625Y456534D01*
X93774Y456517D01*
X93922Y456496D01*
X94070Y456471D01*
X94217Y456442D01*
X94364Y456409D01*
X94509Y456373D01*
X94653Y456333D01*
X94797Y456290D01*
X94939Y456242D01*
X95080Y456191D01*
X95219Y456136D01*
X95357Y456078D01*
X95494Y456017D01*
X95629Y455951D01*
X95762Y455883D01*
X95893Y455811D01*
X96022Y455735D01*
X96150Y455656D01*
X96275Y455574D01*
X96399Y455489D01*
X96520Y455401D01*
X91475Y450745D02*
X91382Y450802D01*
X91291Y450862D01*
X91202Y450925D01*
X91116Y450991D01*
X91031Y451061D01*
X90950Y451133D01*
X90870Y451208D01*
X90794Y451286D01*
X90720Y451366D01*
X90649Y451449D01*
X90581Y451534D01*
X90515Y451621D01*
X90453Y451711D01*
X90394Y451803D01*
X90338Y451897D01*
X90286Y451992D01*
X90237Y452090D01*
X90191Y452189D01*
X90149Y452289D01*
X90110Y452391D01*
X90075Y452495D01*
X90043Y452599D01*
X90015Y452705D01*
X89991Y452811D01*
X89970Y452918D01*
X89953Y453026D01*
X89940Y453134D01*
X89931Y453243D01*
X89925Y453352D01*
X89923Y453461D01*
X95744Y448415D02*
X95837Y448358D01*
X95928Y448298D01*
X96017Y448235D01*
X96103Y448169D01*
X96188Y448099D01*
X96269Y448027D01*
X96349Y447952D01*
X96425Y447874D01*
X96499Y447794D01*
X96570Y447711D01*
X96639Y447626D01*
X96704Y447539D01*
X96766Y447449D01*
X96825Y447357D01*
X96881Y447263D01*
X96933Y447168D01*
X96982Y447070D01*
X97028Y446971D01*
X97070Y446871D01*
X97109Y446769D01*
X97144Y446665D01*
X97176Y446561D01*
X97204Y446455D01*
X97228Y446349D01*
X97249Y446242D01*
X97266Y446134D01*
X97279Y446026D01*
X97288Y445917D01*
X97294Y445808D01*
X97296Y445699D01*
X95744Y448416D02*
X91475Y450744D01*
X104975Y442595D02*
X108080Y442595D01*
X104975Y442595D02*
X104881Y442597D01*
X104788Y442603D01*
X104694Y442612D01*
X104602Y442625D01*
X104509Y442642D01*
X104418Y442663D01*
X104327Y442687D01*
X104238Y442715D01*
X104149Y442746D01*
X104063Y442781D01*
X103977Y442820D01*
X103893Y442862D01*
X103811Y442907D01*
X103731Y442955D01*
X103653Y443007D01*
X103576Y443062D01*
X103503Y443120D01*
X103431Y443180D01*
X103362Y443244D01*
X103296Y443310D01*
X103232Y443379D01*
X103172Y443451D01*
X103114Y443524D01*
X103059Y443601D01*
X103007Y443679D01*
X102959Y443759D01*
X102914Y443841D01*
X102872Y443925D01*
X102833Y444011D01*
X102798Y444097D01*
X102767Y444186D01*
X102739Y444275D01*
X102715Y444366D01*
X102694Y444457D01*
X102677Y444550D01*
X102664Y444642D01*
X102655Y444736D01*
X102649Y444829D01*
X102647Y444923D01*
X102647Y449580D01*
X102649Y449674D01*
X102655Y449767D01*
X102664Y449861D01*
X102677Y449953D01*
X102694Y450046D01*
X102715Y450137D01*
X102739Y450228D01*
X102767Y450317D01*
X102798Y450406D01*
X102833Y450492D01*
X102872Y450578D01*
X102914Y450662D01*
X102959Y450744D01*
X103007Y450824D01*
X103059Y450902D01*
X103114Y450979D01*
X103172Y451052D01*
X103232Y451124D01*
X103296Y451193D01*
X103362Y451259D01*
X103431Y451323D01*
X103503Y451383D01*
X103576Y451441D01*
X103653Y451496D01*
X103731Y451548D01*
X103811Y451596D01*
X103893Y451641D01*
X103977Y451683D01*
X104063Y451722D01*
X104149Y451757D01*
X104238Y451788D01*
X104327Y451816D01*
X104418Y451840D01*
X104509Y451861D01*
X104602Y451878D01*
X104694Y451891D01*
X104788Y451900D01*
X104881Y451906D01*
X104975Y451908D01*
X108080Y451908D01*
X113125Y448804D02*
X113125Y445699D01*
X113126Y448804D02*
X113128Y448915D01*
X113134Y449025D01*
X113144Y449136D01*
X113158Y449246D01*
X113175Y449355D01*
X113197Y449464D01*
X113222Y449572D01*
X113252Y449678D01*
X113285Y449784D01*
X113322Y449889D01*
X113362Y449992D01*
X113407Y450093D01*
X113454Y450193D01*
X113506Y450292D01*
X113561Y450388D01*
X113619Y450482D01*
X113680Y450574D01*
X113745Y450664D01*
X113813Y450752D01*
X113884Y450837D01*
X113958Y450919D01*
X114035Y450999D01*
X114115Y451076D01*
X114197Y451150D01*
X114282Y451221D01*
X114370Y451289D01*
X114460Y451354D01*
X114552Y451415D01*
X114646Y451473D01*
X114742Y451528D01*
X114841Y451580D01*
X114941Y451627D01*
X115042Y451672D01*
X115145Y451712D01*
X115250Y451749D01*
X115356Y451782D01*
X115462Y451812D01*
X115570Y451837D01*
X115679Y451859D01*
X115788Y451876D01*
X115898Y451890D01*
X116009Y451900D01*
X116119Y451906D01*
X116230Y451908D01*
X116341Y451906D01*
X116451Y451900D01*
X116562Y451890D01*
X116672Y451876D01*
X116781Y451859D01*
X116890Y451837D01*
X116998Y451812D01*
X117104Y451782D01*
X117210Y451749D01*
X117315Y451712D01*
X117418Y451672D01*
X117519Y451627D01*
X117619Y451580D01*
X117718Y451528D01*
X117814Y451473D01*
X117908Y451415D01*
X118000Y451354D01*
X118090Y451289D01*
X118178Y451221D01*
X118263Y451150D01*
X118345Y451076D01*
X118425Y450999D01*
X118502Y450919D01*
X118576Y450837D01*
X118647Y450752D01*
X118715Y450664D01*
X118780Y450574D01*
X118841Y450482D01*
X118899Y450388D01*
X118954Y450292D01*
X119006Y450193D01*
X119053Y450093D01*
X119098Y449992D01*
X119138Y449889D01*
X119175Y449784D01*
X119208Y449678D01*
X119238Y449572D01*
X119263Y449464D01*
X119285Y449355D01*
X119302Y449246D01*
X119316Y449136D01*
X119326Y449025D01*
X119332Y448915D01*
X119334Y448804D01*
X119334Y445699D01*
X119332Y445588D01*
X119326Y445478D01*
X119316Y445367D01*
X119302Y445257D01*
X119285Y445148D01*
X119263Y445039D01*
X119238Y444931D01*
X119208Y444825D01*
X119175Y444719D01*
X119138Y444614D01*
X119098Y444511D01*
X119053Y444410D01*
X119006Y444310D01*
X118954Y444211D01*
X118899Y444115D01*
X118841Y444021D01*
X118780Y443929D01*
X118715Y443839D01*
X118647Y443751D01*
X118576Y443666D01*
X118502Y443584D01*
X118425Y443504D01*
X118345Y443427D01*
X118263Y443353D01*
X118178Y443282D01*
X118090Y443214D01*
X118000Y443149D01*
X117908Y443088D01*
X117814Y443030D01*
X117718Y442975D01*
X117619Y442923D01*
X117519Y442876D01*
X117418Y442831D01*
X117315Y442791D01*
X117210Y442754D01*
X117104Y442721D01*
X116998Y442691D01*
X116890Y442666D01*
X116781Y442644D01*
X116672Y442627D01*
X116562Y442613D01*
X116451Y442603D01*
X116341Y442597D01*
X116230Y442595D01*
X116119Y442597D01*
X116009Y442603D01*
X115898Y442613D01*
X115788Y442627D01*
X115679Y442644D01*
X115570Y442666D01*
X115462Y442691D01*
X115356Y442721D01*
X115250Y442754D01*
X115145Y442791D01*
X115042Y442831D01*
X114941Y442876D01*
X114841Y442923D01*
X114742Y442975D01*
X114646Y443030D01*
X114552Y443088D01*
X114460Y443149D01*
X114370Y443214D01*
X114282Y443282D01*
X114197Y443353D01*
X114115Y443427D01*
X114035Y443504D01*
X113958Y443584D01*
X113884Y443666D01*
X113813Y443751D01*
X113745Y443839D01*
X113680Y443929D01*
X113619Y444021D01*
X113561Y444115D01*
X113506Y444211D01*
X113454Y444310D01*
X113407Y444410D01*
X113362Y444511D01*
X113322Y444614D01*
X113285Y444719D01*
X113252Y444825D01*
X113222Y444931D01*
X113197Y445039D01*
X113175Y445148D01*
X113158Y445257D01*
X113144Y445367D01*
X113134Y445478D01*
X113128Y445588D01*
X113126Y445699D01*
X123828Y451908D02*
X128484Y451908D01*
X125380Y456565D02*
X125380Y444923D01*
X125382Y444829D01*
X125388Y444736D01*
X125397Y444642D01*
X125410Y444550D01*
X125427Y444457D01*
X125448Y444366D01*
X125472Y444275D01*
X125500Y444186D01*
X125531Y444097D01*
X125566Y444011D01*
X125605Y443925D01*
X125647Y443841D01*
X125692Y443759D01*
X125740Y443679D01*
X125792Y443601D01*
X125847Y443524D01*
X125905Y443451D01*
X125965Y443379D01*
X126029Y443310D01*
X126095Y443244D01*
X126164Y443180D01*
X126236Y443120D01*
X126309Y443062D01*
X126386Y443007D01*
X126464Y442955D01*
X126544Y442907D01*
X126626Y442862D01*
X126710Y442820D01*
X126796Y442781D01*
X126882Y442746D01*
X126971Y442715D01*
X127060Y442687D01*
X127151Y442663D01*
X127242Y442642D01*
X127335Y442625D01*
X127427Y442612D01*
X127521Y442603D01*
X127614Y442597D01*
X127708Y442595D01*
X128484Y442595D01*
X132497Y451908D02*
X137154Y451908D01*
X134049Y456565D02*
X134049Y444923D01*
X134050Y444923D02*
X134052Y444829D01*
X134058Y444736D01*
X134067Y444642D01*
X134080Y444550D01*
X134097Y444457D01*
X134118Y444366D01*
X134142Y444275D01*
X134170Y444186D01*
X134201Y444097D01*
X134236Y444011D01*
X134275Y443925D01*
X134317Y443841D01*
X134362Y443759D01*
X134410Y443679D01*
X134462Y443601D01*
X134517Y443524D01*
X134575Y443451D01*
X134635Y443379D01*
X134699Y443310D01*
X134765Y443244D01*
X134834Y443180D01*
X134906Y443120D01*
X134979Y443062D01*
X135056Y443007D01*
X135134Y442955D01*
X135214Y442907D01*
X135296Y442862D01*
X135380Y442820D01*
X135466Y442781D01*
X135552Y442746D01*
X135641Y442715D01*
X135730Y442687D01*
X135821Y442663D01*
X135912Y442642D01*
X136005Y442625D01*
X136097Y442612D01*
X136191Y442603D01*
X136284Y442597D01*
X136378Y442595D01*
X137154Y442595D01*
X150221Y442595D02*
X150221Y456565D01*
X157982Y442595D01*
X157982Y456565D01*
X164140Y451908D02*
X164140Y442595D01*
X163751Y455789D02*
X163751Y456565D01*
X164528Y456565D01*
X164528Y455789D01*
X163751Y455789D01*
X172049Y442595D02*
X175153Y442595D01*
X172049Y442595D02*
X171955Y442597D01*
X171862Y442603D01*
X171768Y442612D01*
X171676Y442625D01*
X171583Y442642D01*
X171492Y442663D01*
X171401Y442687D01*
X171312Y442715D01*
X171223Y442746D01*
X171137Y442781D01*
X171051Y442820D01*
X170967Y442862D01*
X170885Y442907D01*
X170805Y442955D01*
X170727Y443007D01*
X170650Y443062D01*
X170577Y443120D01*
X170505Y443180D01*
X170436Y443244D01*
X170370Y443310D01*
X170306Y443379D01*
X170246Y443451D01*
X170188Y443524D01*
X170133Y443601D01*
X170081Y443679D01*
X170033Y443759D01*
X169988Y443841D01*
X169946Y443925D01*
X169907Y444011D01*
X169872Y444097D01*
X169841Y444186D01*
X169813Y444275D01*
X169789Y444366D01*
X169768Y444457D01*
X169751Y444550D01*
X169738Y444642D01*
X169729Y444736D01*
X169723Y444829D01*
X169721Y444923D01*
X169721Y449580D01*
X169723Y449674D01*
X169729Y449767D01*
X169738Y449861D01*
X169751Y449953D01*
X169768Y450046D01*
X169789Y450137D01*
X169813Y450228D01*
X169841Y450317D01*
X169872Y450406D01*
X169907Y450492D01*
X169946Y450578D01*
X169988Y450662D01*
X170033Y450744D01*
X170081Y450824D01*
X170133Y450902D01*
X170188Y450979D01*
X170246Y451052D01*
X170306Y451124D01*
X170370Y451193D01*
X170436Y451259D01*
X170505Y451323D01*
X170577Y451383D01*
X170650Y451441D01*
X170727Y451496D01*
X170805Y451548D01*
X170885Y451596D01*
X170967Y451641D01*
X171051Y451683D01*
X171137Y451722D01*
X171223Y451757D01*
X171312Y451788D01*
X171401Y451816D01*
X171492Y451840D01*
X171583Y451861D01*
X171676Y451878D01*
X171768Y451891D01*
X171862Y451900D01*
X171955Y451906D01*
X172049Y451908D01*
X175153Y451908D01*
X180655Y456565D02*
X180655Y442595D01*
X180655Y451908D02*
X184536Y451908D01*
X184632Y451906D01*
X184728Y451900D01*
X184824Y451890D01*
X184919Y451876D01*
X185014Y451858D01*
X185107Y451837D01*
X185200Y451811D01*
X185292Y451782D01*
X185382Y451749D01*
X185471Y451712D01*
X185558Y451671D01*
X185644Y451627D01*
X185728Y451580D01*
X185809Y451529D01*
X185889Y451475D01*
X185966Y451417D01*
X186041Y451356D01*
X186113Y451293D01*
X186182Y451226D01*
X186249Y451157D01*
X186312Y451085D01*
X186373Y451010D01*
X186431Y450933D01*
X186485Y450853D01*
X186536Y450772D01*
X186583Y450688D01*
X186627Y450602D01*
X186668Y450515D01*
X186705Y450426D01*
X186738Y450336D01*
X186767Y450244D01*
X186793Y450152D01*
X186814Y450058D01*
X186832Y449963D01*
X186846Y449868D01*
X186856Y449772D01*
X186862Y449676D01*
X186864Y449580D01*
X186864Y442595D01*
X192975Y445699D02*
X192975Y448804D01*
X192977Y448915D01*
X192983Y449025D01*
X192993Y449136D01*
X193007Y449246D01*
X193024Y449355D01*
X193046Y449464D01*
X193071Y449572D01*
X193101Y449678D01*
X193134Y449784D01*
X193171Y449889D01*
X193211Y449992D01*
X193256Y450093D01*
X193303Y450193D01*
X193355Y450292D01*
X193410Y450388D01*
X193468Y450482D01*
X193529Y450574D01*
X193594Y450664D01*
X193662Y450752D01*
X193733Y450837D01*
X193807Y450919D01*
X193884Y450999D01*
X193964Y451076D01*
X194046Y451150D01*
X194131Y451221D01*
X194219Y451289D01*
X194309Y451354D01*
X194401Y451415D01*
X194495Y451473D01*
X194591Y451528D01*
X194690Y451580D01*
X194790Y451627D01*
X194891Y451672D01*
X194994Y451712D01*
X195099Y451749D01*
X195205Y451782D01*
X195311Y451812D01*
X195419Y451837D01*
X195528Y451859D01*
X195637Y451876D01*
X195747Y451890D01*
X195858Y451900D01*
X195968Y451906D01*
X196079Y451908D01*
X196190Y451906D01*
X196300Y451900D01*
X196411Y451890D01*
X196521Y451876D01*
X196630Y451859D01*
X196739Y451837D01*
X196847Y451812D01*
X196953Y451782D01*
X197059Y451749D01*
X197164Y451712D01*
X197267Y451672D01*
X197368Y451627D01*
X197468Y451580D01*
X197567Y451528D01*
X197663Y451473D01*
X197757Y451415D01*
X197849Y451354D01*
X197939Y451289D01*
X198027Y451221D01*
X198112Y451150D01*
X198194Y451076D01*
X198274Y450999D01*
X198351Y450919D01*
X198425Y450837D01*
X198496Y450752D01*
X198564Y450664D01*
X198629Y450574D01*
X198690Y450482D01*
X198748Y450388D01*
X198803Y450292D01*
X198855Y450193D01*
X198902Y450093D01*
X198947Y449992D01*
X198987Y449889D01*
X199024Y449784D01*
X199057Y449678D01*
X199087Y449572D01*
X199112Y449464D01*
X199134Y449355D01*
X199151Y449246D01*
X199165Y449136D01*
X199175Y449025D01*
X199181Y448915D01*
X199183Y448804D01*
X199184Y448804D02*
X199184Y445699D01*
X199183Y445699D02*
X199181Y445588D01*
X199175Y445478D01*
X199165Y445367D01*
X199151Y445257D01*
X199134Y445148D01*
X199112Y445039D01*
X199087Y444931D01*
X199057Y444825D01*
X199024Y444719D01*
X198987Y444614D01*
X198947Y444511D01*
X198902Y444410D01*
X198855Y444310D01*
X198803Y444211D01*
X198748Y444115D01*
X198690Y444021D01*
X198629Y443929D01*
X198564Y443839D01*
X198496Y443751D01*
X198425Y443666D01*
X198351Y443584D01*
X198274Y443504D01*
X198194Y443427D01*
X198112Y443353D01*
X198027Y443282D01*
X197939Y443214D01*
X197849Y443149D01*
X197757Y443088D01*
X197663Y443030D01*
X197567Y442975D01*
X197468Y442923D01*
X197368Y442876D01*
X197267Y442831D01*
X197164Y442791D01*
X197059Y442754D01*
X196953Y442721D01*
X196847Y442691D01*
X196739Y442666D01*
X196630Y442644D01*
X196521Y442627D01*
X196411Y442613D01*
X196300Y442603D01*
X196190Y442597D01*
X196079Y442595D01*
X195968Y442597D01*
X195858Y442603D01*
X195747Y442613D01*
X195637Y442627D01*
X195528Y442644D01*
X195419Y442666D01*
X195311Y442691D01*
X195205Y442721D01*
X195099Y442754D01*
X194994Y442791D01*
X194891Y442831D01*
X194790Y442876D01*
X194690Y442923D01*
X194591Y442975D01*
X194495Y443030D01*
X194401Y443088D01*
X194309Y443149D01*
X194219Y443214D01*
X194131Y443282D01*
X194046Y443353D01*
X193964Y443427D01*
X193884Y443504D01*
X193807Y443584D01*
X193733Y443666D01*
X193662Y443751D01*
X193594Y443839D01*
X193529Y443929D01*
X193468Y444021D01*
X193410Y444115D01*
X193355Y444211D01*
X193303Y444310D01*
X193256Y444410D01*
X193211Y444511D01*
X193171Y444614D01*
X193134Y444719D01*
X193101Y444825D01*
X193071Y444931D01*
X193046Y445039D01*
X193024Y445148D01*
X193007Y445257D01*
X192993Y445367D01*
X192983Y445478D01*
X192977Y445588D01*
X192975Y445699D01*
X205015Y444923D02*
X205015Y456565D01*
X205015Y444923D02*
X205017Y444829D01*
X205023Y444736D01*
X205032Y444642D01*
X205045Y444550D01*
X205062Y444457D01*
X205083Y444366D01*
X205107Y444275D01*
X205135Y444186D01*
X205166Y444097D01*
X205201Y444011D01*
X205240Y443925D01*
X205282Y443841D01*
X205327Y443759D01*
X205375Y443679D01*
X205427Y443601D01*
X205482Y443524D01*
X205540Y443451D01*
X205600Y443379D01*
X205664Y443310D01*
X205730Y443244D01*
X205799Y443180D01*
X205871Y443120D01*
X205944Y443062D01*
X206021Y443007D01*
X206099Y442955D01*
X206179Y442907D01*
X206261Y442862D01*
X206345Y442820D01*
X206431Y442781D01*
X206517Y442746D01*
X206606Y442715D01*
X206695Y442687D01*
X206786Y442663D01*
X206877Y442642D01*
X206970Y442625D01*
X207062Y442612D01*
X207156Y442603D01*
X207249Y442597D01*
X207343Y442595D01*
X213303Y448028D02*
X217183Y446476D01*
X213303Y448028D02*
X213221Y448063D01*
X213141Y448101D01*
X213063Y448143D01*
X212987Y448188D01*
X212913Y448236D01*
X212841Y448288D01*
X212771Y448343D01*
X212704Y448401D01*
X212639Y448461D01*
X212578Y448525D01*
X212519Y448591D01*
X212463Y448660D01*
X212410Y448731D01*
X212360Y448804D01*
X212314Y448880D01*
X212270Y448957D01*
X212231Y449036D01*
X212195Y449117D01*
X212162Y449200D01*
X212133Y449284D01*
X212108Y449369D01*
X212087Y449455D01*
X212069Y449542D01*
X212056Y449629D01*
X212046Y449717D01*
X212040Y449806D01*
X212038Y449894D01*
X212040Y449983D01*
X212046Y450071D01*
X212055Y450159D01*
X212069Y450247D01*
X212086Y450334D01*
X212107Y450420D01*
X212132Y450505D01*
X212161Y450589D01*
X212193Y450671D01*
X212229Y450752D01*
X212269Y450832D01*
X212312Y450909D01*
X212358Y450985D01*
X212408Y451058D01*
X212460Y451130D01*
X212516Y451198D01*
X212575Y451265D01*
X212637Y451328D01*
X212701Y451389D01*
X212768Y451447D01*
X212838Y451502D01*
X212910Y451554D01*
X212984Y451602D01*
X213060Y451648D01*
X213138Y451690D01*
X213218Y451728D01*
X213300Y451763D01*
X213383Y451794D01*
X213467Y451822D01*
X213552Y451845D01*
X213638Y451865D01*
X213726Y451882D01*
X213813Y451894D01*
X213902Y451903D01*
X213990Y451907D01*
X214079Y451908D01*
X214291Y451903D01*
X214502Y451892D01*
X214714Y451876D01*
X214924Y451855D01*
X215135Y451829D01*
X215344Y451798D01*
X215553Y451762D01*
X215761Y451722D01*
X215968Y451676D01*
X216174Y451625D01*
X216378Y451569D01*
X216581Y451508D01*
X216783Y451442D01*
X216983Y451372D01*
X217181Y451297D01*
X217377Y451217D01*
X217571Y451132D01*
X217183Y446475D02*
X217265Y446440D01*
X217345Y446402D01*
X217423Y446360D01*
X217499Y446315D01*
X217573Y446267D01*
X217645Y446215D01*
X217715Y446160D01*
X217782Y446102D01*
X217847Y446042D01*
X217908Y445978D01*
X217967Y445912D01*
X218023Y445843D01*
X218076Y445772D01*
X218126Y445699D01*
X218172Y445623D01*
X218216Y445546D01*
X218255Y445467D01*
X218291Y445386D01*
X218324Y445303D01*
X218353Y445219D01*
X218378Y445134D01*
X218399Y445048D01*
X218417Y444961D01*
X218430Y444874D01*
X218440Y444786D01*
X218446Y444697D01*
X218448Y444609D01*
X218446Y444520D01*
X218440Y444432D01*
X218431Y444344D01*
X218417Y444256D01*
X218400Y444169D01*
X218379Y444083D01*
X218354Y443998D01*
X218325Y443914D01*
X218293Y443832D01*
X218257Y443751D01*
X218217Y443671D01*
X218174Y443594D01*
X218128Y443518D01*
X218078Y443445D01*
X218026Y443373D01*
X217970Y443305D01*
X217911Y443238D01*
X217849Y443175D01*
X217785Y443114D01*
X217718Y443056D01*
X217648Y443001D01*
X217576Y442949D01*
X217502Y442901D01*
X217426Y442855D01*
X217348Y442813D01*
X217268Y442775D01*
X217186Y442740D01*
X217103Y442709D01*
X217019Y442681D01*
X216934Y442658D01*
X216848Y442638D01*
X216760Y442621D01*
X216673Y442609D01*
X216584Y442600D01*
X216496Y442596D01*
X216407Y442595D01*
X216407Y442594D02*
X216096Y442602D01*
X215785Y442618D01*
X215475Y442641D01*
X215165Y442671D01*
X214856Y442708D01*
X214547Y442753D01*
X214241Y442805D01*
X213935Y442865D01*
X213631Y442931D01*
X213328Y443005D01*
X213028Y443086D01*
X212729Y443174D01*
X212433Y443269D01*
X212138Y443370D01*
X95744Y419735D02*
X92639Y419735D01*
X92528Y419737D01*
X92418Y419743D01*
X92307Y419753D01*
X92197Y419767D01*
X92088Y419784D01*
X91979Y419806D01*
X91871Y419831D01*
X91765Y419861D01*
X91659Y419894D01*
X91554Y419931D01*
X91451Y419971D01*
X91350Y420016D01*
X91250Y420063D01*
X91151Y420115D01*
X91055Y420170D01*
X90961Y420228D01*
X90869Y420289D01*
X90779Y420354D01*
X90691Y420422D01*
X90606Y420493D01*
X90524Y420567D01*
X90444Y420644D01*
X90367Y420724D01*
X90293Y420806D01*
X90222Y420891D01*
X90154Y420979D01*
X90089Y421069D01*
X90028Y421161D01*
X89970Y421255D01*
X89915Y421351D01*
X89863Y421450D01*
X89816Y421550D01*
X89771Y421651D01*
X89731Y421754D01*
X89694Y421859D01*
X89661Y421965D01*
X89631Y422071D01*
X89606Y422179D01*
X89584Y422288D01*
X89567Y422397D01*
X89553Y422507D01*
X89543Y422618D01*
X89537Y422728D01*
X89535Y422839D01*
X89535Y430601D01*
X89537Y430712D01*
X89543Y430822D01*
X89553Y430933D01*
X89567Y431043D01*
X89584Y431152D01*
X89606Y431261D01*
X89631Y431369D01*
X89661Y431475D01*
X89694Y431581D01*
X89731Y431686D01*
X89771Y431789D01*
X89815Y431890D01*
X89863Y431990D01*
X89915Y432089D01*
X89970Y432185D01*
X90028Y432279D01*
X90089Y432371D01*
X90154Y432461D01*
X90222Y432549D01*
X90293Y432634D01*
X90367Y432716D01*
X90444Y432796D01*
X90524Y432873D01*
X90606Y432947D01*
X90691Y433018D01*
X90779Y433086D01*
X90869Y433151D01*
X90961Y433212D01*
X91055Y433270D01*
X91151Y433325D01*
X91250Y433377D01*
X91350Y433424D01*
X91451Y433469D01*
X91554Y433509D01*
X91659Y433546D01*
X91764Y433579D01*
X91871Y433609D01*
X91979Y433634D01*
X92088Y433656D01*
X92197Y433673D01*
X92307Y433687D01*
X92418Y433697D01*
X92528Y433703D01*
X92639Y433705D01*
X95744Y433705D01*
X100846Y425944D02*
X100846Y422839D01*
X100846Y425944D02*
X100848Y426055D01*
X100854Y426165D01*
X100864Y426276D01*
X100878Y426386D01*
X100895Y426495D01*
X100917Y426604D01*
X100942Y426712D01*
X100972Y426818D01*
X101005Y426924D01*
X101042Y427029D01*
X101082Y427132D01*
X101127Y427233D01*
X101174Y427333D01*
X101226Y427432D01*
X101281Y427528D01*
X101339Y427622D01*
X101400Y427714D01*
X101465Y427804D01*
X101533Y427892D01*
X101604Y427977D01*
X101678Y428059D01*
X101755Y428139D01*
X101835Y428216D01*
X101917Y428290D01*
X102002Y428361D01*
X102090Y428429D01*
X102180Y428494D01*
X102272Y428555D01*
X102366Y428613D01*
X102462Y428668D01*
X102561Y428720D01*
X102661Y428767D01*
X102762Y428812D01*
X102865Y428852D01*
X102970Y428889D01*
X103076Y428922D01*
X103182Y428952D01*
X103290Y428977D01*
X103399Y428999D01*
X103508Y429016D01*
X103618Y429030D01*
X103729Y429040D01*
X103839Y429046D01*
X103950Y429048D01*
X104061Y429046D01*
X104171Y429040D01*
X104282Y429030D01*
X104392Y429016D01*
X104501Y428999D01*
X104610Y428977D01*
X104718Y428952D01*
X104824Y428922D01*
X104930Y428889D01*
X105035Y428852D01*
X105138Y428812D01*
X105239Y428767D01*
X105339Y428720D01*
X105438Y428668D01*
X105534Y428613D01*
X105628Y428555D01*
X105720Y428494D01*
X105810Y428429D01*
X105898Y428361D01*
X105983Y428290D01*
X106065Y428216D01*
X106145Y428139D01*
X106222Y428059D01*
X106296Y427977D01*
X106367Y427892D01*
X106435Y427804D01*
X106500Y427714D01*
X106561Y427622D01*
X106619Y427528D01*
X106674Y427432D01*
X106726Y427333D01*
X106773Y427233D01*
X106818Y427132D01*
X106858Y427029D01*
X106895Y426924D01*
X106928Y426818D01*
X106958Y426712D01*
X106983Y426604D01*
X107005Y426495D01*
X107022Y426386D01*
X107036Y426276D01*
X107046Y426165D01*
X107052Y426055D01*
X107054Y425944D01*
X107055Y425944D02*
X107055Y422839D01*
X107054Y422839D02*
X107052Y422728D01*
X107046Y422618D01*
X107036Y422507D01*
X107022Y422397D01*
X107005Y422288D01*
X106983Y422179D01*
X106958Y422071D01*
X106928Y421965D01*
X106895Y421859D01*
X106858Y421754D01*
X106818Y421651D01*
X106773Y421550D01*
X106726Y421450D01*
X106674Y421351D01*
X106619Y421255D01*
X106561Y421161D01*
X106500Y421069D01*
X106435Y420979D01*
X106367Y420891D01*
X106296Y420806D01*
X106222Y420724D01*
X106145Y420644D01*
X106065Y420567D01*
X105983Y420493D01*
X105898Y420422D01*
X105810Y420354D01*
X105720Y420289D01*
X105628Y420228D01*
X105534Y420170D01*
X105438Y420115D01*
X105339Y420063D01*
X105239Y420016D01*
X105138Y419971D01*
X105035Y419931D01*
X104930Y419894D01*
X104824Y419861D01*
X104718Y419831D01*
X104610Y419806D01*
X104501Y419784D01*
X104392Y419767D01*
X104282Y419753D01*
X104171Y419743D01*
X104061Y419737D01*
X103950Y419735D01*
X103839Y419737D01*
X103729Y419743D01*
X103618Y419753D01*
X103508Y419767D01*
X103399Y419784D01*
X103290Y419806D01*
X103182Y419831D01*
X103076Y419861D01*
X102970Y419894D01*
X102865Y419931D01*
X102762Y419971D01*
X102661Y420016D01*
X102561Y420063D01*
X102462Y420115D01*
X102366Y420170D01*
X102272Y420228D01*
X102180Y420289D01*
X102090Y420354D01*
X102002Y420422D01*
X101917Y420493D01*
X101835Y420567D01*
X101755Y420644D01*
X101678Y420724D01*
X101604Y420806D01*
X101533Y420891D01*
X101465Y420979D01*
X101400Y421069D01*
X101339Y421161D01*
X101281Y421255D01*
X101226Y421351D01*
X101174Y421450D01*
X101127Y421550D01*
X101082Y421651D01*
X101042Y421754D01*
X101005Y421859D01*
X100972Y421965D01*
X100942Y422071D01*
X100917Y422179D01*
X100895Y422288D01*
X100878Y422397D01*
X100864Y422507D01*
X100854Y422618D01*
X100848Y422728D01*
X100846Y422839D01*
X113237Y429048D02*
X113237Y415078D01*
X113237Y429048D02*
X117117Y429048D01*
X117213Y429046D01*
X117309Y429040D01*
X117405Y429030D01*
X117500Y429016D01*
X117595Y428998D01*
X117688Y428977D01*
X117781Y428951D01*
X117873Y428922D01*
X117963Y428889D01*
X118052Y428852D01*
X118139Y428811D01*
X118225Y428767D01*
X118309Y428720D01*
X118390Y428669D01*
X118470Y428615D01*
X118547Y428557D01*
X118622Y428496D01*
X118694Y428433D01*
X118763Y428366D01*
X118830Y428297D01*
X118893Y428225D01*
X118954Y428150D01*
X119012Y428073D01*
X119066Y427993D01*
X119117Y427912D01*
X119164Y427828D01*
X119208Y427742D01*
X119249Y427655D01*
X119286Y427566D01*
X119319Y427476D01*
X119348Y427384D01*
X119374Y427292D01*
X119395Y427198D01*
X119413Y427103D01*
X119427Y427008D01*
X119437Y426912D01*
X119443Y426816D01*
X119445Y426720D01*
X119445Y422063D01*
X119443Y421969D01*
X119437Y421876D01*
X119428Y421782D01*
X119415Y421690D01*
X119398Y421597D01*
X119377Y421506D01*
X119353Y421415D01*
X119325Y421326D01*
X119294Y421237D01*
X119259Y421151D01*
X119220Y421065D01*
X119178Y420981D01*
X119133Y420899D01*
X119085Y420819D01*
X119033Y420741D01*
X118978Y420664D01*
X118920Y420591D01*
X118860Y420519D01*
X118796Y420450D01*
X118730Y420384D01*
X118661Y420320D01*
X118589Y420260D01*
X118516Y420202D01*
X118439Y420147D01*
X118361Y420095D01*
X118281Y420047D01*
X118199Y420002D01*
X118115Y419960D01*
X118029Y419921D01*
X117943Y419886D01*
X117854Y419855D01*
X117765Y419827D01*
X117674Y419803D01*
X117583Y419782D01*
X117490Y419765D01*
X117398Y419752D01*
X117304Y419743D01*
X117211Y419737D01*
X117117Y419735D01*
X113237Y419735D01*
X124572Y415078D02*
X126125Y415078D01*
X130781Y429048D01*
X124572Y429048D02*
X127677Y419735D01*
X136516Y419735D02*
X136516Y429048D01*
X141173Y429048D01*
X141173Y427496D01*
X145472Y429048D02*
X145472Y419735D01*
X145084Y432929D02*
X145084Y433705D01*
X145860Y433705D01*
X145860Y432929D01*
X145084Y432929D01*
X153294Y419735D02*
X157175Y419735D01*
X153294Y419735D02*
X153200Y419737D01*
X153107Y419743D01*
X153013Y419752D01*
X152921Y419765D01*
X152828Y419782D01*
X152737Y419803D01*
X152646Y419827D01*
X152557Y419855D01*
X152468Y419886D01*
X152382Y419921D01*
X152296Y419960D01*
X152212Y420002D01*
X152130Y420047D01*
X152050Y420095D01*
X151972Y420147D01*
X151895Y420202D01*
X151822Y420260D01*
X151750Y420320D01*
X151681Y420384D01*
X151615Y420450D01*
X151551Y420519D01*
X151491Y420591D01*
X151433Y420664D01*
X151378Y420741D01*
X151326Y420819D01*
X151278Y420899D01*
X151233Y420981D01*
X151191Y421065D01*
X151152Y421151D01*
X151117Y421237D01*
X151086Y421326D01*
X151058Y421415D01*
X151034Y421506D01*
X151013Y421597D01*
X150996Y421690D01*
X150983Y421782D01*
X150974Y421876D01*
X150968Y421969D01*
X150966Y422063D01*
X150966Y426720D01*
X150968Y426814D01*
X150974Y426907D01*
X150983Y427001D01*
X150996Y427093D01*
X151013Y427186D01*
X151034Y427277D01*
X151058Y427368D01*
X151086Y427457D01*
X151117Y427546D01*
X151152Y427632D01*
X151191Y427718D01*
X151233Y427802D01*
X151278Y427884D01*
X151326Y427964D01*
X151378Y428042D01*
X151433Y428119D01*
X151491Y428192D01*
X151551Y428264D01*
X151615Y428333D01*
X151681Y428399D01*
X151750Y428463D01*
X151822Y428523D01*
X151895Y428581D01*
X151972Y428636D01*
X152050Y428688D01*
X152130Y428736D01*
X152212Y428781D01*
X152296Y428823D01*
X152382Y428862D01*
X152468Y428897D01*
X152557Y428928D01*
X152646Y428956D01*
X152737Y428980D01*
X152828Y429001D01*
X152921Y429018D01*
X153013Y429031D01*
X153107Y429040D01*
X153200Y429046D01*
X153294Y429048D01*
X157175Y429048D01*
X157175Y417407D01*
X157174Y417407D02*
X157172Y417311D01*
X157166Y417215D01*
X157156Y417119D01*
X157142Y417024D01*
X157124Y416929D01*
X157103Y416836D01*
X157077Y416743D01*
X157048Y416651D01*
X157015Y416561D01*
X156978Y416472D01*
X156937Y416385D01*
X156893Y416299D01*
X156846Y416215D01*
X156795Y416134D01*
X156741Y416054D01*
X156683Y415977D01*
X156622Y415902D01*
X156559Y415830D01*
X156492Y415761D01*
X156423Y415694D01*
X156351Y415631D01*
X156276Y415570D01*
X156199Y415512D01*
X156119Y415458D01*
X156038Y415407D01*
X155954Y415360D01*
X155868Y415316D01*
X155781Y415275D01*
X155692Y415238D01*
X155602Y415205D01*
X155510Y415176D01*
X155418Y415150D01*
X155324Y415129D01*
X155229Y415111D01*
X155134Y415097D01*
X155038Y415087D01*
X154942Y415081D01*
X154846Y415079D01*
X154846Y415078D02*
X151742Y415078D01*
X163813Y419735D02*
X163813Y433705D01*
X163813Y429048D02*
X167693Y429048D01*
X167789Y429046D01*
X167885Y429040D01*
X167981Y429030D01*
X168076Y429016D01*
X168171Y428998D01*
X168264Y428977D01*
X168357Y428951D01*
X168449Y428922D01*
X168539Y428889D01*
X168628Y428852D01*
X168715Y428811D01*
X168801Y428767D01*
X168885Y428720D01*
X168966Y428669D01*
X169046Y428615D01*
X169123Y428557D01*
X169198Y428496D01*
X169270Y428433D01*
X169339Y428366D01*
X169406Y428297D01*
X169469Y428225D01*
X169530Y428150D01*
X169588Y428073D01*
X169642Y427993D01*
X169693Y427912D01*
X169740Y427828D01*
X169784Y427742D01*
X169825Y427655D01*
X169862Y427566D01*
X169895Y427476D01*
X169924Y427384D01*
X169950Y427292D01*
X169971Y427198D01*
X169989Y427103D01*
X170003Y427008D01*
X170013Y426912D01*
X170019Y426816D01*
X170021Y426720D01*
X170022Y426720D02*
X170022Y419735D01*
X174972Y429048D02*
X179628Y429048D01*
X176524Y433705D02*
X176524Y422063D01*
X176526Y421969D01*
X176532Y421876D01*
X176541Y421782D01*
X176554Y421690D01*
X176571Y421597D01*
X176592Y421506D01*
X176616Y421415D01*
X176644Y421326D01*
X176675Y421237D01*
X176710Y421151D01*
X176749Y421065D01*
X176791Y420981D01*
X176836Y420899D01*
X176884Y420819D01*
X176936Y420741D01*
X176991Y420664D01*
X177049Y420591D01*
X177109Y420519D01*
X177173Y420450D01*
X177239Y420384D01*
X177308Y420320D01*
X177380Y420260D01*
X177453Y420202D01*
X177530Y420147D01*
X177608Y420095D01*
X177688Y420047D01*
X177770Y420002D01*
X177854Y419960D01*
X177940Y419921D01*
X178026Y419886D01*
X178115Y419855D01*
X178204Y419827D01*
X178295Y419803D01*
X178386Y419782D01*
X178479Y419765D01*
X178571Y419752D01*
X178665Y419743D01*
X178758Y419737D01*
X178852Y419735D01*
X179628Y419735D01*
X196508Y433706D02*
X196625Y433704D01*
X196741Y433698D01*
X196858Y433688D01*
X196974Y433675D01*
X197089Y433657D01*
X197204Y433636D01*
X197318Y433611D01*
X197431Y433582D01*
X197543Y433549D01*
X197654Y433513D01*
X197763Y433473D01*
X197872Y433429D01*
X197978Y433381D01*
X198083Y433331D01*
X198187Y433276D01*
X198288Y433218D01*
X198388Y433157D01*
X198485Y433093D01*
X198580Y433025D01*
X198673Y432954D01*
X198763Y432880D01*
X198851Y432804D01*
X198936Y432724D01*
X199019Y432641D01*
X199099Y432556D01*
X199175Y432468D01*
X199249Y432378D01*
X199320Y432285D01*
X199388Y432190D01*
X199452Y432093D01*
X199513Y431993D01*
X199571Y431892D01*
X199626Y431788D01*
X199676Y431683D01*
X199724Y431577D01*
X199768Y431468D01*
X199808Y431359D01*
X199844Y431248D01*
X199877Y431136D01*
X199906Y431023D01*
X199931Y430909D01*
X199952Y430794D01*
X199970Y430679D01*
X199983Y430563D01*
X199993Y430446D01*
X199999Y430330D01*
X200001Y430213D01*
X196508Y433705D02*
X196377Y433703D01*
X196246Y433697D01*
X196115Y433688D01*
X195984Y433674D01*
X195854Y433657D01*
X195725Y433636D01*
X195596Y433611D01*
X195468Y433583D01*
X195341Y433550D01*
X195214Y433514D01*
X195089Y433475D01*
X194965Y433431D01*
X194843Y433385D01*
X194722Y433334D01*
X194602Y433280D01*
X194484Y433223D01*
X194368Y433162D01*
X194253Y433097D01*
X194141Y433030D01*
X194031Y432959D01*
X193922Y432885D01*
X193816Y432808D01*
X193712Y432728D01*
X193611Y432644D01*
X193512Y432558D01*
X193415Y432469D01*
X193322Y432377D01*
X193231Y432283D01*
X193143Y432186D01*
X193057Y432086D01*
X192975Y431984D01*
X192895Y431879D01*
X192819Y431772D01*
X192746Y431664D01*
X192676Y431552D01*
X192609Y431439D01*
X192546Y431324D01*
X192486Y431208D01*
X192430Y431089D01*
X192377Y430969D01*
X192327Y430848D01*
X192282Y430725D01*
X192239Y430600D01*
X198836Y427497D02*
X198923Y427582D01*
X199006Y427670D01*
X199087Y427761D01*
X199165Y427854D01*
X199240Y427949D01*
X199312Y428048D01*
X199380Y428148D01*
X199446Y428250D01*
X199507Y428355D01*
X199566Y428461D01*
X199621Y428570D01*
X199672Y428680D01*
X199720Y428791D01*
X199764Y428905D01*
X199805Y429019D01*
X199842Y429135D01*
X199875Y429252D01*
X199904Y429370D01*
X199929Y429489D01*
X199951Y429608D01*
X199969Y429728D01*
X199982Y429849D01*
X199992Y429970D01*
X199998Y430092D01*
X200000Y430213D01*
X198836Y427496D02*
X192239Y419735D01*
X200000Y419735D01*
X205928Y426720D02*
X205931Y426995D01*
X205941Y427269D01*
X205958Y427544D01*
X205980Y427818D01*
X206010Y428091D01*
X206046Y428363D01*
X206088Y428635D01*
X206137Y428905D01*
X206193Y429175D01*
X206255Y429442D01*
X206323Y429709D01*
X206397Y429973D01*
X206478Y430236D01*
X206565Y430496D01*
X206658Y430755D01*
X206758Y431011D01*
X206863Y431265D01*
X206975Y431516D01*
X207092Y431765D01*
X207091Y431764D02*
X207127Y431863D01*
X207166Y431960D01*
X207209Y432056D01*
X207256Y432150D01*
X207305Y432242D01*
X207358Y432332D01*
X207415Y432421D01*
X207474Y432507D01*
X207537Y432591D01*
X207602Y432673D01*
X207671Y432752D01*
X207742Y432828D01*
X207817Y432902D01*
X207893Y432974D01*
X207973Y433042D01*
X208055Y433108D01*
X208139Y433170D01*
X208225Y433229D01*
X208314Y433286D01*
X208404Y433338D01*
X208496Y433388D01*
X208590Y433434D01*
X208686Y433477D01*
X208783Y433516D01*
X208882Y433552D01*
X208982Y433584D01*
X209082Y433612D01*
X209184Y433636D01*
X209287Y433657D01*
X209390Y433674D01*
X209494Y433688D01*
X209599Y433697D01*
X209703Y433703D01*
X209808Y433705D01*
X209913Y433703D01*
X210017Y433697D01*
X210122Y433688D01*
X210226Y433674D01*
X210329Y433657D01*
X210432Y433636D01*
X210534Y433612D01*
X210634Y433584D01*
X210734Y433552D01*
X210833Y433516D01*
X210930Y433477D01*
X211026Y433434D01*
X211120Y433388D01*
X211212Y433338D01*
X211302Y433286D01*
X211391Y433229D01*
X211477Y433170D01*
X211561Y433108D01*
X211643Y433042D01*
X211723Y432974D01*
X211799Y432902D01*
X211874Y432828D01*
X211945Y432752D01*
X212014Y432673D01*
X212079Y432591D01*
X212142Y432507D01*
X212201Y432421D01*
X212258Y432332D01*
X212311Y432242D01*
X212360Y432150D01*
X212407Y432056D01*
X212450Y431960D01*
X212489Y431863D01*
X212525Y431764D01*
X212524Y431765D02*
X212641Y431516D01*
X212753Y431265D01*
X212858Y431011D01*
X212958Y430755D01*
X213051Y430496D01*
X213138Y430236D01*
X213219Y429973D01*
X213293Y429709D01*
X213361Y429442D01*
X213423Y429174D01*
X213479Y428905D01*
X213528Y428635D01*
X213570Y428363D01*
X213606Y428091D01*
X213636Y427818D01*
X213658Y427544D01*
X213675Y427269D01*
X213685Y426995D01*
X213688Y426720D01*
X205927Y426720D02*
X205930Y426445D01*
X205940Y426171D01*
X205957Y425896D01*
X205979Y425622D01*
X206009Y425349D01*
X206045Y425077D01*
X206087Y424805D01*
X206136Y424535D01*
X206192Y424265D01*
X206254Y423998D01*
X206322Y423731D01*
X206396Y423467D01*
X206477Y423204D01*
X206564Y422943D01*
X206657Y422685D01*
X206757Y422429D01*
X206862Y422175D01*
X206974Y421924D01*
X207091Y421675D01*
X207091Y421676D02*
X207127Y421577D01*
X207166Y421480D01*
X207209Y421384D01*
X207256Y421290D01*
X207305Y421198D01*
X207358Y421108D01*
X207415Y421019D01*
X207474Y420933D01*
X207537Y420849D01*
X207602Y420767D01*
X207671Y420688D01*
X207742Y420612D01*
X207817Y420538D01*
X207893Y420466D01*
X207973Y420398D01*
X208055Y420332D01*
X208139Y420270D01*
X208225Y420211D01*
X208314Y420154D01*
X208404Y420102D01*
X208496Y420052D01*
X208590Y420006D01*
X208686Y419963D01*
X208783Y419924D01*
X208882Y419888D01*
X208982Y419856D01*
X209082Y419828D01*
X209184Y419804D01*
X209287Y419783D01*
X209390Y419766D01*
X209494Y419752D01*
X209599Y419743D01*
X209703Y419737D01*
X209808Y419735D01*
X212525Y421675D02*
X212642Y421924D01*
X212754Y422175D01*
X212859Y422429D01*
X212959Y422685D01*
X213052Y422943D01*
X213139Y423204D01*
X213220Y423467D01*
X213294Y423731D01*
X213362Y423998D01*
X213424Y424265D01*
X213480Y424535D01*
X213529Y424805D01*
X213571Y425077D01*
X213607Y425349D01*
X213637Y425622D01*
X213659Y425896D01*
X213676Y426171D01*
X213686Y426445D01*
X213689Y426720D01*
X212525Y421676D02*
X212489Y421577D01*
X212450Y421480D01*
X212407Y421384D01*
X212360Y421290D01*
X212311Y421198D01*
X212258Y421108D01*
X212201Y421019D01*
X212142Y420933D01*
X212079Y420849D01*
X212014Y420767D01*
X211945Y420688D01*
X211874Y420612D01*
X211799Y420538D01*
X211723Y420466D01*
X211643Y420398D01*
X211561Y420332D01*
X211477Y420270D01*
X211391Y420211D01*
X211302Y420154D01*
X211212Y420102D01*
X211120Y420052D01*
X211026Y420006D01*
X210930Y419963D01*
X210833Y419924D01*
X210734Y419888D01*
X210634Y419856D01*
X210534Y419828D01*
X210432Y419804D01*
X210329Y419783D01*
X210226Y419766D01*
X210122Y419752D01*
X210017Y419743D01*
X209913Y419737D01*
X209808Y419735D01*
X206704Y422839D02*
X212912Y430601D01*
X219616Y430601D02*
X223497Y433705D01*
X223497Y419735D01*
X227377Y419735D02*
X219616Y419735D01*
X236409Y425944D02*
X241066Y425944D01*
X236409Y425944D02*
X236298Y425946D01*
X236188Y425952D01*
X236077Y425962D01*
X235967Y425976D01*
X235858Y425993D01*
X235749Y426015D01*
X235641Y426040D01*
X235535Y426070D01*
X235429Y426103D01*
X235324Y426140D01*
X235221Y426180D01*
X235120Y426225D01*
X235020Y426272D01*
X234921Y426324D01*
X234825Y426379D01*
X234731Y426437D01*
X234639Y426498D01*
X234549Y426563D01*
X234461Y426631D01*
X234376Y426702D01*
X234294Y426776D01*
X234214Y426853D01*
X234137Y426933D01*
X234063Y427015D01*
X233992Y427100D01*
X233924Y427188D01*
X233859Y427278D01*
X233798Y427370D01*
X233740Y427464D01*
X233685Y427560D01*
X233633Y427659D01*
X233586Y427759D01*
X233541Y427860D01*
X233501Y427963D01*
X233464Y428068D01*
X233431Y428174D01*
X233401Y428280D01*
X233376Y428388D01*
X233354Y428497D01*
X233337Y428606D01*
X233323Y428716D01*
X233313Y428827D01*
X233307Y428937D01*
X233305Y429048D01*
X233305Y429824D01*
X233304Y429824D02*
X233306Y429947D01*
X233312Y430070D01*
X233322Y430193D01*
X233335Y430315D01*
X233353Y430437D01*
X233374Y430558D01*
X233399Y430679D01*
X233428Y430799D01*
X233461Y430917D01*
X233498Y431035D01*
X233538Y431151D01*
X233582Y431266D01*
X233630Y431380D01*
X233681Y431492D01*
X233735Y431602D01*
X233794Y431711D01*
X233855Y431818D01*
X233920Y431922D01*
X233988Y432025D01*
X234060Y432125D01*
X234134Y432223D01*
X234212Y432319D01*
X234293Y432412D01*
X234376Y432502D01*
X234463Y432590D01*
X234552Y432675D01*
X234643Y432757D01*
X234738Y432836D01*
X234835Y432912D01*
X234934Y432985D01*
X235035Y433055D01*
X235139Y433122D01*
X235245Y433185D01*
X235352Y433245D01*
X235462Y433301D01*
X235573Y433354D01*
X235686Y433404D01*
X235800Y433449D01*
X235916Y433492D01*
X236033Y433530D01*
X236151Y433565D01*
X236270Y433596D01*
X236390Y433623D01*
X236511Y433646D01*
X236633Y433665D01*
X236755Y433681D01*
X236877Y433693D01*
X237000Y433701D01*
X237123Y433705D01*
X237247Y433705D01*
X237370Y433701D01*
X237493Y433693D01*
X237615Y433681D01*
X237737Y433665D01*
X237859Y433646D01*
X237980Y433623D01*
X238100Y433596D01*
X238219Y433565D01*
X238337Y433530D01*
X238454Y433492D01*
X238570Y433449D01*
X238684Y433404D01*
X238797Y433354D01*
X238908Y433301D01*
X239018Y433245D01*
X239126Y433185D01*
X239231Y433122D01*
X239335Y433055D01*
X239436Y432985D01*
X239535Y432912D01*
X239632Y432836D01*
X239727Y432757D01*
X239818Y432675D01*
X239907Y432590D01*
X239994Y432502D01*
X240077Y432412D01*
X240158Y432319D01*
X240236Y432223D01*
X240310Y432125D01*
X240382Y432025D01*
X240450Y431922D01*
X240515Y431818D01*
X240576Y431711D01*
X240635Y431602D01*
X240689Y431492D01*
X240740Y431380D01*
X240788Y431266D01*
X240832Y431151D01*
X240872Y431035D01*
X240909Y430917D01*
X240942Y430799D01*
X240971Y430679D01*
X240996Y430558D01*
X241017Y430437D01*
X241035Y430315D01*
X241048Y430193D01*
X241058Y430070D01*
X241064Y429947D01*
X241066Y429824D01*
X241066Y425944D01*
X241064Y425789D01*
X241058Y425635D01*
X241049Y425480D01*
X241035Y425326D01*
X241018Y425172D01*
X240997Y425019D01*
X240972Y424866D01*
X240943Y424714D01*
X240910Y424562D01*
X240874Y424412D01*
X240834Y424262D01*
X240790Y424114D01*
X240743Y423967D01*
X240692Y423820D01*
X240637Y423676D01*
X240578Y423532D01*
X240517Y423390D01*
X240451Y423250D01*
X240382Y423111D01*
X240310Y422975D01*
X240234Y422840D01*
X240155Y422706D01*
X240073Y422575D01*
X239987Y422446D01*
X239898Y422320D01*
X239806Y422195D01*
X239711Y422073D01*
X239613Y421953D01*
X239512Y421836D01*
X239409Y421721D01*
X239302Y421609D01*
X239192Y421499D01*
X239080Y421392D01*
X238965Y421289D01*
X238848Y421188D01*
X238728Y421090D01*
X238606Y420995D01*
X238481Y420903D01*
X238355Y420814D01*
X238226Y420728D01*
X238095Y420646D01*
X237962Y420567D01*
X237826Y420491D01*
X237690Y420419D01*
X237551Y420350D01*
X237411Y420284D01*
X237269Y420223D01*
X237125Y420164D01*
X236981Y420109D01*
X236834Y420058D01*
X236687Y420011D01*
X236539Y419967D01*
X236389Y419927D01*
X236239Y419891D01*
X236087Y419858D01*
X235935Y419829D01*
X235782Y419804D01*
X235629Y419783D01*
X235475Y419766D01*
X235321Y419752D01*
X235166Y419743D01*
X235012Y419737D01*
X234857Y419735D01*
D11*
X267589Y478988D02*
X281644Y478988D01*
X274616Y486015D02*
X274616Y471960D01*
X407289Y478988D02*
X421344Y478988D01*
X414316Y486015D02*
X414316Y471960D01*
D10*
X546735Y481401D02*
X550616Y484505D01*
X550616Y470535D01*
X554496Y470535D02*
X546735Y470535D01*
X560560Y475968D02*
X569873Y475968D01*
X575937Y470535D02*
X580594Y470535D01*
X580705Y470537D01*
X580815Y470543D01*
X580926Y470553D01*
X581036Y470567D01*
X581145Y470584D01*
X581254Y470606D01*
X581362Y470631D01*
X581468Y470661D01*
X581574Y470694D01*
X581679Y470731D01*
X581782Y470771D01*
X581883Y470816D01*
X581983Y470863D01*
X582082Y470915D01*
X582178Y470970D01*
X582272Y471028D01*
X582364Y471089D01*
X582454Y471154D01*
X582542Y471222D01*
X582627Y471293D01*
X582709Y471367D01*
X582789Y471444D01*
X582866Y471524D01*
X582940Y471606D01*
X583011Y471691D01*
X583079Y471779D01*
X583144Y471869D01*
X583205Y471961D01*
X583263Y472055D01*
X583318Y472151D01*
X583370Y472250D01*
X583417Y472350D01*
X583462Y472451D01*
X583502Y472554D01*
X583539Y472659D01*
X583572Y472765D01*
X583602Y472871D01*
X583627Y472979D01*
X583649Y473088D01*
X583666Y473197D01*
X583680Y473307D01*
X583690Y473418D01*
X583696Y473528D01*
X583698Y473639D01*
X583698Y475192D01*
X583696Y475303D01*
X583690Y475413D01*
X583680Y475524D01*
X583666Y475634D01*
X583649Y475743D01*
X583627Y475852D01*
X583602Y475960D01*
X583572Y476066D01*
X583539Y476172D01*
X583502Y476277D01*
X583462Y476380D01*
X583417Y476481D01*
X583370Y476581D01*
X583318Y476680D01*
X583263Y476776D01*
X583205Y476870D01*
X583144Y476962D01*
X583079Y477052D01*
X583011Y477140D01*
X582940Y477225D01*
X582866Y477307D01*
X582789Y477387D01*
X582709Y477464D01*
X582627Y477538D01*
X582542Y477609D01*
X582454Y477677D01*
X582364Y477742D01*
X582272Y477803D01*
X582178Y477861D01*
X582082Y477916D01*
X581983Y477968D01*
X581883Y478015D01*
X581782Y478060D01*
X581679Y478100D01*
X581574Y478137D01*
X581468Y478170D01*
X581362Y478200D01*
X581254Y478225D01*
X581145Y478247D01*
X581036Y478264D01*
X580926Y478278D01*
X580815Y478288D01*
X580705Y478294D01*
X580594Y478296D01*
X575937Y478296D01*
X575937Y484505D01*
X583698Y484505D01*
X589762Y475968D02*
X599076Y475968D01*
X609408Y484506D02*
X609525Y484504D01*
X609641Y484498D01*
X609758Y484488D01*
X609874Y484475D01*
X609989Y484457D01*
X610104Y484436D01*
X610218Y484411D01*
X610331Y484382D01*
X610443Y484349D01*
X610554Y484313D01*
X610663Y484273D01*
X610772Y484229D01*
X610878Y484181D01*
X610983Y484131D01*
X611087Y484076D01*
X611188Y484018D01*
X611288Y483957D01*
X611385Y483893D01*
X611480Y483825D01*
X611573Y483754D01*
X611663Y483680D01*
X611751Y483604D01*
X611836Y483524D01*
X611919Y483441D01*
X611999Y483356D01*
X612075Y483268D01*
X612149Y483178D01*
X612220Y483085D01*
X612288Y482990D01*
X612352Y482893D01*
X612413Y482793D01*
X612471Y482692D01*
X612526Y482588D01*
X612576Y482483D01*
X612624Y482377D01*
X612668Y482268D01*
X612708Y482159D01*
X612744Y482048D01*
X612777Y481936D01*
X612806Y481823D01*
X612831Y481709D01*
X612852Y481594D01*
X612870Y481479D01*
X612883Y481363D01*
X612893Y481246D01*
X612899Y481130D01*
X612901Y481013D01*
X609408Y484505D02*
X609277Y484503D01*
X609146Y484497D01*
X609015Y484488D01*
X608884Y484474D01*
X608754Y484457D01*
X608625Y484436D01*
X608496Y484411D01*
X608368Y484383D01*
X608241Y484350D01*
X608114Y484314D01*
X607989Y484275D01*
X607865Y484231D01*
X607743Y484185D01*
X607622Y484134D01*
X607502Y484080D01*
X607384Y484023D01*
X607268Y483962D01*
X607153Y483897D01*
X607041Y483830D01*
X606931Y483759D01*
X606822Y483685D01*
X606716Y483608D01*
X606612Y483528D01*
X606511Y483444D01*
X606412Y483358D01*
X606315Y483269D01*
X606222Y483177D01*
X606131Y483083D01*
X606043Y482986D01*
X605957Y482886D01*
X605875Y482784D01*
X605795Y482679D01*
X605719Y482572D01*
X605646Y482464D01*
X605576Y482352D01*
X605509Y482239D01*
X605446Y482124D01*
X605386Y482008D01*
X605330Y481889D01*
X605277Y481769D01*
X605227Y481648D01*
X605182Y481525D01*
X605139Y481400D01*
X611736Y478297D02*
X611823Y478382D01*
X611906Y478470D01*
X611987Y478561D01*
X612065Y478654D01*
X612140Y478749D01*
X612212Y478848D01*
X612280Y478948D01*
X612346Y479050D01*
X612407Y479155D01*
X612466Y479261D01*
X612521Y479370D01*
X612572Y479480D01*
X612620Y479591D01*
X612664Y479705D01*
X612705Y479819D01*
X612742Y479935D01*
X612775Y480052D01*
X612804Y480170D01*
X612829Y480289D01*
X612851Y480408D01*
X612869Y480528D01*
X612882Y480649D01*
X612892Y480770D01*
X612898Y480892D01*
X612900Y481013D01*
X611736Y478296D02*
X605139Y470535D01*
X612901Y470535D01*
X618828Y477520D02*
X618831Y477795D01*
X618841Y478069D01*
X618858Y478344D01*
X618880Y478618D01*
X618910Y478891D01*
X618946Y479163D01*
X618988Y479435D01*
X619037Y479705D01*
X619093Y479975D01*
X619155Y480242D01*
X619223Y480509D01*
X619297Y480773D01*
X619378Y481036D01*
X619465Y481296D01*
X619558Y481555D01*
X619658Y481811D01*
X619763Y482065D01*
X619875Y482316D01*
X619992Y482565D01*
X619992Y482564D02*
X620028Y482663D01*
X620067Y482760D01*
X620110Y482856D01*
X620157Y482950D01*
X620206Y483042D01*
X620259Y483132D01*
X620316Y483221D01*
X620375Y483307D01*
X620438Y483391D01*
X620503Y483473D01*
X620572Y483552D01*
X620643Y483628D01*
X620718Y483702D01*
X620794Y483774D01*
X620874Y483842D01*
X620956Y483908D01*
X621040Y483970D01*
X621126Y484029D01*
X621215Y484086D01*
X621305Y484138D01*
X621397Y484188D01*
X621491Y484234D01*
X621587Y484277D01*
X621684Y484316D01*
X621783Y484352D01*
X621883Y484384D01*
X621983Y484412D01*
X622085Y484436D01*
X622188Y484457D01*
X622291Y484474D01*
X622395Y484488D01*
X622500Y484497D01*
X622604Y484503D01*
X622709Y484505D01*
X622814Y484503D01*
X622918Y484497D01*
X623023Y484488D01*
X623127Y484474D01*
X623230Y484457D01*
X623333Y484436D01*
X623435Y484412D01*
X623535Y484384D01*
X623635Y484352D01*
X623734Y484316D01*
X623831Y484277D01*
X623927Y484234D01*
X624021Y484188D01*
X624113Y484138D01*
X624203Y484086D01*
X624292Y484029D01*
X624378Y483970D01*
X624462Y483908D01*
X624544Y483842D01*
X624624Y483774D01*
X624700Y483702D01*
X624775Y483628D01*
X624846Y483552D01*
X624915Y483473D01*
X624980Y483391D01*
X625043Y483307D01*
X625102Y483221D01*
X625159Y483132D01*
X625212Y483042D01*
X625261Y482950D01*
X625308Y482856D01*
X625351Y482760D01*
X625390Y482663D01*
X625426Y482564D01*
X625425Y482565D02*
X625542Y482316D01*
X625654Y482065D01*
X625759Y481811D01*
X625859Y481555D01*
X625952Y481296D01*
X626039Y481036D01*
X626120Y480773D01*
X626194Y480509D01*
X626262Y480242D01*
X626324Y479974D01*
X626380Y479705D01*
X626429Y479435D01*
X626471Y479163D01*
X626507Y478891D01*
X626537Y478618D01*
X626559Y478344D01*
X626576Y478069D01*
X626586Y477795D01*
X626589Y477520D01*
X618827Y477520D02*
X618830Y477245D01*
X618840Y476971D01*
X618857Y476696D01*
X618879Y476422D01*
X618909Y476149D01*
X618945Y475877D01*
X618987Y475605D01*
X619036Y475335D01*
X619092Y475065D01*
X619154Y474798D01*
X619222Y474531D01*
X619296Y474267D01*
X619377Y474004D01*
X619464Y473743D01*
X619557Y473485D01*
X619657Y473229D01*
X619762Y472975D01*
X619874Y472724D01*
X619991Y472475D01*
X619992Y472476D02*
X620028Y472377D01*
X620067Y472280D01*
X620110Y472184D01*
X620157Y472090D01*
X620206Y471998D01*
X620259Y471908D01*
X620316Y471819D01*
X620375Y471733D01*
X620438Y471649D01*
X620503Y471567D01*
X620572Y471488D01*
X620643Y471412D01*
X620718Y471338D01*
X620794Y471266D01*
X620874Y471198D01*
X620956Y471132D01*
X621040Y471070D01*
X621126Y471011D01*
X621215Y470954D01*
X621305Y470902D01*
X621397Y470852D01*
X621491Y470806D01*
X621587Y470763D01*
X621684Y470724D01*
X621783Y470688D01*
X621883Y470656D01*
X621983Y470628D01*
X622085Y470604D01*
X622188Y470583D01*
X622291Y470566D01*
X622395Y470552D01*
X622500Y470543D01*
X622604Y470537D01*
X622709Y470535D01*
X625426Y472475D02*
X625543Y472724D01*
X625655Y472975D01*
X625760Y473229D01*
X625860Y473485D01*
X625953Y473743D01*
X626040Y474004D01*
X626121Y474267D01*
X626195Y474531D01*
X626263Y474798D01*
X626325Y475065D01*
X626381Y475335D01*
X626430Y475605D01*
X626472Y475877D01*
X626508Y476149D01*
X626538Y476422D01*
X626560Y476696D01*
X626577Y476971D01*
X626587Y477245D01*
X626590Y477520D01*
X625426Y472476D02*
X625390Y472377D01*
X625351Y472280D01*
X625308Y472184D01*
X625261Y472090D01*
X625212Y471998D01*
X625159Y471908D01*
X625102Y471819D01*
X625043Y471733D01*
X624980Y471649D01*
X624915Y471567D01*
X624846Y471488D01*
X624775Y471412D01*
X624700Y471338D01*
X624624Y471266D01*
X624544Y471198D01*
X624462Y471132D01*
X624378Y471070D01*
X624292Y471011D01*
X624203Y470954D01*
X624113Y470902D01*
X624021Y470852D01*
X623927Y470806D01*
X623831Y470763D01*
X623734Y470724D01*
X623635Y470688D01*
X623535Y470656D01*
X623435Y470628D01*
X623333Y470604D01*
X623230Y470583D01*
X623127Y470566D01*
X623023Y470552D01*
X622918Y470543D01*
X622814Y470537D01*
X622709Y470535D01*
X619604Y473639D02*
X625813Y481401D01*
X632517Y481401D02*
X636397Y484505D01*
X636397Y470535D01*
X632517Y470535D02*
X640278Y470535D01*
X649309Y476744D02*
X653966Y476744D01*
X649309Y476744D02*
X649198Y476746D01*
X649088Y476752D01*
X648977Y476762D01*
X648867Y476776D01*
X648758Y476793D01*
X648649Y476815D01*
X648541Y476840D01*
X648435Y476870D01*
X648329Y476903D01*
X648224Y476940D01*
X648121Y476980D01*
X648020Y477025D01*
X647920Y477072D01*
X647821Y477124D01*
X647725Y477179D01*
X647631Y477237D01*
X647539Y477298D01*
X647449Y477363D01*
X647361Y477431D01*
X647276Y477502D01*
X647194Y477576D01*
X647114Y477653D01*
X647037Y477733D01*
X646963Y477815D01*
X646892Y477900D01*
X646824Y477988D01*
X646759Y478078D01*
X646698Y478170D01*
X646640Y478264D01*
X646585Y478360D01*
X646533Y478459D01*
X646486Y478559D01*
X646441Y478660D01*
X646401Y478763D01*
X646364Y478868D01*
X646331Y478974D01*
X646301Y479080D01*
X646276Y479188D01*
X646254Y479297D01*
X646237Y479406D01*
X646223Y479516D01*
X646213Y479627D01*
X646207Y479737D01*
X646205Y479848D01*
X646205Y480624D01*
X646207Y480747D01*
X646213Y480870D01*
X646223Y480993D01*
X646236Y481115D01*
X646254Y481237D01*
X646275Y481358D01*
X646300Y481479D01*
X646329Y481599D01*
X646362Y481717D01*
X646399Y481835D01*
X646439Y481951D01*
X646483Y482066D01*
X646531Y482180D01*
X646582Y482292D01*
X646636Y482402D01*
X646695Y482511D01*
X646756Y482618D01*
X646821Y482722D01*
X646889Y482825D01*
X646961Y482925D01*
X647035Y483023D01*
X647113Y483119D01*
X647194Y483212D01*
X647277Y483302D01*
X647364Y483390D01*
X647453Y483475D01*
X647544Y483557D01*
X647639Y483636D01*
X647736Y483712D01*
X647835Y483785D01*
X647936Y483855D01*
X648040Y483922D01*
X648146Y483985D01*
X648253Y484045D01*
X648363Y484101D01*
X648474Y484154D01*
X648587Y484204D01*
X648701Y484249D01*
X648817Y484292D01*
X648934Y484330D01*
X649052Y484365D01*
X649171Y484396D01*
X649291Y484423D01*
X649412Y484446D01*
X649534Y484465D01*
X649656Y484481D01*
X649778Y484493D01*
X649901Y484501D01*
X650024Y484505D01*
X650148Y484505D01*
X650271Y484501D01*
X650394Y484493D01*
X650516Y484481D01*
X650638Y484465D01*
X650760Y484446D01*
X650881Y484423D01*
X651001Y484396D01*
X651120Y484365D01*
X651238Y484330D01*
X651355Y484292D01*
X651471Y484249D01*
X651585Y484204D01*
X651698Y484154D01*
X651809Y484101D01*
X651919Y484045D01*
X652027Y483985D01*
X652132Y483922D01*
X652236Y483855D01*
X652337Y483785D01*
X652436Y483712D01*
X652533Y483636D01*
X652628Y483557D01*
X652719Y483475D01*
X652808Y483390D01*
X652895Y483302D01*
X652978Y483212D01*
X653059Y483119D01*
X653137Y483023D01*
X653211Y482925D01*
X653283Y482825D01*
X653351Y482722D01*
X653416Y482618D01*
X653477Y482511D01*
X653536Y482402D01*
X653590Y482292D01*
X653641Y482180D01*
X653689Y482066D01*
X653733Y481951D01*
X653773Y481835D01*
X653810Y481717D01*
X653843Y481599D01*
X653872Y481479D01*
X653897Y481358D01*
X653918Y481237D01*
X653936Y481115D01*
X653949Y480993D01*
X653959Y480870D01*
X653965Y480747D01*
X653967Y480624D01*
X653966Y480624D02*
X653966Y476744D01*
X653964Y476589D01*
X653958Y476435D01*
X653949Y476280D01*
X653935Y476126D01*
X653918Y475972D01*
X653897Y475819D01*
X653872Y475666D01*
X653843Y475514D01*
X653810Y475362D01*
X653774Y475212D01*
X653734Y475062D01*
X653690Y474914D01*
X653643Y474767D01*
X653592Y474620D01*
X653537Y474476D01*
X653478Y474332D01*
X653417Y474190D01*
X653351Y474050D01*
X653282Y473911D01*
X653210Y473775D01*
X653134Y473640D01*
X653055Y473506D01*
X652973Y473375D01*
X652887Y473246D01*
X652798Y473120D01*
X652706Y472995D01*
X652611Y472873D01*
X652513Y472753D01*
X652412Y472636D01*
X652309Y472521D01*
X652202Y472409D01*
X652092Y472299D01*
X651980Y472192D01*
X651865Y472089D01*
X651748Y471988D01*
X651628Y471890D01*
X651506Y471795D01*
X651381Y471703D01*
X651255Y471614D01*
X651126Y471528D01*
X650995Y471446D01*
X650862Y471367D01*
X650726Y471291D01*
X650590Y471219D01*
X650451Y471150D01*
X650311Y471084D01*
X650169Y471023D01*
X650025Y470964D01*
X649881Y470909D01*
X649734Y470858D01*
X649587Y470811D01*
X649439Y470767D01*
X649289Y470727D01*
X649139Y470691D01*
X648987Y470658D01*
X648835Y470629D01*
X648682Y470604D01*
X648529Y470583D01*
X648375Y470566D01*
X648221Y470552D01*
X648066Y470543D01*
X647912Y470537D01*
X647757Y470535D01*
D12*
X306100Y484400D02*
X252700Y484400D01*
X252700Y455400D01*
X306100Y455400D01*
X306100Y484400D01*
D13*
X305000Y458900D02*
X253800Y458900D01*
D14*
X240858Y490728D02*
X238261Y490728D01*
X238162Y490730D01*
X238062Y490736D01*
X237963Y490745D01*
X237865Y490758D01*
X237767Y490775D01*
X237669Y490796D01*
X237573Y490821D01*
X237478Y490849D01*
X237384Y490881D01*
X237291Y490916D01*
X237199Y490955D01*
X237109Y490998D01*
X237021Y491043D01*
X236934Y491093D01*
X236850Y491145D01*
X236767Y491201D01*
X236687Y491259D01*
X236609Y491321D01*
X236534Y491386D01*
X236461Y491454D01*
X236391Y491524D01*
X236323Y491597D01*
X236258Y491672D01*
X236196Y491750D01*
X236138Y491830D01*
X236082Y491913D01*
X236030Y491997D01*
X235980Y492084D01*
X235935Y492172D01*
X235892Y492262D01*
X235853Y492354D01*
X235818Y492447D01*
X235786Y492541D01*
X235758Y492636D01*
X235733Y492732D01*
X235712Y492830D01*
X235695Y492928D01*
X235682Y493026D01*
X235673Y493125D01*
X235667Y493225D01*
X235665Y493324D01*
X235665Y499816D01*
X235667Y499915D01*
X235673Y500015D01*
X235682Y500114D01*
X235695Y500212D01*
X235712Y500310D01*
X235733Y500408D01*
X235758Y500504D01*
X235786Y500599D01*
X235818Y500693D01*
X235853Y500786D01*
X235892Y500878D01*
X235935Y500968D01*
X235980Y501056D01*
X236030Y501143D01*
X236082Y501227D01*
X236138Y501310D01*
X236196Y501390D01*
X236258Y501468D01*
X236323Y501543D01*
X236391Y501616D01*
X236461Y501686D01*
X236534Y501754D01*
X236609Y501819D01*
X236687Y501881D01*
X236767Y501939D01*
X236850Y501995D01*
X236934Y502047D01*
X237021Y502097D01*
X237109Y502142D01*
X237199Y502185D01*
X237291Y502224D01*
X237383Y502259D01*
X237478Y502291D01*
X237573Y502319D01*
X237669Y502344D01*
X237767Y502365D01*
X237865Y502382D01*
X237963Y502395D01*
X238062Y502404D01*
X238162Y502410D01*
X238261Y502412D01*
X240858Y502412D01*
X245627Y490728D02*
X250819Y490728D01*
X245627Y490728D02*
X245627Y502412D01*
X250819Y502412D01*
X249521Y497219D02*
X245627Y497219D01*
X255533Y502412D02*
X255533Y490728D01*
X260725Y490728D01*
X265439Y490728D02*
X265439Y502412D01*
X265439Y490728D02*
X270631Y490728D01*
X274941Y499816D02*
X278186Y502412D01*
X278186Y490728D01*
X274941Y490728D02*
X281432Y490728D01*
D12*
X354300Y484400D02*
X407700Y484400D01*
X354300Y484400D02*
X354300Y455400D01*
X407700Y455400D01*
X407700Y484400D01*
D13*
X406600Y458900D02*
X355400Y458900D01*
D14*
X342458Y490728D02*
X339861Y490728D01*
X339762Y490730D01*
X339662Y490736D01*
X339563Y490745D01*
X339465Y490758D01*
X339367Y490775D01*
X339269Y490796D01*
X339173Y490821D01*
X339078Y490849D01*
X338984Y490881D01*
X338891Y490916D01*
X338799Y490955D01*
X338709Y490998D01*
X338621Y491043D01*
X338534Y491093D01*
X338450Y491145D01*
X338367Y491201D01*
X338287Y491259D01*
X338209Y491321D01*
X338134Y491386D01*
X338061Y491454D01*
X337991Y491524D01*
X337923Y491597D01*
X337858Y491672D01*
X337796Y491750D01*
X337738Y491830D01*
X337682Y491913D01*
X337630Y491997D01*
X337580Y492084D01*
X337535Y492172D01*
X337492Y492262D01*
X337453Y492354D01*
X337418Y492447D01*
X337386Y492541D01*
X337358Y492636D01*
X337333Y492732D01*
X337312Y492830D01*
X337295Y492928D01*
X337282Y493026D01*
X337273Y493125D01*
X337267Y493225D01*
X337265Y493324D01*
X337265Y499816D01*
X337267Y499915D01*
X337273Y500015D01*
X337282Y500114D01*
X337295Y500212D01*
X337312Y500310D01*
X337333Y500408D01*
X337358Y500504D01*
X337386Y500599D01*
X337418Y500693D01*
X337453Y500786D01*
X337492Y500878D01*
X337535Y500968D01*
X337580Y501056D01*
X337630Y501143D01*
X337682Y501227D01*
X337738Y501310D01*
X337796Y501390D01*
X337858Y501468D01*
X337923Y501543D01*
X337991Y501616D01*
X338061Y501686D01*
X338134Y501754D01*
X338209Y501819D01*
X338287Y501881D01*
X338367Y501939D01*
X338450Y501995D01*
X338534Y502047D01*
X338621Y502097D01*
X338709Y502142D01*
X338799Y502185D01*
X338891Y502224D01*
X338983Y502259D01*
X339078Y502291D01*
X339173Y502319D01*
X339269Y502344D01*
X339367Y502365D01*
X339465Y502382D01*
X339563Y502395D01*
X339662Y502404D01*
X339762Y502410D01*
X339861Y502412D01*
X342458Y502412D01*
X347227Y490728D02*
X352419Y490728D01*
X347227Y490728D02*
X347227Y502412D01*
X352419Y502412D01*
X351121Y497219D02*
X347227Y497219D01*
X357133Y502412D02*
X357133Y490728D01*
X362325Y490728D01*
X367039Y490728D02*
X367039Y502412D01*
X367039Y490728D02*
X372231Y490728D01*
X383032Y499491D02*
X383030Y499598D01*
X383024Y499704D01*
X383014Y499810D01*
X383001Y499916D01*
X382983Y500022D01*
X382962Y500126D01*
X382937Y500230D01*
X382908Y500333D01*
X382876Y500434D01*
X382839Y500534D01*
X382799Y500633D01*
X382756Y500731D01*
X382709Y500827D01*
X382658Y500921D01*
X382604Y501013D01*
X382547Y501103D01*
X382487Y501191D01*
X382423Y501276D01*
X382356Y501359D01*
X382286Y501440D01*
X382214Y501518D01*
X382138Y501594D01*
X382060Y501666D01*
X381979Y501736D01*
X381896Y501803D01*
X381811Y501867D01*
X381723Y501927D01*
X381633Y501984D01*
X381541Y502038D01*
X381447Y502089D01*
X381351Y502136D01*
X381253Y502179D01*
X381154Y502219D01*
X381054Y502256D01*
X380953Y502288D01*
X380850Y502317D01*
X380746Y502342D01*
X380642Y502363D01*
X380536Y502381D01*
X380430Y502394D01*
X380324Y502404D01*
X380218Y502410D01*
X380111Y502412D01*
X379990Y502410D01*
X379869Y502404D01*
X379749Y502394D01*
X379628Y502381D01*
X379509Y502363D01*
X379389Y502342D01*
X379271Y502317D01*
X379154Y502288D01*
X379037Y502255D01*
X378922Y502219D01*
X378808Y502178D01*
X378695Y502135D01*
X378583Y502087D01*
X378474Y502036D01*
X378366Y501981D01*
X378259Y501923D01*
X378155Y501862D01*
X378053Y501797D01*
X377953Y501729D01*
X377855Y501658D01*
X377759Y501584D01*
X377666Y501507D01*
X377576Y501426D01*
X377488Y501343D01*
X377403Y501257D01*
X377320Y501168D01*
X377241Y501077D01*
X377164Y500983D01*
X377091Y500887D01*
X377021Y500789D01*
X376954Y500688D01*
X376890Y500585D01*
X376830Y500480D01*
X376773Y500373D01*
X376719Y500265D01*
X376669Y500155D01*
X376623Y500043D01*
X376580Y499930D01*
X376541Y499815D01*
X382059Y497219D02*
X382138Y497296D01*
X382214Y497377D01*
X382287Y497460D01*
X382357Y497545D01*
X382424Y497633D01*
X382488Y497723D01*
X382548Y497815D01*
X382605Y497910D01*
X382659Y498006D01*
X382710Y498104D01*
X382757Y498204D01*
X382801Y498306D01*
X382841Y498409D01*
X382877Y498513D01*
X382909Y498619D01*
X382938Y498725D01*
X382963Y498833D01*
X382985Y498941D01*
X383002Y499051D01*
X383016Y499160D01*
X383025Y499270D01*
X383031Y499381D01*
X383033Y499491D01*
X382058Y497219D02*
X376541Y490728D01*
X383032Y490728D01*
D12*
X90700Y191800D02*
X90700Y87600D01*
X90700Y191800D02*
X61700Y191800D01*
X61700Y87600D01*
X90700Y87600D01*
D13*
X65200Y88700D02*
X65200Y190700D01*
D14*
X57912Y92061D02*
X57912Y89464D01*
X57910Y89365D01*
X57904Y89265D01*
X57895Y89166D01*
X57882Y89068D01*
X57865Y88970D01*
X57844Y88872D01*
X57819Y88776D01*
X57791Y88681D01*
X57759Y88587D01*
X57724Y88494D01*
X57685Y88402D01*
X57642Y88312D01*
X57597Y88224D01*
X57547Y88137D01*
X57495Y88053D01*
X57439Y87970D01*
X57381Y87890D01*
X57319Y87812D01*
X57254Y87737D01*
X57186Y87664D01*
X57116Y87594D01*
X57043Y87526D01*
X56968Y87461D01*
X56890Y87399D01*
X56810Y87341D01*
X56727Y87285D01*
X56643Y87233D01*
X56556Y87183D01*
X56468Y87138D01*
X56378Y87095D01*
X56286Y87056D01*
X56193Y87021D01*
X56099Y86989D01*
X56004Y86961D01*
X55908Y86936D01*
X55810Y86915D01*
X55712Y86898D01*
X55614Y86885D01*
X55515Y86876D01*
X55415Y86870D01*
X55316Y86868D01*
X48824Y86868D01*
X48725Y86870D01*
X48625Y86876D01*
X48526Y86885D01*
X48428Y86898D01*
X48330Y86916D01*
X48232Y86936D01*
X48136Y86961D01*
X48040Y86989D01*
X47946Y87021D01*
X47853Y87056D01*
X47762Y87095D01*
X47672Y87138D01*
X47583Y87183D01*
X47497Y87233D01*
X47412Y87285D01*
X47330Y87341D01*
X47250Y87400D01*
X47172Y87461D01*
X47096Y87526D01*
X47023Y87594D01*
X46953Y87664D01*
X46885Y87737D01*
X46820Y87813D01*
X46759Y87891D01*
X46700Y87971D01*
X46644Y88053D01*
X46592Y88138D01*
X46543Y88224D01*
X46497Y88313D01*
X46454Y88403D01*
X46415Y88494D01*
X46380Y88587D01*
X46348Y88681D01*
X46320Y88777D01*
X46295Y88873D01*
X46275Y88971D01*
X46257Y89069D01*
X46244Y89167D01*
X46235Y89266D01*
X46229Y89365D01*
X46227Y89465D01*
X46228Y89464D02*
X46228Y92061D01*
X49474Y96426D02*
X54666Y96426D01*
X49474Y96426D02*
X49361Y96428D01*
X49248Y96434D01*
X49135Y96444D01*
X49022Y96458D01*
X48910Y96475D01*
X48799Y96497D01*
X48689Y96522D01*
X48579Y96552D01*
X48471Y96585D01*
X48364Y96622D01*
X48258Y96662D01*
X48154Y96707D01*
X48051Y96755D01*
X47950Y96806D01*
X47851Y96861D01*
X47754Y96919D01*
X47659Y96981D01*
X47566Y97046D01*
X47476Y97114D01*
X47388Y97185D01*
X47302Y97260D01*
X47219Y97337D01*
X47139Y97417D01*
X47062Y97500D01*
X46987Y97586D01*
X46916Y97674D01*
X46848Y97764D01*
X46783Y97857D01*
X46721Y97952D01*
X46663Y98049D01*
X46608Y98148D01*
X46557Y98249D01*
X46509Y98352D01*
X46464Y98456D01*
X46424Y98562D01*
X46387Y98669D01*
X46354Y98777D01*
X46324Y98887D01*
X46299Y98997D01*
X46277Y99108D01*
X46260Y99220D01*
X46246Y99333D01*
X46236Y99446D01*
X46230Y99559D01*
X46228Y99672D01*
X46230Y99785D01*
X46236Y99898D01*
X46246Y100011D01*
X46260Y100124D01*
X46277Y100236D01*
X46299Y100347D01*
X46324Y100457D01*
X46354Y100567D01*
X46387Y100675D01*
X46424Y100782D01*
X46464Y100888D01*
X46509Y100992D01*
X46557Y101095D01*
X46608Y101196D01*
X46663Y101295D01*
X46721Y101392D01*
X46783Y101487D01*
X46848Y101580D01*
X46916Y101670D01*
X46987Y101758D01*
X47062Y101844D01*
X47139Y101927D01*
X47219Y102007D01*
X47302Y102084D01*
X47388Y102159D01*
X47476Y102230D01*
X47566Y102298D01*
X47659Y102363D01*
X47754Y102425D01*
X47851Y102483D01*
X47950Y102538D01*
X48051Y102589D01*
X48154Y102637D01*
X48258Y102682D01*
X48364Y102722D01*
X48471Y102759D01*
X48579Y102792D01*
X48689Y102822D01*
X48799Y102847D01*
X48910Y102869D01*
X49022Y102886D01*
X49135Y102900D01*
X49248Y102910D01*
X49361Y102916D01*
X49474Y102918D01*
X49474Y102917D02*
X54666Y102917D01*
X54666Y102918D02*
X54779Y102916D01*
X54892Y102910D01*
X55005Y102900D01*
X55118Y102886D01*
X55230Y102869D01*
X55341Y102847D01*
X55451Y102822D01*
X55561Y102792D01*
X55669Y102759D01*
X55776Y102722D01*
X55882Y102682D01*
X55986Y102637D01*
X56089Y102589D01*
X56190Y102538D01*
X56289Y102483D01*
X56386Y102425D01*
X56481Y102363D01*
X56574Y102298D01*
X56664Y102230D01*
X56752Y102159D01*
X56838Y102084D01*
X56921Y102007D01*
X57001Y101927D01*
X57078Y101844D01*
X57153Y101758D01*
X57224Y101670D01*
X57292Y101580D01*
X57357Y101487D01*
X57419Y101392D01*
X57477Y101295D01*
X57532Y101196D01*
X57583Y101095D01*
X57631Y100992D01*
X57676Y100888D01*
X57716Y100782D01*
X57753Y100675D01*
X57786Y100567D01*
X57816Y100457D01*
X57841Y100347D01*
X57863Y100236D01*
X57880Y100124D01*
X57894Y100011D01*
X57904Y99898D01*
X57910Y99785D01*
X57912Y99672D01*
X57910Y99559D01*
X57904Y99446D01*
X57894Y99333D01*
X57880Y99220D01*
X57863Y99108D01*
X57841Y98997D01*
X57816Y98887D01*
X57786Y98777D01*
X57753Y98669D01*
X57716Y98562D01*
X57676Y98456D01*
X57631Y98352D01*
X57583Y98249D01*
X57532Y98148D01*
X57477Y98049D01*
X57419Y97952D01*
X57357Y97857D01*
X57292Y97764D01*
X57224Y97674D01*
X57153Y97586D01*
X57078Y97500D01*
X57001Y97417D01*
X56921Y97337D01*
X56838Y97260D01*
X56752Y97185D01*
X56664Y97114D01*
X56574Y97046D01*
X56481Y96981D01*
X56386Y96919D01*
X56289Y96861D01*
X56190Y96806D01*
X56089Y96755D01*
X55986Y96707D01*
X55882Y96662D01*
X55776Y96622D01*
X55669Y96585D01*
X55561Y96552D01*
X55451Y96522D01*
X55341Y96497D01*
X55230Y96475D01*
X55118Y96458D01*
X55005Y96444D01*
X54892Y96434D01*
X54779Y96428D01*
X54666Y96426D01*
X57912Y108350D02*
X46228Y108350D01*
X52719Y112245D01*
X46228Y116139D01*
X57912Y116139D01*
X57912Y122123D02*
X46228Y122123D01*
X46228Y125368D01*
X46230Y125481D01*
X46236Y125594D01*
X46246Y125707D01*
X46260Y125820D01*
X46277Y125932D01*
X46299Y126043D01*
X46324Y126153D01*
X46354Y126263D01*
X46387Y126371D01*
X46424Y126478D01*
X46464Y126584D01*
X46509Y126688D01*
X46557Y126791D01*
X46608Y126892D01*
X46663Y126991D01*
X46721Y127088D01*
X46783Y127183D01*
X46848Y127276D01*
X46916Y127366D01*
X46987Y127454D01*
X47062Y127540D01*
X47139Y127623D01*
X47219Y127703D01*
X47302Y127780D01*
X47388Y127855D01*
X47476Y127926D01*
X47566Y127994D01*
X47659Y128059D01*
X47754Y128121D01*
X47851Y128179D01*
X47950Y128234D01*
X48051Y128285D01*
X48154Y128333D01*
X48258Y128378D01*
X48364Y128418D01*
X48471Y128455D01*
X48579Y128488D01*
X48689Y128518D01*
X48799Y128543D01*
X48910Y128565D01*
X49022Y128582D01*
X49135Y128596D01*
X49248Y128606D01*
X49361Y128612D01*
X49474Y128614D01*
X49587Y128612D01*
X49700Y128606D01*
X49813Y128596D01*
X49926Y128582D01*
X50038Y128565D01*
X50149Y128543D01*
X50259Y128518D01*
X50369Y128488D01*
X50477Y128455D01*
X50584Y128418D01*
X50690Y128378D01*
X50794Y128333D01*
X50897Y128285D01*
X50998Y128234D01*
X51097Y128179D01*
X51194Y128121D01*
X51289Y128059D01*
X51382Y127994D01*
X51472Y127926D01*
X51560Y127855D01*
X51646Y127780D01*
X51729Y127703D01*
X51809Y127623D01*
X51886Y127540D01*
X51961Y127454D01*
X52032Y127366D01*
X52100Y127276D01*
X52165Y127183D01*
X52227Y127088D01*
X52285Y126991D01*
X52340Y126892D01*
X52391Y126791D01*
X52439Y126688D01*
X52484Y126584D01*
X52524Y126478D01*
X52561Y126371D01*
X52594Y126263D01*
X52624Y126153D01*
X52649Y126043D01*
X52671Y125932D01*
X52688Y125820D01*
X52702Y125707D01*
X52712Y125594D01*
X52718Y125481D01*
X52720Y125368D01*
X52719Y125368D02*
X52719Y122123D01*
X57912Y132353D02*
X46228Y136248D01*
X57912Y140142D01*
X54991Y139169D02*
X54991Y133327D01*
X57912Y147946D02*
X57910Y148045D01*
X57904Y148145D01*
X57895Y148244D01*
X57882Y148342D01*
X57865Y148440D01*
X57844Y148538D01*
X57819Y148634D01*
X57791Y148729D01*
X57759Y148823D01*
X57724Y148916D01*
X57685Y149008D01*
X57642Y149098D01*
X57597Y149186D01*
X57547Y149273D01*
X57495Y149357D01*
X57439Y149440D01*
X57381Y149520D01*
X57319Y149598D01*
X57254Y149673D01*
X57186Y149746D01*
X57116Y149816D01*
X57043Y149884D01*
X56968Y149949D01*
X56890Y150011D01*
X56810Y150069D01*
X56727Y150125D01*
X56643Y150177D01*
X56556Y150227D01*
X56468Y150272D01*
X56378Y150315D01*
X56286Y150354D01*
X56193Y150389D01*
X56099Y150421D01*
X56004Y150449D01*
X55908Y150474D01*
X55810Y150495D01*
X55712Y150512D01*
X55614Y150525D01*
X55515Y150534D01*
X55415Y150540D01*
X55316Y150542D01*
X57912Y147946D02*
X57910Y147802D01*
X57904Y147657D01*
X57895Y147513D01*
X57882Y147370D01*
X57865Y147226D01*
X57844Y147083D01*
X57819Y146941D01*
X57791Y146800D01*
X57759Y146659D01*
X57723Y146519D01*
X57684Y146380D01*
X57641Y146242D01*
X57594Y146106D01*
X57544Y145970D01*
X57490Y145836D01*
X57433Y145704D01*
X57372Y145573D01*
X57308Y145444D01*
X57240Y145316D01*
X57170Y145190D01*
X57095Y145066D01*
X57018Y144945D01*
X56937Y144825D01*
X56854Y144707D01*
X56767Y144592D01*
X56677Y144479D01*
X56584Y144368D01*
X56489Y144260D01*
X56390Y144154D01*
X56289Y144051D01*
X48824Y144376D02*
X48725Y144378D01*
X48625Y144384D01*
X48526Y144393D01*
X48428Y144406D01*
X48330Y144423D01*
X48232Y144444D01*
X48136Y144469D01*
X48041Y144497D01*
X47947Y144529D01*
X47854Y144564D01*
X47762Y144603D01*
X47672Y144646D01*
X47584Y144691D01*
X47497Y144741D01*
X47413Y144793D01*
X47330Y144849D01*
X47250Y144907D01*
X47172Y144969D01*
X47097Y145034D01*
X47024Y145102D01*
X46954Y145172D01*
X46886Y145245D01*
X46821Y145320D01*
X46759Y145398D01*
X46701Y145478D01*
X46645Y145561D01*
X46593Y145645D01*
X46543Y145732D01*
X46498Y145820D01*
X46455Y145910D01*
X46416Y146002D01*
X46381Y146095D01*
X46349Y146189D01*
X46321Y146284D01*
X46296Y146380D01*
X46275Y146478D01*
X46258Y146576D01*
X46245Y146674D01*
X46236Y146773D01*
X46230Y146873D01*
X46228Y146972D01*
X46230Y147108D01*
X46236Y147244D01*
X46245Y147380D01*
X46258Y147516D01*
X46276Y147651D01*
X46296Y147785D01*
X46321Y147919D01*
X46349Y148053D01*
X46382Y148185D01*
X46417Y148316D01*
X46457Y148447D01*
X46500Y148576D01*
X46546Y148704D01*
X46597Y148830D01*
X46650Y148956D01*
X46708Y149079D01*
X46768Y149201D01*
X46832Y149321D01*
X46900Y149440D01*
X46970Y149556D01*
X47044Y149670D01*
X47121Y149783D01*
X47202Y149893D01*
X51096Y145674D02*
X51043Y145588D01*
X50986Y145504D01*
X50927Y145422D01*
X50864Y145342D01*
X50798Y145265D01*
X50730Y145190D01*
X50658Y145118D01*
X50584Y145049D01*
X50507Y144983D01*
X50428Y144920D01*
X50346Y144860D01*
X50262Y144803D01*
X50176Y144749D01*
X50088Y144699D01*
X49998Y144652D01*
X49907Y144608D01*
X49813Y144569D01*
X49719Y144532D01*
X49623Y144500D01*
X49525Y144471D01*
X49427Y144446D01*
X49328Y144425D01*
X49228Y144407D01*
X49128Y144394D01*
X49027Y144384D01*
X48925Y144378D01*
X48824Y144376D01*
X53044Y149244D02*
X53097Y149330D01*
X53154Y149414D01*
X53213Y149496D01*
X53276Y149576D01*
X53342Y149653D01*
X53410Y149728D01*
X53482Y149800D01*
X53556Y149869D01*
X53633Y149935D01*
X53712Y149998D01*
X53794Y150058D01*
X53878Y150115D01*
X53964Y150169D01*
X54052Y150219D01*
X54142Y150266D01*
X54233Y150310D01*
X54327Y150349D01*
X54421Y150386D01*
X54517Y150418D01*
X54615Y150447D01*
X54713Y150472D01*
X54812Y150493D01*
X54912Y150511D01*
X55012Y150524D01*
X55113Y150534D01*
X55215Y150540D01*
X55316Y150542D01*
X53044Y149244D02*
X51096Y145674D01*
X57912Y158614D02*
X57910Y158713D01*
X57904Y158813D01*
X57895Y158912D01*
X57882Y159010D01*
X57865Y159108D01*
X57844Y159206D01*
X57819Y159302D01*
X57791Y159397D01*
X57759Y159491D01*
X57724Y159584D01*
X57685Y159676D01*
X57642Y159766D01*
X57597Y159854D01*
X57547Y159941D01*
X57495Y160025D01*
X57439Y160108D01*
X57381Y160188D01*
X57319Y160266D01*
X57254Y160341D01*
X57186Y160414D01*
X57116Y160484D01*
X57043Y160552D01*
X56968Y160617D01*
X56890Y160679D01*
X56810Y160737D01*
X56727Y160793D01*
X56643Y160845D01*
X56556Y160895D01*
X56468Y160940D01*
X56378Y160983D01*
X56286Y161022D01*
X56193Y161057D01*
X56099Y161089D01*
X56004Y161117D01*
X55908Y161142D01*
X55810Y161163D01*
X55712Y161180D01*
X55614Y161193D01*
X55515Y161202D01*
X55415Y161208D01*
X55316Y161210D01*
X57912Y158614D02*
X57910Y158470D01*
X57904Y158325D01*
X57895Y158181D01*
X57882Y158038D01*
X57865Y157894D01*
X57844Y157751D01*
X57819Y157609D01*
X57791Y157468D01*
X57759Y157327D01*
X57723Y157187D01*
X57684Y157048D01*
X57641Y156910D01*
X57594Y156774D01*
X57544Y156638D01*
X57490Y156504D01*
X57433Y156372D01*
X57372Y156241D01*
X57308Y156112D01*
X57240Y155984D01*
X57170Y155858D01*
X57095Y155734D01*
X57018Y155613D01*
X56937Y155493D01*
X56854Y155375D01*
X56767Y155260D01*
X56677Y155147D01*
X56584Y155036D01*
X56489Y154928D01*
X56390Y154822D01*
X56289Y154719D01*
X48824Y155044D02*
X48725Y155046D01*
X48625Y155052D01*
X48526Y155061D01*
X48428Y155074D01*
X48330Y155091D01*
X48232Y155112D01*
X48136Y155137D01*
X48041Y155165D01*
X47947Y155197D01*
X47854Y155232D01*
X47762Y155271D01*
X47672Y155314D01*
X47584Y155359D01*
X47497Y155409D01*
X47413Y155461D01*
X47330Y155517D01*
X47250Y155575D01*
X47172Y155637D01*
X47097Y155702D01*
X47024Y155770D01*
X46954Y155840D01*
X46886Y155913D01*
X46821Y155988D01*
X46759Y156066D01*
X46701Y156146D01*
X46645Y156229D01*
X46593Y156313D01*
X46543Y156400D01*
X46498Y156488D01*
X46455Y156578D01*
X46416Y156670D01*
X46381Y156763D01*
X46349Y156857D01*
X46321Y156952D01*
X46296Y157048D01*
X46275Y157146D01*
X46258Y157244D01*
X46245Y157342D01*
X46236Y157441D01*
X46230Y157541D01*
X46228Y157640D01*
X46230Y157776D01*
X46236Y157912D01*
X46245Y158048D01*
X46258Y158184D01*
X46276Y158319D01*
X46296Y158453D01*
X46321Y158587D01*
X46349Y158721D01*
X46382Y158853D01*
X46417Y158984D01*
X46457Y159115D01*
X46500Y159244D01*
X46546Y159372D01*
X46597Y159498D01*
X46650Y159624D01*
X46708Y159747D01*
X46768Y159869D01*
X46832Y159989D01*
X46900Y160108D01*
X46970Y160224D01*
X47044Y160338D01*
X47121Y160451D01*
X47202Y160561D01*
X51096Y156342D02*
X51043Y156256D01*
X50986Y156172D01*
X50927Y156090D01*
X50864Y156010D01*
X50798Y155933D01*
X50730Y155858D01*
X50658Y155786D01*
X50584Y155717D01*
X50507Y155651D01*
X50428Y155588D01*
X50346Y155528D01*
X50262Y155471D01*
X50176Y155417D01*
X50088Y155367D01*
X49998Y155320D01*
X49907Y155276D01*
X49813Y155237D01*
X49719Y155200D01*
X49623Y155168D01*
X49525Y155139D01*
X49427Y155114D01*
X49328Y155093D01*
X49228Y155075D01*
X49128Y155062D01*
X49027Y155052D01*
X48925Y155046D01*
X48824Y155044D01*
X53044Y159912D02*
X53097Y159998D01*
X53154Y160082D01*
X53213Y160164D01*
X53276Y160244D01*
X53342Y160321D01*
X53410Y160396D01*
X53482Y160468D01*
X53556Y160537D01*
X53633Y160603D01*
X53712Y160666D01*
X53794Y160726D01*
X53878Y160783D01*
X53964Y160837D01*
X54052Y160887D01*
X54142Y160934D01*
X54233Y160978D01*
X54327Y161017D01*
X54421Y161054D01*
X54517Y161086D01*
X54615Y161115D01*
X54713Y161140D01*
X54812Y161161D01*
X54912Y161179D01*
X55012Y161192D01*
X55113Y161202D01*
X55215Y161208D01*
X55316Y161210D01*
X53044Y159912D02*
X51096Y156342D01*
D13*
X461780Y441000D02*
X503420Y441000D01*
X461780Y441000D02*
X461780Y422600D01*
X503420Y422600D01*
X503420Y441000D01*
X488950Y431800D02*
X482600Y431800D01*
X472440Y425450D02*
X472440Y438150D01*
X482600Y431800D01*
X467360Y431800D01*
X472440Y425450D02*
X482600Y431800D01*
X482600Y425450D01*
X482600Y431800D02*
X482600Y438150D01*
D15*
X496570Y431950D03*
D16*
X458605Y431800D03*
X506595Y431800D03*
D10*
X484124Y414655D02*
X484124Y403225D01*
X484124Y414655D02*
X487299Y414655D01*
X487410Y414653D01*
X487520Y414647D01*
X487631Y414638D01*
X487741Y414624D01*
X487850Y414607D01*
X487959Y414586D01*
X488067Y414561D01*
X488174Y414532D01*
X488280Y414500D01*
X488385Y414464D01*
X488488Y414424D01*
X488590Y414381D01*
X488691Y414334D01*
X488790Y414283D01*
X488887Y414230D01*
X488981Y414173D01*
X489074Y414112D01*
X489165Y414049D01*
X489254Y413982D01*
X489340Y413912D01*
X489423Y413839D01*
X489505Y413764D01*
X489583Y413686D01*
X489658Y413604D01*
X489731Y413521D01*
X489801Y413435D01*
X489868Y413346D01*
X489931Y413255D01*
X489992Y413162D01*
X490049Y413068D01*
X490102Y412971D01*
X490153Y412872D01*
X490200Y412771D01*
X490243Y412669D01*
X490283Y412566D01*
X490319Y412461D01*
X490351Y412355D01*
X490380Y412248D01*
X490405Y412140D01*
X490426Y412031D01*
X490443Y411922D01*
X490457Y411812D01*
X490466Y411701D01*
X490472Y411591D01*
X490474Y411480D01*
X490474Y406400D01*
X490472Y406289D01*
X490466Y406179D01*
X490457Y406068D01*
X490443Y405958D01*
X490426Y405849D01*
X490405Y405740D01*
X490380Y405632D01*
X490351Y405525D01*
X490319Y405419D01*
X490283Y405314D01*
X490243Y405211D01*
X490200Y405109D01*
X490153Y405008D01*
X490102Y404909D01*
X490049Y404812D01*
X489992Y404718D01*
X489931Y404625D01*
X489868Y404534D01*
X489801Y404445D01*
X489731Y404359D01*
X489658Y404276D01*
X489583Y404194D01*
X489505Y404116D01*
X489423Y404041D01*
X489340Y403968D01*
X489254Y403898D01*
X489165Y403831D01*
X489074Y403768D01*
X488981Y403707D01*
X488887Y403650D01*
X488790Y403597D01*
X488691Y403546D01*
X488590Y403499D01*
X488488Y403456D01*
X488385Y403416D01*
X488280Y403380D01*
X488174Y403348D01*
X488067Y403319D01*
X487959Y403294D01*
X487850Y403273D01*
X487741Y403256D01*
X487631Y403242D01*
X487520Y403233D01*
X487410Y403227D01*
X487299Y403225D01*
X484124Y403225D01*
X495935Y412115D02*
X499110Y414655D01*
X499110Y403225D01*
X495935Y403225D02*
X502285Y403225D01*
D13*
X503420Y479100D02*
X461780Y479100D01*
X461780Y460700D01*
X503420Y460700D01*
X503420Y479100D01*
X488950Y469900D02*
X482600Y469900D01*
X472440Y463550D02*
X472440Y476250D01*
X482600Y469900D01*
X467360Y469900D01*
X472440Y463550D02*
X482600Y469900D01*
X482600Y463550D01*
X482600Y469900D02*
X482600Y476250D01*
D15*
X496570Y470050D03*
D16*
X458605Y469900D03*
X506595Y469900D03*
D10*
X484124Y452755D02*
X484124Y441325D01*
X484124Y452755D02*
X487299Y452755D01*
X487410Y452753D01*
X487520Y452747D01*
X487631Y452738D01*
X487741Y452724D01*
X487850Y452707D01*
X487959Y452686D01*
X488067Y452661D01*
X488174Y452632D01*
X488280Y452600D01*
X488385Y452564D01*
X488488Y452524D01*
X488590Y452481D01*
X488691Y452434D01*
X488790Y452383D01*
X488887Y452330D01*
X488981Y452273D01*
X489074Y452212D01*
X489165Y452149D01*
X489254Y452082D01*
X489340Y452012D01*
X489423Y451939D01*
X489505Y451864D01*
X489583Y451786D01*
X489658Y451704D01*
X489731Y451621D01*
X489801Y451535D01*
X489868Y451446D01*
X489931Y451355D01*
X489992Y451262D01*
X490049Y451168D01*
X490102Y451071D01*
X490153Y450972D01*
X490200Y450871D01*
X490243Y450769D01*
X490283Y450666D01*
X490319Y450561D01*
X490351Y450455D01*
X490380Y450348D01*
X490405Y450240D01*
X490426Y450131D01*
X490443Y450022D01*
X490457Y449912D01*
X490466Y449801D01*
X490472Y449691D01*
X490474Y449580D01*
X490474Y444500D01*
X490472Y444389D01*
X490466Y444279D01*
X490457Y444168D01*
X490443Y444058D01*
X490426Y443949D01*
X490405Y443840D01*
X490380Y443732D01*
X490351Y443625D01*
X490319Y443519D01*
X490283Y443414D01*
X490243Y443311D01*
X490200Y443209D01*
X490153Y443108D01*
X490102Y443009D01*
X490049Y442912D01*
X489992Y442818D01*
X489931Y442725D01*
X489868Y442634D01*
X489801Y442545D01*
X489731Y442459D01*
X489658Y442376D01*
X489583Y442294D01*
X489505Y442216D01*
X489423Y442141D01*
X489340Y442068D01*
X489254Y441998D01*
X489165Y441931D01*
X489074Y441868D01*
X488981Y441807D01*
X488887Y441750D01*
X488790Y441697D01*
X488691Y441646D01*
X488590Y441599D01*
X488488Y441556D01*
X488385Y441516D01*
X488280Y441480D01*
X488174Y441448D01*
X488067Y441419D01*
X487959Y441394D01*
X487850Y441373D01*
X487741Y441356D01*
X487631Y441342D01*
X487520Y441333D01*
X487410Y441327D01*
X487299Y441325D01*
X484124Y441325D01*
X499428Y452756D02*
X499532Y452754D01*
X499637Y452748D01*
X499741Y452739D01*
X499844Y452726D01*
X499947Y452708D01*
X500049Y452688D01*
X500151Y452663D01*
X500251Y452635D01*
X500351Y452603D01*
X500449Y452567D01*
X500546Y452528D01*
X500641Y452486D01*
X500735Y452440D01*
X500827Y452390D01*
X500917Y452338D01*
X501005Y452282D01*
X501091Y452222D01*
X501175Y452160D01*
X501256Y452095D01*
X501335Y452027D01*
X501412Y451955D01*
X501485Y451882D01*
X501557Y451805D01*
X501625Y451726D01*
X501690Y451645D01*
X501752Y451561D01*
X501812Y451475D01*
X501868Y451387D01*
X501920Y451297D01*
X501970Y451205D01*
X502016Y451111D01*
X502058Y451016D01*
X502097Y450919D01*
X502133Y450821D01*
X502165Y450721D01*
X502193Y450621D01*
X502218Y450519D01*
X502238Y450417D01*
X502256Y450314D01*
X502269Y450211D01*
X502278Y450107D01*
X502284Y450002D01*
X502286Y449898D01*
X499428Y452755D02*
X499310Y452753D01*
X499191Y452747D01*
X499073Y452738D01*
X498956Y452725D01*
X498839Y452707D01*
X498722Y452687D01*
X498606Y452662D01*
X498491Y452634D01*
X498378Y452601D01*
X498265Y452566D01*
X498153Y452526D01*
X498043Y452484D01*
X497934Y452437D01*
X497826Y452387D01*
X497721Y452334D01*
X497617Y452277D01*
X497515Y452217D01*
X497415Y452154D01*
X497317Y452087D01*
X497221Y452018D01*
X497128Y451945D01*
X497037Y451869D01*
X496948Y451791D01*
X496862Y451709D01*
X496779Y451625D01*
X496698Y451539D01*
X496621Y451449D01*
X496546Y451358D01*
X496474Y451264D01*
X496405Y451167D01*
X496340Y451069D01*
X496277Y450968D01*
X496218Y450865D01*
X496162Y450761D01*
X496110Y450655D01*
X496061Y450547D01*
X496016Y450438D01*
X495974Y450327D01*
X495936Y450215D01*
X501333Y447676D02*
X501409Y447751D01*
X501484Y447830D01*
X501555Y447911D01*
X501624Y447995D01*
X501689Y448081D01*
X501751Y448169D01*
X501811Y448259D01*
X501867Y448351D01*
X501920Y448446D01*
X501969Y448542D01*
X502015Y448640D01*
X502058Y448739D01*
X502097Y448840D01*
X502132Y448942D01*
X502164Y449045D01*
X502192Y449149D01*
X502217Y449254D01*
X502238Y449361D01*
X502255Y449467D01*
X502268Y449574D01*
X502277Y449682D01*
X502283Y449790D01*
X502285Y449898D01*
X501333Y447675D02*
X495935Y441325D01*
X502285Y441325D01*
D12*
X331500Y52600D02*
X227300Y52600D01*
X227300Y23600D01*
X331500Y23600D01*
X331500Y52600D01*
D13*
X330400Y27100D02*
X228400Y27100D01*
D14*
X247255Y19812D02*
X247255Y8128D01*
X247255Y19812D02*
X250501Y19812D01*
X250614Y19810D01*
X250727Y19804D01*
X250840Y19794D01*
X250953Y19780D01*
X251065Y19763D01*
X251176Y19741D01*
X251286Y19716D01*
X251396Y19686D01*
X251504Y19653D01*
X251611Y19616D01*
X251717Y19576D01*
X251821Y19531D01*
X251924Y19483D01*
X252025Y19432D01*
X252124Y19377D01*
X252221Y19319D01*
X252316Y19257D01*
X252409Y19192D01*
X252499Y19124D01*
X252587Y19053D01*
X252673Y18978D01*
X252756Y18901D01*
X252836Y18821D01*
X252913Y18738D01*
X252988Y18652D01*
X253059Y18564D01*
X253127Y18474D01*
X253192Y18381D01*
X253254Y18286D01*
X253312Y18189D01*
X253367Y18090D01*
X253418Y17989D01*
X253466Y17886D01*
X253511Y17782D01*
X253551Y17676D01*
X253588Y17569D01*
X253621Y17461D01*
X253651Y17351D01*
X253676Y17241D01*
X253698Y17130D01*
X253715Y17018D01*
X253729Y16905D01*
X253739Y16792D01*
X253745Y16679D01*
X253747Y16566D01*
X253746Y16566D02*
X253746Y11374D01*
X253747Y11374D02*
X253745Y11261D01*
X253739Y11148D01*
X253729Y11035D01*
X253715Y10922D01*
X253698Y10810D01*
X253676Y10699D01*
X253651Y10589D01*
X253621Y10479D01*
X253588Y10371D01*
X253551Y10264D01*
X253511Y10158D01*
X253466Y10054D01*
X253418Y9951D01*
X253367Y9850D01*
X253312Y9751D01*
X253254Y9654D01*
X253192Y9559D01*
X253127Y9466D01*
X253059Y9376D01*
X252988Y9288D01*
X252913Y9202D01*
X252836Y9119D01*
X252756Y9039D01*
X252673Y8962D01*
X252587Y8887D01*
X252499Y8816D01*
X252409Y8748D01*
X252316Y8683D01*
X252221Y8621D01*
X252124Y8563D01*
X252025Y8508D01*
X251924Y8457D01*
X251821Y8409D01*
X251717Y8364D01*
X251611Y8324D01*
X251504Y8287D01*
X251396Y8254D01*
X251286Y8224D01*
X251176Y8199D01*
X251065Y8177D01*
X250953Y8160D01*
X250840Y8146D01*
X250727Y8136D01*
X250614Y8130D01*
X250501Y8128D01*
X247255Y8128D01*
X260026Y8128D02*
X260026Y19812D01*
X258727Y8128D02*
X261324Y8128D01*
X261324Y19812D02*
X258727Y19812D01*
X266379Y19812D02*
X266379Y8128D01*
X266379Y19812D02*
X269624Y19812D01*
X269737Y19810D01*
X269850Y19804D01*
X269963Y19794D01*
X270076Y19780D01*
X270188Y19763D01*
X270299Y19741D01*
X270409Y19716D01*
X270519Y19686D01*
X270627Y19653D01*
X270734Y19616D01*
X270840Y19576D01*
X270944Y19531D01*
X271047Y19483D01*
X271148Y19432D01*
X271247Y19377D01*
X271344Y19319D01*
X271439Y19257D01*
X271532Y19192D01*
X271622Y19124D01*
X271710Y19053D01*
X271796Y18978D01*
X271879Y18901D01*
X271959Y18821D01*
X272036Y18738D01*
X272111Y18652D01*
X272182Y18564D01*
X272250Y18474D01*
X272315Y18381D01*
X272377Y18286D01*
X272435Y18189D01*
X272490Y18090D01*
X272541Y17989D01*
X272589Y17886D01*
X272634Y17782D01*
X272674Y17676D01*
X272711Y17569D01*
X272744Y17461D01*
X272774Y17351D01*
X272799Y17241D01*
X272821Y17130D01*
X272838Y17018D01*
X272852Y16905D01*
X272862Y16792D01*
X272868Y16679D01*
X272870Y16566D01*
X272868Y16453D01*
X272862Y16340D01*
X272852Y16227D01*
X272838Y16114D01*
X272821Y16002D01*
X272799Y15891D01*
X272774Y15781D01*
X272744Y15671D01*
X272711Y15563D01*
X272674Y15456D01*
X272634Y15350D01*
X272589Y15246D01*
X272541Y15143D01*
X272490Y15042D01*
X272435Y14943D01*
X272377Y14846D01*
X272315Y14751D01*
X272250Y14658D01*
X272182Y14568D01*
X272111Y14480D01*
X272036Y14394D01*
X271959Y14311D01*
X271879Y14231D01*
X271796Y14154D01*
X271710Y14079D01*
X271622Y14008D01*
X271532Y13940D01*
X271439Y13875D01*
X271344Y13813D01*
X271247Y13755D01*
X271148Y13700D01*
X271047Y13649D01*
X270944Y13601D01*
X270840Y13556D01*
X270734Y13516D01*
X270627Y13479D01*
X270519Y13446D01*
X270409Y13416D01*
X270299Y13391D01*
X270188Y13369D01*
X270076Y13352D01*
X269963Y13338D01*
X269850Y13328D01*
X269737Y13322D01*
X269624Y13320D01*
X269624Y13321D02*
X266379Y13321D01*
X270273Y13321D02*
X272870Y8128D01*
X278139Y8128D02*
X283331Y8128D01*
X278139Y8128D02*
X278139Y19812D01*
X283331Y19812D01*
X282033Y14619D02*
X278139Y14619D01*
X290204Y8128D02*
X292801Y8128D01*
X290204Y8128D02*
X290105Y8130D01*
X290005Y8136D01*
X289906Y8145D01*
X289808Y8158D01*
X289710Y8175D01*
X289612Y8196D01*
X289516Y8221D01*
X289421Y8249D01*
X289327Y8281D01*
X289234Y8316D01*
X289142Y8355D01*
X289052Y8398D01*
X288964Y8443D01*
X288877Y8493D01*
X288793Y8545D01*
X288710Y8601D01*
X288630Y8659D01*
X288552Y8721D01*
X288477Y8786D01*
X288404Y8854D01*
X288334Y8924D01*
X288266Y8997D01*
X288201Y9072D01*
X288139Y9150D01*
X288081Y9230D01*
X288025Y9313D01*
X287973Y9397D01*
X287923Y9484D01*
X287878Y9572D01*
X287835Y9662D01*
X287796Y9754D01*
X287761Y9847D01*
X287729Y9941D01*
X287701Y10036D01*
X287676Y10132D01*
X287655Y10230D01*
X287638Y10328D01*
X287625Y10426D01*
X287616Y10525D01*
X287610Y10625D01*
X287608Y10724D01*
X287608Y17216D01*
X287610Y17315D01*
X287616Y17415D01*
X287625Y17514D01*
X287638Y17612D01*
X287655Y17710D01*
X287676Y17808D01*
X287701Y17904D01*
X287729Y17999D01*
X287761Y18093D01*
X287796Y18186D01*
X287835Y18278D01*
X287878Y18368D01*
X287923Y18456D01*
X287973Y18543D01*
X288025Y18627D01*
X288081Y18710D01*
X288139Y18790D01*
X288201Y18868D01*
X288266Y18943D01*
X288334Y19016D01*
X288404Y19086D01*
X288477Y19154D01*
X288552Y19219D01*
X288630Y19281D01*
X288710Y19339D01*
X288793Y19395D01*
X288877Y19447D01*
X288964Y19497D01*
X289052Y19542D01*
X289142Y19585D01*
X289234Y19624D01*
X289326Y19659D01*
X289421Y19691D01*
X289516Y19719D01*
X289612Y19744D01*
X289710Y19765D01*
X289808Y19782D01*
X289906Y19795D01*
X290005Y19804D01*
X290105Y19810D01*
X290204Y19812D01*
X292801Y19812D01*
X299650Y19812D02*
X299650Y8128D01*
X296404Y19812D02*
X302895Y19812D01*
X308032Y19812D02*
X308032Y8128D01*
X309330Y8128D02*
X306733Y8128D01*
X306733Y19812D02*
X309330Y19812D01*
X313930Y16566D02*
X313930Y11374D01*
X313929Y16566D02*
X313931Y16679D01*
X313937Y16792D01*
X313947Y16905D01*
X313961Y17018D01*
X313978Y17130D01*
X314000Y17241D01*
X314025Y17351D01*
X314055Y17461D01*
X314088Y17569D01*
X314125Y17676D01*
X314165Y17782D01*
X314210Y17886D01*
X314258Y17989D01*
X314309Y18090D01*
X314364Y18189D01*
X314422Y18286D01*
X314484Y18381D01*
X314549Y18474D01*
X314617Y18564D01*
X314688Y18652D01*
X314763Y18738D01*
X314840Y18821D01*
X314920Y18901D01*
X315003Y18978D01*
X315089Y19053D01*
X315177Y19124D01*
X315267Y19192D01*
X315360Y19257D01*
X315455Y19319D01*
X315552Y19377D01*
X315651Y19432D01*
X315752Y19483D01*
X315855Y19531D01*
X315959Y19576D01*
X316065Y19616D01*
X316172Y19653D01*
X316280Y19686D01*
X316390Y19716D01*
X316500Y19741D01*
X316611Y19763D01*
X316723Y19780D01*
X316836Y19794D01*
X316949Y19804D01*
X317062Y19810D01*
X317175Y19812D01*
X317288Y19810D01*
X317401Y19804D01*
X317514Y19794D01*
X317627Y19780D01*
X317739Y19763D01*
X317850Y19741D01*
X317960Y19716D01*
X318070Y19686D01*
X318178Y19653D01*
X318285Y19616D01*
X318391Y19576D01*
X318495Y19531D01*
X318598Y19483D01*
X318699Y19432D01*
X318798Y19377D01*
X318895Y19319D01*
X318990Y19257D01*
X319083Y19192D01*
X319173Y19124D01*
X319261Y19053D01*
X319347Y18978D01*
X319430Y18901D01*
X319510Y18821D01*
X319587Y18738D01*
X319662Y18652D01*
X319733Y18564D01*
X319801Y18474D01*
X319866Y18381D01*
X319928Y18286D01*
X319986Y18189D01*
X320041Y18090D01*
X320092Y17989D01*
X320140Y17886D01*
X320185Y17782D01*
X320225Y17676D01*
X320262Y17569D01*
X320295Y17461D01*
X320325Y17351D01*
X320350Y17241D01*
X320372Y17130D01*
X320389Y17018D01*
X320403Y16905D01*
X320413Y16792D01*
X320419Y16679D01*
X320421Y16566D01*
X320421Y11374D01*
X320419Y11261D01*
X320413Y11148D01*
X320403Y11035D01*
X320389Y10922D01*
X320372Y10810D01*
X320350Y10699D01*
X320325Y10589D01*
X320295Y10479D01*
X320262Y10371D01*
X320225Y10264D01*
X320185Y10158D01*
X320140Y10054D01*
X320092Y9951D01*
X320041Y9850D01*
X319986Y9751D01*
X319928Y9654D01*
X319866Y9559D01*
X319801Y9466D01*
X319733Y9376D01*
X319662Y9288D01*
X319587Y9202D01*
X319510Y9119D01*
X319430Y9039D01*
X319347Y8962D01*
X319261Y8887D01*
X319173Y8816D01*
X319083Y8748D01*
X318990Y8683D01*
X318895Y8621D01*
X318798Y8563D01*
X318699Y8508D01*
X318598Y8457D01*
X318495Y8409D01*
X318391Y8364D01*
X318285Y8324D01*
X318178Y8287D01*
X318070Y8254D01*
X317960Y8224D01*
X317850Y8199D01*
X317739Y8177D01*
X317627Y8160D01*
X317514Y8146D01*
X317401Y8136D01*
X317288Y8130D01*
X317175Y8128D01*
X317062Y8130D01*
X316949Y8136D01*
X316836Y8146D01*
X316723Y8160D01*
X316611Y8177D01*
X316500Y8199D01*
X316390Y8224D01*
X316280Y8254D01*
X316172Y8287D01*
X316065Y8324D01*
X315959Y8364D01*
X315855Y8409D01*
X315752Y8457D01*
X315651Y8508D01*
X315552Y8563D01*
X315455Y8621D01*
X315360Y8683D01*
X315267Y8748D01*
X315177Y8816D01*
X315089Y8887D01*
X315003Y8962D01*
X314920Y9039D01*
X314840Y9119D01*
X314763Y9202D01*
X314688Y9288D01*
X314617Y9376D01*
X314549Y9466D01*
X314484Y9559D01*
X314422Y9654D01*
X314364Y9751D01*
X314309Y9850D01*
X314258Y9951D01*
X314210Y10054D01*
X314165Y10158D01*
X314125Y10264D01*
X314088Y10371D01*
X314055Y10479D01*
X314025Y10589D01*
X314000Y10699D01*
X313978Y10810D01*
X313961Y10922D01*
X313947Y11035D01*
X313937Y11148D01*
X313931Y11261D01*
X313929Y11374D01*
X325741Y8128D02*
X325741Y19812D01*
X332232Y8128D01*
X332232Y19812D01*
D13*
X499750Y123190D02*
X541650Y123190D01*
X544830Y151059D02*
X544547Y151642D01*
X544249Y152219D01*
X543938Y152788D01*
X543613Y153349D01*
X543274Y153902D01*
X542922Y154447D01*
X542557Y154983D01*
X542179Y155510D01*
X541788Y156027D01*
X541385Y156535D01*
X540969Y157033D01*
X540542Y157521D01*
X540103Y157998D01*
X539652Y158465D01*
X539190Y158920D01*
X538717Y159364D01*
X538234Y159796D01*
X537740Y160217D01*
X537236Y160625D01*
X536722Y161021D01*
X536199Y161404D01*
X535667Y161775D01*
X535126Y162132D01*
X534576Y162476D01*
X534018Y162807D01*
X533452Y163124D01*
X532879Y163427D01*
X532298Y163716D01*
X531711Y163991D01*
X531117Y164252D01*
X530517Y164498D01*
X529911Y164729D01*
X529299Y164946D01*
X528683Y165147D01*
X528062Y165334D01*
X527436Y165505D01*
X526807Y165661D01*
X526174Y165802D01*
X525537Y165928D01*
X524898Y166037D01*
X524257Y166132D01*
X523613Y166210D01*
X522967Y166273D01*
X522320Y166321D01*
X521673Y166352D01*
X521024Y166368D01*
X520376Y166368D01*
X519727Y166352D01*
X519080Y166321D01*
X518433Y166273D01*
X517787Y166210D01*
X517143Y166132D01*
X516502Y166037D01*
X515863Y165928D01*
X515226Y165802D01*
X514593Y165661D01*
X513964Y165505D01*
X513338Y165334D01*
X512717Y165147D01*
X512101Y164946D01*
X511489Y164729D01*
X510883Y164498D01*
X510283Y164252D01*
X509689Y163991D01*
X509102Y163716D01*
X508521Y163427D01*
X507948Y163124D01*
X507382Y162807D01*
X506824Y162476D01*
X506274Y162132D01*
X505733Y161775D01*
X505201Y161404D01*
X504678Y161021D01*
X504164Y160625D01*
X503660Y160217D01*
X503166Y159796D01*
X502683Y159364D01*
X502210Y158920D01*
X501748Y158465D01*
X501297Y157998D01*
X500858Y157521D01*
X500431Y157033D01*
X500015Y156535D01*
X499612Y156027D01*
X499221Y155510D01*
X498843Y154983D01*
X498478Y154447D01*
X498126Y153902D01*
X497787Y153349D01*
X497462Y152788D01*
X497151Y152219D01*
X496853Y151642D01*
X496570Y151059D01*
X496565Y128341D02*
X496830Y127795D01*
X497107Y127255D01*
X497396Y126722D01*
X497698Y126195D01*
X498011Y125675D01*
X498336Y125162D01*
X498673Y124657D01*
X499021Y124160D01*
X499380Y123671D01*
X499750Y123190D01*
X506660Y138430D02*
X509340Y138430D01*
X532060Y138430D02*
X534740Y138430D01*
X544947Y128582D02*
X544676Y128009D01*
X544391Y127443D01*
X544094Y126884D01*
X543783Y126332D01*
X543458Y125788D01*
X543122Y125252D01*
X542772Y124723D01*
X542410Y124203D01*
X542036Y123692D01*
X541650Y123190D01*
D10*
X497205Y170815D02*
X497205Y182245D01*
X495935Y170815D02*
X498475Y170815D01*
X498475Y182245D02*
X495935Y182245D01*
X505677Y170815D02*
X508217Y170815D01*
X505677Y170815D02*
X505577Y170817D01*
X505478Y170823D01*
X505378Y170833D01*
X505280Y170846D01*
X505181Y170864D01*
X505084Y170885D01*
X504988Y170910D01*
X504892Y170939D01*
X504798Y170972D01*
X504705Y171008D01*
X504614Y171048D01*
X504524Y171092D01*
X504436Y171139D01*
X504350Y171189D01*
X504266Y171243D01*
X504184Y171300D01*
X504105Y171360D01*
X504027Y171424D01*
X503953Y171490D01*
X503881Y171559D01*
X503812Y171631D01*
X503746Y171705D01*
X503682Y171783D01*
X503622Y171862D01*
X503565Y171944D01*
X503511Y172028D01*
X503461Y172114D01*
X503414Y172202D01*
X503370Y172292D01*
X503330Y172383D01*
X503294Y172476D01*
X503261Y172570D01*
X503232Y172666D01*
X503207Y172762D01*
X503186Y172859D01*
X503168Y172958D01*
X503155Y173056D01*
X503145Y173156D01*
X503139Y173255D01*
X503137Y173355D01*
X503137Y179705D01*
X503139Y179805D01*
X503145Y179904D01*
X503155Y180004D01*
X503168Y180102D01*
X503186Y180201D01*
X503207Y180298D01*
X503232Y180394D01*
X503261Y180490D01*
X503294Y180584D01*
X503330Y180677D01*
X503370Y180768D01*
X503414Y180858D01*
X503461Y180946D01*
X503511Y181032D01*
X503565Y181116D01*
X503622Y181198D01*
X503682Y181277D01*
X503746Y181355D01*
X503812Y181429D01*
X503881Y181501D01*
X503953Y181570D01*
X504027Y181636D01*
X504105Y181700D01*
X504184Y181760D01*
X504266Y181817D01*
X504350Y181871D01*
X504436Y181921D01*
X504524Y181968D01*
X504614Y182012D01*
X504705Y182052D01*
X504798Y182088D01*
X504892Y182121D01*
X504988Y182150D01*
X505084Y182175D01*
X505181Y182196D01*
X505280Y182214D01*
X505378Y182227D01*
X505478Y182237D01*
X505577Y182243D01*
X505677Y182245D01*
X508217Y182245D01*
X512699Y179705D02*
X515874Y182245D01*
X515874Y170815D01*
X512699Y170815D02*
X519049Y170815D01*
D14*
X450342Y134045D02*
X438658Y134045D01*
X438658Y137290D01*
X438660Y137403D01*
X438666Y137516D01*
X438676Y137629D01*
X438690Y137742D01*
X438707Y137854D01*
X438729Y137965D01*
X438754Y138075D01*
X438784Y138185D01*
X438817Y138293D01*
X438854Y138400D01*
X438894Y138506D01*
X438939Y138610D01*
X438987Y138713D01*
X439038Y138814D01*
X439093Y138913D01*
X439151Y139010D01*
X439213Y139105D01*
X439278Y139198D01*
X439346Y139288D01*
X439417Y139376D01*
X439492Y139462D01*
X439569Y139545D01*
X439649Y139625D01*
X439732Y139702D01*
X439818Y139777D01*
X439906Y139848D01*
X439996Y139916D01*
X440089Y139981D01*
X440184Y140043D01*
X440281Y140101D01*
X440380Y140156D01*
X440481Y140207D01*
X440584Y140255D01*
X440688Y140300D01*
X440794Y140340D01*
X440901Y140377D01*
X441009Y140410D01*
X441119Y140440D01*
X441229Y140465D01*
X441340Y140487D01*
X441452Y140504D01*
X441565Y140518D01*
X441678Y140528D01*
X441791Y140534D01*
X441904Y140536D01*
X442017Y140534D01*
X442130Y140528D01*
X442243Y140518D01*
X442356Y140504D01*
X442468Y140487D01*
X442579Y140465D01*
X442689Y140440D01*
X442799Y140410D01*
X442907Y140377D01*
X443014Y140340D01*
X443120Y140300D01*
X443224Y140255D01*
X443327Y140207D01*
X443428Y140156D01*
X443527Y140101D01*
X443624Y140043D01*
X443719Y139981D01*
X443812Y139916D01*
X443902Y139848D01*
X443990Y139777D01*
X444076Y139702D01*
X444159Y139625D01*
X444239Y139545D01*
X444316Y139462D01*
X444391Y139376D01*
X444462Y139288D01*
X444530Y139198D01*
X444595Y139105D01*
X444657Y139010D01*
X444715Y138913D01*
X444770Y138814D01*
X444821Y138713D01*
X444869Y138610D01*
X444914Y138506D01*
X444954Y138400D01*
X444991Y138293D01*
X445024Y138185D01*
X445054Y138075D01*
X445079Y137965D01*
X445101Y137854D01*
X445118Y137742D01*
X445132Y137629D01*
X445142Y137516D01*
X445148Y137403D01*
X445150Y137290D01*
X445149Y137290D02*
X445149Y134045D01*
X445149Y137939D02*
X450342Y140536D01*
X441254Y145401D02*
X438658Y148646D01*
X450342Y148646D01*
X450342Y145401D02*
X450342Y151892D01*
X221742Y292608D02*
X210058Y292608D01*
X210058Y295854D01*
X210060Y295967D01*
X210066Y296080D01*
X210076Y296193D01*
X210090Y296306D01*
X210107Y296418D01*
X210129Y296529D01*
X210154Y296639D01*
X210184Y296749D01*
X210217Y296857D01*
X210254Y296964D01*
X210294Y297070D01*
X210339Y297174D01*
X210387Y297277D01*
X210438Y297378D01*
X210493Y297477D01*
X210551Y297574D01*
X210613Y297669D01*
X210678Y297762D01*
X210746Y297852D01*
X210817Y297940D01*
X210892Y298026D01*
X210969Y298109D01*
X211049Y298189D01*
X211132Y298266D01*
X211218Y298341D01*
X211306Y298412D01*
X211396Y298480D01*
X211489Y298545D01*
X211584Y298607D01*
X211681Y298665D01*
X211780Y298720D01*
X211881Y298771D01*
X211984Y298819D01*
X212088Y298864D01*
X212194Y298904D01*
X212301Y298941D01*
X212409Y298974D01*
X212519Y299004D01*
X212629Y299029D01*
X212740Y299051D01*
X212852Y299068D01*
X212965Y299082D01*
X213078Y299092D01*
X213191Y299098D01*
X213304Y299100D01*
X213417Y299098D01*
X213530Y299092D01*
X213643Y299082D01*
X213756Y299068D01*
X213868Y299051D01*
X213979Y299029D01*
X214089Y299004D01*
X214199Y298974D01*
X214307Y298941D01*
X214414Y298904D01*
X214520Y298864D01*
X214624Y298819D01*
X214727Y298771D01*
X214828Y298720D01*
X214927Y298665D01*
X215024Y298607D01*
X215119Y298545D01*
X215212Y298480D01*
X215302Y298412D01*
X215390Y298341D01*
X215476Y298266D01*
X215559Y298189D01*
X215639Y298109D01*
X215716Y298026D01*
X215791Y297940D01*
X215862Y297852D01*
X215930Y297762D01*
X215995Y297669D01*
X216057Y297574D01*
X216115Y297477D01*
X216170Y297378D01*
X216221Y297277D01*
X216269Y297174D01*
X216314Y297070D01*
X216354Y296964D01*
X216391Y296857D01*
X216424Y296749D01*
X216454Y296639D01*
X216479Y296529D01*
X216501Y296418D01*
X216518Y296306D01*
X216532Y296193D01*
X216542Y296080D01*
X216548Y295967D01*
X216550Y295854D01*
X216549Y295854D02*
X216549Y292608D01*
X216549Y296503D02*
X221742Y299099D01*
X212654Y303964D02*
X210058Y307210D01*
X221742Y307210D01*
X221742Y310455D02*
X221742Y303964D01*
X215900Y315394D02*
X215670Y315397D01*
X215440Y315405D01*
X215211Y315419D01*
X214982Y315438D01*
X214753Y315463D01*
X214525Y315493D01*
X214298Y315528D01*
X214072Y315569D01*
X213847Y315615D01*
X213623Y315667D01*
X213400Y315724D01*
X213179Y315786D01*
X212959Y315854D01*
X212741Y315927D01*
X212525Y316005D01*
X212311Y316088D01*
X212099Y316176D01*
X211888Y316269D01*
X211681Y316368D01*
X211591Y316401D01*
X211502Y316437D01*
X211414Y316477D01*
X211329Y316521D01*
X211245Y316568D01*
X211163Y316618D01*
X211083Y316672D01*
X211006Y316728D01*
X210930Y316788D01*
X210857Y316851D01*
X210787Y316916D01*
X210719Y316985D01*
X210655Y317056D01*
X210593Y317129D01*
X210534Y317205D01*
X210478Y317283D01*
X210425Y317364D01*
X210376Y317446D01*
X210330Y317530D01*
X210287Y317617D01*
X210248Y317704D01*
X210212Y317794D01*
X210180Y317884D01*
X210152Y317976D01*
X210127Y318069D01*
X210106Y318163D01*
X210089Y318257D01*
X210075Y318352D01*
X210066Y318448D01*
X210060Y318544D01*
X210058Y318640D01*
X210060Y318736D01*
X210066Y318832D01*
X210075Y318928D01*
X210089Y319023D01*
X210106Y319117D01*
X210127Y319211D01*
X210152Y319304D01*
X210180Y319396D01*
X210212Y319486D01*
X210248Y319576D01*
X210287Y319664D01*
X210330Y319750D01*
X210376Y319834D01*
X210425Y319916D01*
X210478Y319997D01*
X210534Y320075D01*
X210593Y320151D01*
X210655Y320224D01*
X210719Y320295D01*
X210787Y320364D01*
X210857Y320429D01*
X210930Y320492D01*
X211006Y320552D01*
X211083Y320608D01*
X211163Y320662D01*
X211245Y320712D01*
X211329Y320759D01*
X211414Y320803D01*
X211502Y320843D01*
X211591Y320879D01*
X211681Y320912D01*
X211888Y321011D01*
X212099Y321104D01*
X212311Y321192D01*
X212525Y321275D01*
X212741Y321353D01*
X212959Y321426D01*
X213179Y321494D01*
X213400Y321556D01*
X213623Y321613D01*
X213847Y321665D01*
X214072Y321711D01*
X214298Y321752D01*
X214525Y321787D01*
X214753Y321817D01*
X214982Y321842D01*
X215211Y321861D01*
X215440Y321875D01*
X215670Y321883D01*
X215900Y321886D01*
X215900Y315394D02*
X216130Y315397D01*
X216360Y315405D01*
X216589Y315419D01*
X216818Y315438D01*
X217047Y315463D01*
X217275Y315493D01*
X217502Y315528D01*
X217728Y315569D01*
X217953Y315615D01*
X218177Y315667D01*
X218400Y315724D01*
X218621Y315786D01*
X218841Y315854D01*
X219059Y315927D01*
X219275Y316005D01*
X219489Y316088D01*
X219701Y316176D01*
X219912Y316269D01*
X220119Y316368D01*
X220209Y316401D01*
X220298Y316437D01*
X220386Y316478D01*
X220471Y316521D01*
X220555Y316568D01*
X220637Y316618D01*
X220717Y316672D01*
X220794Y316728D01*
X220870Y316788D01*
X220943Y316851D01*
X221013Y316916D01*
X221081Y316985D01*
X221145Y317056D01*
X221207Y317129D01*
X221266Y317205D01*
X221322Y317283D01*
X221375Y317364D01*
X221424Y317446D01*
X221470Y317530D01*
X221513Y317617D01*
X221552Y317704D01*
X221588Y317794D01*
X221620Y317884D01*
X221648Y317976D01*
X221673Y318069D01*
X221694Y318163D01*
X221711Y318257D01*
X221725Y318352D01*
X221734Y318448D01*
X221740Y318544D01*
X221742Y318640D01*
X220119Y320912D02*
X219912Y321011D01*
X219701Y321104D01*
X219489Y321192D01*
X219275Y321275D01*
X219059Y321353D01*
X218841Y321426D01*
X218621Y321494D01*
X218400Y321556D01*
X218177Y321613D01*
X217953Y321665D01*
X217728Y321711D01*
X217502Y321752D01*
X217275Y321787D01*
X217047Y321817D01*
X216818Y321842D01*
X216589Y321861D01*
X216360Y321875D01*
X216130Y321883D01*
X215900Y321886D01*
X220119Y320912D02*
X220209Y320879D01*
X220298Y320843D01*
X220386Y320803D01*
X220471Y320759D01*
X220555Y320712D01*
X220637Y320662D01*
X220717Y320608D01*
X220794Y320552D01*
X220870Y320492D01*
X220943Y320429D01*
X221013Y320364D01*
X221081Y320295D01*
X221145Y320224D01*
X221207Y320151D01*
X221266Y320075D01*
X221322Y319997D01*
X221375Y319916D01*
X221424Y319834D01*
X221470Y319750D01*
X221513Y319663D01*
X221552Y319576D01*
X221588Y319486D01*
X221620Y319396D01*
X221648Y319304D01*
X221673Y319211D01*
X221694Y319117D01*
X221711Y319023D01*
X221725Y318928D01*
X221734Y318832D01*
X221740Y318736D01*
X221742Y318640D01*
X219146Y316043D02*
X212654Y321236D01*
X235645Y107442D02*
X235645Y95758D01*
X235645Y107442D02*
X238890Y107442D01*
X239003Y107440D01*
X239116Y107434D01*
X239229Y107424D01*
X239342Y107410D01*
X239454Y107393D01*
X239565Y107371D01*
X239675Y107346D01*
X239785Y107316D01*
X239893Y107283D01*
X240000Y107246D01*
X240106Y107206D01*
X240210Y107161D01*
X240313Y107113D01*
X240414Y107062D01*
X240513Y107007D01*
X240610Y106949D01*
X240705Y106887D01*
X240798Y106822D01*
X240888Y106754D01*
X240976Y106683D01*
X241062Y106608D01*
X241145Y106531D01*
X241225Y106451D01*
X241302Y106368D01*
X241377Y106282D01*
X241448Y106194D01*
X241516Y106104D01*
X241581Y106011D01*
X241643Y105916D01*
X241701Y105819D01*
X241756Y105720D01*
X241807Y105619D01*
X241855Y105516D01*
X241900Y105412D01*
X241940Y105306D01*
X241977Y105199D01*
X242010Y105091D01*
X242040Y104981D01*
X242065Y104871D01*
X242087Y104760D01*
X242104Y104648D01*
X242118Y104535D01*
X242128Y104422D01*
X242134Y104309D01*
X242136Y104196D01*
X242134Y104083D01*
X242128Y103970D01*
X242118Y103857D01*
X242104Y103744D01*
X242087Y103632D01*
X242065Y103521D01*
X242040Y103411D01*
X242010Y103301D01*
X241977Y103193D01*
X241940Y103086D01*
X241900Y102980D01*
X241855Y102876D01*
X241807Y102773D01*
X241756Y102672D01*
X241701Y102573D01*
X241643Y102476D01*
X241581Y102381D01*
X241516Y102288D01*
X241448Y102198D01*
X241377Y102110D01*
X241302Y102024D01*
X241225Y101941D01*
X241145Y101861D01*
X241062Y101784D01*
X240976Y101709D01*
X240888Y101638D01*
X240798Y101570D01*
X240705Y101505D01*
X240610Y101443D01*
X240513Y101385D01*
X240414Y101330D01*
X240313Y101279D01*
X240210Y101231D01*
X240106Y101186D01*
X240000Y101146D01*
X239893Y101109D01*
X239785Y101076D01*
X239675Y101046D01*
X239565Y101021D01*
X239454Y100999D01*
X239342Y100982D01*
X239229Y100968D01*
X239116Y100958D01*
X239003Y100952D01*
X238890Y100950D01*
X238890Y100951D02*
X235645Y100951D01*
X239539Y100951D02*
X242136Y95758D01*
X253492Y104521D02*
X253490Y104628D01*
X253484Y104734D01*
X253474Y104840D01*
X253461Y104946D01*
X253443Y105052D01*
X253422Y105156D01*
X253397Y105260D01*
X253368Y105363D01*
X253336Y105464D01*
X253299Y105564D01*
X253259Y105663D01*
X253216Y105761D01*
X253169Y105857D01*
X253118Y105951D01*
X253064Y106043D01*
X253007Y106133D01*
X252947Y106221D01*
X252883Y106306D01*
X252816Y106389D01*
X252746Y106470D01*
X252674Y106548D01*
X252598Y106624D01*
X252520Y106696D01*
X252439Y106766D01*
X252356Y106833D01*
X252271Y106897D01*
X252183Y106957D01*
X252093Y107014D01*
X252001Y107068D01*
X251907Y107119D01*
X251811Y107166D01*
X251713Y107209D01*
X251614Y107249D01*
X251514Y107286D01*
X251413Y107318D01*
X251310Y107347D01*
X251206Y107372D01*
X251102Y107393D01*
X250996Y107411D01*
X250890Y107424D01*
X250784Y107434D01*
X250678Y107440D01*
X250571Y107442D01*
X250450Y107440D01*
X250329Y107434D01*
X250209Y107424D01*
X250088Y107411D01*
X249969Y107393D01*
X249849Y107372D01*
X249731Y107347D01*
X249614Y107318D01*
X249497Y107285D01*
X249382Y107249D01*
X249268Y107208D01*
X249155Y107165D01*
X249043Y107117D01*
X248934Y107066D01*
X248826Y107011D01*
X248719Y106953D01*
X248615Y106892D01*
X248513Y106827D01*
X248413Y106759D01*
X248315Y106688D01*
X248219Y106614D01*
X248126Y106537D01*
X248036Y106456D01*
X247948Y106373D01*
X247863Y106287D01*
X247780Y106198D01*
X247701Y106107D01*
X247624Y106013D01*
X247551Y105917D01*
X247481Y105819D01*
X247414Y105718D01*
X247350Y105615D01*
X247290Y105510D01*
X247233Y105403D01*
X247179Y105295D01*
X247129Y105185D01*
X247083Y105073D01*
X247040Y104960D01*
X247001Y104845D01*
X252519Y102249D02*
X252598Y102326D01*
X252674Y102407D01*
X252747Y102490D01*
X252817Y102575D01*
X252884Y102663D01*
X252948Y102753D01*
X253008Y102845D01*
X253065Y102940D01*
X253119Y103036D01*
X253170Y103134D01*
X253217Y103234D01*
X253261Y103336D01*
X253301Y103439D01*
X253337Y103543D01*
X253369Y103649D01*
X253398Y103755D01*
X253423Y103863D01*
X253445Y103971D01*
X253462Y104081D01*
X253476Y104190D01*
X253485Y104300D01*
X253491Y104411D01*
X253493Y104521D01*
X252518Y102249D02*
X247001Y95758D01*
X253492Y95758D01*
X267208Y146558D02*
X267208Y158242D01*
X270454Y158242D01*
X270567Y158240D01*
X270680Y158234D01*
X270793Y158224D01*
X270906Y158210D01*
X271018Y158193D01*
X271129Y158171D01*
X271239Y158146D01*
X271349Y158116D01*
X271457Y158083D01*
X271564Y158046D01*
X271670Y158006D01*
X271774Y157961D01*
X271877Y157913D01*
X271978Y157862D01*
X272077Y157807D01*
X272174Y157749D01*
X272269Y157687D01*
X272362Y157622D01*
X272452Y157554D01*
X272540Y157483D01*
X272626Y157408D01*
X272709Y157331D01*
X272789Y157251D01*
X272866Y157168D01*
X272941Y157082D01*
X273012Y156994D01*
X273080Y156904D01*
X273145Y156811D01*
X273207Y156716D01*
X273265Y156619D01*
X273320Y156520D01*
X273371Y156419D01*
X273419Y156316D01*
X273464Y156212D01*
X273504Y156106D01*
X273541Y155999D01*
X273574Y155891D01*
X273604Y155781D01*
X273629Y155671D01*
X273651Y155560D01*
X273668Y155448D01*
X273682Y155335D01*
X273692Y155222D01*
X273698Y155109D01*
X273700Y154996D01*
X273698Y154883D01*
X273692Y154770D01*
X273682Y154657D01*
X273668Y154544D01*
X273651Y154432D01*
X273629Y154321D01*
X273604Y154211D01*
X273574Y154101D01*
X273541Y153993D01*
X273504Y153886D01*
X273464Y153780D01*
X273419Y153676D01*
X273371Y153573D01*
X273320Y153472D01*
X273265Y153373D01*
X273207Y153276D01*
X273145Y153181D01*
X273080Y153088D01*
X273012Y152998D01*
X272941Y152910D01*
X272866Y152824D01*
X272789Y152741D01*
X272709Y152661D01*
X272626Y152584D01*
X272540Y152509D01*
X272452Y152438D01*
X272362Y152370D01*
X272269Y152305D01*
X272174Y152243D01*
X272077Y152185D01*
X271978Y152130D01*
X271877Y152079D01*
X271774Y152031D01*
X271670Y151986D01*
X271564Y151946D01*
X271457Y151909D01*
X271349Y151876D01*
X271239Y151846D01*
X271129Y151821D01*
X271018Y151799D01*
X270906Y151782D01*
X270793Y151768D01*
X270680Y151758D01*
X270567Y151752D01*
X270454Y151750D01*
X270454Y151751D02*
X267208Y151751D01*
X271103Y151751D02*
X273699Y146558D01*
X278564Y146558D02*
X281810Y146558D01*
X281923Y146560D01*
X282036Y146566D01*
X282149Y146576D01*
X282262Y146590D01*
X282374Y146607D01*
X282485Y146629D01*
X282595Y146654D01*
X282705Y146684D01*
X282813Y146717D01*
X282920Y146754D01*
X283026Y146794D01*
X283130Y146839D01*
X283233Y146887D01*
X283334Y146938D01*
X283433Y146993D01*
X283530Y147051D01*
X283625Y147113D01*
X283718Y147178D01*
X283808Y147246D01*
X283896Y147317D01*
X283982Y147392D01*
X284065Y147469D01*
X284145Y147549D01*
X284222Y147632D01*
X284297Y147718D01*
X284368Y147806D01*
X284436Y147896D01*
X284501Y147989D01*
X284563Y148084D01*
X284621Y148181D01*
X284676Y148280D01*
X284727Y148381D01*
X284775Y148484D01*
X284820Y148588D01*
X284860Y148694D01*
X284897Y148801D01*
X284930Y148909D01*
X284960Y149019D01*
X284985Y149129D01*
X285007Y149240D01*
X285024Y149352D01*
X285038Y149465D01*
X285048Y149578D01*
X285054Y149691D01*
X285056Y149804D01*
X285054Y149917D01*
X285048Y150030D01*
X285038Y150143D01*
X285024Y150256D01*
X285007Y150368D01*
X284985Y150479D01*
X284960Y150589D01*
X284930Y150699D01*
X284897Y150807D01*
X284860Y150914D01*
X284820Y151020D01*
X284775Y151124D01*
X284727Y151227D01*
X284676Y151328D01*
X284621Y151427D01*
X284563Y151524D01*
X284501Y151619D01*
X284436Y151712D01*
X284368Y151802D01*
X284297Y151890D01*
X284222Y151976D01*
X284145Y152059D01*
X284065Y152139D01*
X283982Y152216D01*
X283896Y152291D01*
X283808Y152362D01*
X283718Y152430D01*
X283625Y152495D01*
X283530Y152557D01*
X283433Y152615D01*
X283334Y152670D01*
X283233Y152721D01*
X283130Y152769D01*
X283026Y152814D01*
X282920Y152854D01*
X282813Y152891D01*
X282705Y152924D01*
X282595Y152954D01*
X282485Y152979D01*
X282374Y153001D01*
X282262Y153018D01*
X282149Y153032D01*
X282036Y153042D01*
X281923Y153048D01*
X281810Y153050D01*
X282459Y158242D02*
X278564Y158242D01*
X282459Y158242D02*
X282560Y158240D01*
X282660Y158234D01*
X282760Y158224D01*
X282860Y158211D01*
X282959Y158193D01*
X283058Y158172D01*
X283155Y158147D01*
X283252Y158118D01*
X283347Y158085D01*
X283441Y158049D01*
X283533Y158009D01*
X283624Y157966D01*
X283713Y157919D01*
X283800Y157869D01*
X283886Y157815D01*
X283969Y157758D01*
X284049Y157698D01*
X284128Y157635D01*
X284204Y157568D01*
X284277Y157499D01*
X284347Y157427D01*
X284415Y157353D01*
X284480Y157276D01*
X284541Y157196D01*
X284600Y157114D01*
X284655Y157030D01*
X284707Y156944D01*
X284756Y156856D01*
X284801Y156766D01*
X284843Y156674D01*
X284881Y156581D01*
X284915Y156486D01*
X284946Y156391D01*
X284973Y156294D01*
X284996Y156196D01*
X285016Y156097D01*
X285031Y155997D01*
X285043Y155897D01*
X285051Y155797D01*
X285055Y155696D01*
X285055Y155596D01*
X285051Y155495D01*
X285043Y155395D01*
X285031Y155295D01*
X285016Y155195D01*
X284996Y155096D01*
X284973Y154998D01*
X284946Y154901D01*
X284915Y154806D01*
X284881Y154711D01*
X284843Y154618D01*
X284801Y154526D01*
X284756Y154436D01*
X284707Y154348D01*
X284655Y154262D01*
X284600Y154178D01*
X284541Y154096D01*
X284480Y154016D01*
X284415Y153939D01*
X284347Y153865D01*
X284277Y153793D01*
X284204Y153724D01*
X284128Y153657D01*
X284049Y153594D01*
X283969Y153534D01*
X283886Y153477D01*
X283800Y153423D01*
X283713Y153373D01*
X283624Y153326D01*
X283533Y153283D01*
X283441Y153243D01*
X283347Y153207D01*
X283252Y153174D01*
X283155Y153145D01*
X283058Y153120D01*
X282959Y153099D01*
X282860Y153081D01*
X282760Y153068D01*
X282660Y153058D01*
X282560Y153052D01*
X282459Y153050D01*
X282459Y153049D02*
X279863Y153049D01*
X464058Y267208D02*
X475742Y267208D01*
X464058Y267208D02*
X464058Y270454D01*
X464060Y270567D01*
X464066Y270680D01*
X464076Y270793D01*
X464090Y270906D01*
X464107Y271018D01*
X464129Y271129D01*
X464154Y271239D01*
X464184Y271349D01*
X464217Y271457D01*
X464254Y271564D01*
X464294Y271670D01*
X464339Y271774D01*
X464387Y271877D01*
X464438Y271978D01*
X464493Y272077D01*
X464551Y272174D01*
X464613Y272269D01*
X464678Y272362D01*
X464746Y272452D01*
X464817Y272540D01*
X464892Y272626D01*
X464969Y272709D01*
X465049Y272789D01*
X465132Y272866D01*
X465218Y272941D01*
X465306Y273012D01*
X465396Y273080D01*
X465489Y273145D01*
X465584Y273207D01*
X465681Y273265D01*
X465780Y273320D01*
X465881Y273371D01*
X465984Y273419D01*
X466088Y273464D01*
X466194Y273504D01*
X466301Y273541D01*
X466409Y273574D01*
X466519Y273604D01*
X466629Y273629D01*
X466740Y273651D01*
X466852Y273668D01*
X466965Y273682D01*
X467078Y273692D01*
X467191Y273698D01*
X467304Y273700D01*
X467417Y273698D01*
X467530Y273692D01*
X467643Y273682D01*
X467756Y273668D01*
X467868Y273651D01*
X467979Y273629D01*
X468089Y273604D01*
X468199Y273574D01*
X468307Y273541D01*
X468414Y273504D01*
X468520Y273464D01*
X468624Y273419D01*
X468727Y273371D01*
X468828Y273320D01*
X468927Y273265D01*
X469024Y273207D01*
X469119Y273145D01*
X469212Y273080D01*
X469302Y273012D01*
X469390Y272941D01*
X469476Y272866D01*
X469559Y272789D01*
X469639Y272709D01*
X469716Y272626D01*
X469791Y272540D01*
X469862Y272452D01*
X469930Y272362D01*
X469995Y272269D01*
X470057Y272174D01*
X470115Y272077D01*
X470170Y271978D01*
X470221Y271877D01*
X470269Y271774D01*
X470314Y271670D01*
X470354Y271564D01*
X470391Y271457D01*
X470424Y271349D01*
X470454Y271239D01*
X470479Y271129D01*
X470501Y271018D01*
X470518Y270906D01*
X470532Y270793D01*
X470542Y270680D01*
X470548Y270567D01*
X470550Y270454D01*
X470549Y270454D02*
X470549Y267208D01*
X470549Y271103D02*
X475742Y273699D01*
X472496Y278564D02*
X472383Y278566D01*
X472270Y278572D01*
X472157Y278582D01*
X472044Y278596D01*
X471932Y278613D01*
X471821Y278635D01*
X471711Y278660D01*
X471601Y278690D01*
X471493Y278723D01*
X471386Y278760D01*
X471280Y278800D01*
X471176Y278845D01*
X471073Y278893D01*
X470972Y278944D01*
X470873Y278999D01*
X470776Y279057D01*
X470681Y279119D01*
X470588Y279184D01*
X470498Y279252D01*
X470410Y279323D01*
X470324Y279398D01*
X470241Y279475D01*
X470161Y279555D01*
X470084Y279638D01*
X470009Y279724D01*
X469938Y279812D01*
X469870Y279902D01*
X469805Y279995D01*
X469743Y280090D01*
X469685Y280187D01*
X469630Y280286D01*
X469579Y280387D01*
X469531Y280490D01*
X469486Y280594D01*
X469446Y280700D01*
X469409Y280807D01*
X469376Y280915D01*
X469346Y281025D01*
X469321Y281135D01*
X469299Y281246D01*
X469282Y281358D01*
X469268Y281471D01*
X469258Y281584D01*
X469252Y281697D01*
X469250Y281810D01*
X469252Y281923D01*
X469258Y282036D01*
X469268Y282149D01*
X469282Y282262D01*
X469299Y282374D01*
X469321Y282485D01*
X469346Y282595D01*
X469376Y282705D01*
X469409Y282813D01*
X469446Y282920D01*
X469486Y283026D01*
X469531Y283130D01*
X469579Y283233D01*
X469630Y283334D01*
X469685Y283433D01*
X469743Y283530D01*
X469805Y283625D01*
X469870Y283718D01*
X469938Y283808D01*
X470009Y283896D01*
X470084Y283982D01*
X470161Y284065D01*
X470241Y284145D01*
X470324Y284222D01*
X470410Y284297D01*
X470498Y284368D01*
X470588Y284436D01*
X470681Y284501D01*
X470776Y284563D01*
X470873Y284621D01*
X470972Y284676D01*
X471073Y284727D01*
X471176Y284775D01*
X471280Y284820D01*
X471386Y284860D01*
X471493Y284897D01*
X471601Y284930D01*
X471711Y284960D01*
X471821Y284985D01*
X471932Y285007D01*
X472044Y285024D01*
X472157Y285038D01*
X472270Y285048D01*
X472383Y285054D01*
X472496Y285056D01*
X472609Y285054D01*
X472722Y285048D01*
X472835Y285038D01*
X472948Y285024D01*
X473060Y285007D01*
X473171Y284985D01*
X473281Y284960D01*
X473391Y284930D01*
X473499Y284897D01*
X473606Y284860D01*
X473712Y284820D01*
X473816Y284775D01*
X473919Y284727D01*
X474020Y284676D01*
X474119Y284621D01*
X474216Y284563D01*
X474311Y284501D01*
X474404Y284436D01*
X474494Y284368D01*
X474582Y284297D01*
X474668Y284222D01*
X474751Y284145D01*
X474831Y284065D01*
X474908Y283982D01*
X474983Y283896D01*
X475054Y283808D01*
X475122Y283718D01*
X475187Y283625D01*
X475249Y283530D01*
X475307Y283433D01*
X475362Y283334D01*
X475413Y283233D01*
X475461Y283130D01*
X475506Y283026D01*
X475546Y282920D01*
X475583Y282813D01*
X475616Y282705D01*
X475646Y282595D01*
X475671Y282485D01*
X475693Y282374D01*
X475710Y282262D01*
X475724Y282149D01*
X475734Y282036D01*
X475740Y281923D01*
X475742Y281810D01*
X475740Y281697D01*
X475734Y281584D01*
X475724Y281471D01*
X475710Y281358D01*
X475693Y281246D01*
X475671Y281135D01*
X475646Y281025D01*
X475616Y280915D01*
X475583Y280807D01*
X475546Y280700D01*
X475506Y280594D01*
X475461Y280490D01*
X475413Y280387D01*
X475362Y280286D01*
X475307Y280187D01*
X475249Y280090D01*
X475187Y279995D01*
X475122Y279902D01*
X475054Y279812D01*
X474983Y279724D01*
X474908Y279638D01*
X474831Y279555D01*
X474751Y279475D01*
X474668Y279398D01*
X474582Y279323D01*
X474494Y279252D01*
X474404Y279184D01*
X474311Y279119D01*
X474216Y279057D01*
X474119Y278999D01*
X474020Y278944D01*
X473919Y278893D01*
X473816Y278845D01*
X473712Y278800D01*
X473606Y278760D01*
X473499Y278723D01*
X473391Y278690D01*
X473281Y278660D01*
X473171Y278635D01*
X473060Y278613D01*
X472948Y278596D01*
X472835Y278582D01*
X472722Y278572D01*
X472609Y278566D01*
X472496Y278564D01*
X466654Y279214D02*
X466553Y279216D01*
X466453Y279222D01*
X466353Y279232D01*
X466253Y279245D01*
X466154Y279263D01*
X466055Y279284D01*
X465958Y279309D01*
X465861Y279338D01*
X465766Y279371D01*
X465672Y279407D01*
X465580Y279447D01*
X465489Y279490D01*
X465400Y279537D01*
X465313Y279587D01*
X465227Y279641D01*
X465144Y279698D01*
X465064Y279758D01*
X464985Y279821D01*
X464909Y279888D01*
X464836Y279957D01*
X464766Y280029D01*
X464698Y280103D01*
X464633Y280180D01*
X464572Y280260D01*
X464513Y280342D01*
X464458Y280426D01*
X464406Y280512D01*
X464357Y280600D01*
X464312Y280690D01*
X464270Y280782D01*
X464232Y280875D01*
X464198Y280970D01*
X464167Y281065D01*
X464140Y281162D01*
X464117Y281260D01*
X464097Y281359D01*
X464082Y281459D01*
X464070Y281559D01*
X464062Y281659D01*
X464058Y281760D01*
X464058Y281860D01*
X464062Y281961D01*
X464070Y282061D01*
X464082Y282161D01*
X464097Y282261D01*
X464117Y282360D01*
X464140Y282458D01*
X464167Y282555D01*
X464198Y282650D01*
X464232Y282745D01*
X464270Y282838D01*
X464312Y282930D01*
X464357Y283020D01*
X464406Y283108D01*
X464458Y283194D01*
X464513Y283278D01*
X464572Y283360D01*
X464633Y283440D01*
X464698Y283517D01*
X464766Y283591D01*
X464836Y283663D01*
X464909Y283732D01*
X464985Y283799D01*
X465064Y283862D01*
X465144Y283922D01*
X465227Y283979D01*
X465313Y284033D01*
X465400Y284083D01*
X465489Y284130D01*
X465580Y284173D01*
X465672Y284213D01*
X465766Y284249D01*
X465861Y284282D01*
X465958Y284311D01*
X466055Y284336D01*
X466154Y284357D01*
X466253Y284375D01*
X466353Y284388D01*
X466453Y284398D01*
X466553Y284404D01*
X466654Y284406D01*
X466755Y284404D01*
X466855Y284398D01*
X466955Y284388D01*
X467055Y284375D01*
X467154Y284357D01*
X467253Y284336D01*
X467350Y284311D01*
X467447Y284282D01*
X467542Y284249D01*
X467636Y284213D01*
X467728Y284173D01*
X467819Y284130D01*
X467908Y284083D01*
X467995Y284033D01*
X468081Y283979D01*
X468164Y283922D01*
X468244Y283862D01*
X468323Y283799D01*
X468399Y283732D01*
X468472Y283663D01*
X468542Y283591D01*
X468610Y283517D01*
X468675Y283440D01*
X468736Y283360D01*
X468795Y283278D01*
X468850Y283194D01*
X468902Y283108D01*
X468951Y283020D01*
X468996Y282930D01*
X469038Y282838D01*
X469076Y282745D01*
X469110Y282650D01*
X469141Y282555D01*
X469168Y282458D01*
X469191Y282360D01*
X469211Y282261D01*
X469226Y282161D01*
X469238Y282061D01*
X469246Y281961D01*
X469250Y281860D01*
X469250Y281760D01*
X469246Y281659D01*
X469238Y281559D01*
X469226Y281459D01*
X469211Y281359D01*
X469191Y281260D01*
X469168Y281162D01*
X469141Y281065D01*
X469110Y280970D01*
X469076Y280875D01*
X469038Y280782D01*
X468996Y280690D01*
X468951Y280600D01*
X468902Y280512D01*
X468850Y280426D01*
X468795Y280342D01*
X468736Y280260D01*
X468675Y280180D01*
X468610Y280103D01*
X468542Y280029D01*
X468472Y279957D01*
X468399Y279888D01*
X468323Y279821D01*
X468244Y279758D01*
X468164Y279698D01*
X468081Y279641D01*
X467995Y279587D01*
X467908Y279537D01*
X467819Y279490D01*
X467728Y279447D01*
X467636Y279407D01*
X467542Y279371D01*
X467447Y279338D01*
X467350Y279309D01*
X467253Y279284D01*
X467154Y279263D01*
X467055Y279245D01*
X466955Y279232D01*
X466855Y279222D01*
X466755Y279216D01*
X466654Y279214D01*
D12*
X595600Y163300D02*
X649000Y163300D01*
X649000Y192300D01*
X595600Y192300D01*
X595600Y163300D01*
D13*
X596700Y188800D02*
X647900Y188800D01*
D14*
X594868Y196088D02*
X594868Y207772D01*
X598114Y207772D01*
X598227Y207770D01*
X598340Y207764D01*
X598453Y207754D01*
X598566Y207740D01*
X598678Y207723D01*
X598789Y207701D01*
X598899Y207676D01*
X599009Y207646D01*
X599117Y207613D01*
X599224Y207576D01*
X599330Y207536D01*
X599434Y207491D01*
X599537Y207443D01*
X599638Y207392D01*
X599737Y207337D01*
X599834Y207279D01*
X599929Y207217D01*
X600022Y207152D01*
X600112Y207084D01*
X600200Y207013D01*
X600286Y206938D01*
X600369Y206861D01*
X600449Y206781D01*
X600526Y206698D01*
X600601Y206612D01*
X600672Y206524D01*
X600740Y206434D01*
X600805Y206341D01*
X600867Y206246D01*
X600925Y206149D01*
X600980Y206050D01*
X601031Y205949D01*
X601079Y205846D01*
X601124Y205742D01*
X601164Y205636D01*
X601201Y205529D01*
X601234Y205421D01*
X601264Y205311D01*
X601289Y205201D01*
X601311Y205090D01*
X601328Y204978D01*
X601342Y204865D01*
X601352Y204752D01*
X601358Y204639D01*
X601360Y204526D01*
X601358Y204413D01*
X601352Y204300D01*
X601342Y204187D01*
X601328Y204074D01*
X601311Y203962D01*
X601289Y203851D01*
X601264Y203741D01*
X601234Y203631D01*
X601201Y203523D01*
X601164Y203416D01*
X601124Y203310D01*
X601079Y203206D01*
X601031Y203103D01*
X600980Y203002D01*
X600925Y202903D01*
X600867Y202806D01*
X600805Y202711D01*
X600740Y202618D01*
X600672Y202528D01*
X600601Y202440D01*
X600526Y202354D01*
X600449Y202271D01*
X600369Y202191D01*
X600286Y202114D01*
X600200Y202039D01*
X600112Y201968D01*
X600022Y201900D01*
X599929Y201835D01*
X599834Y201773D01*
X599737Y201715D01*
X599638Y201660D01*
X599537Y201609D01*
X599434Y201561D01*
X599330Y201516D01*
X599224Y201476D01*
X599117Y201439D01*
X599009Y201406D01*
X598899Y201376D01*
X598789Y201351D01*
X598678Y201329D01*
X598566Y201312D01*
X598453Y201298D01*
X598340Y201288D01*
X598227Y201282D01*
X598114Y201280D01*
X598114Y201281D02*
X594868Y201281D01*
X598763Y201281D02*
X601359Y196088D01*
X606628Y196088D02*
X611821Y196088D01*
X606628Y196088D02*
X606628Y207772D01*
X611821Y207772D01*
X610523Y202579D02*
X606628Y202579D01*
X619644Y196088D02*
X619743Y196090D01*
X619843Y196096D01*
X619942Y196105D01*
X620040Y196118D01*
X620138Y196135D01*
X620236Y196156D01*
X620332Y196181D01*
X620427Y196209D01*
X620521Y196241D01*
X620614Y196276D01*
X620706Y196315D01*
X620796Y196358D01*
X620884Y196403D01*
X620971Y196453D01*
X621055Y196505D01*
X621138Y196561D01*
X621218Y196619D01*
X621296Y196681D01*
X621371Y196746D01*
X621444Y196814D01*
X621514Y196884D01*
X621582Y196957D01*
X621647Y197032D01*
X621709Y197110D01*
X621767Y197190D01*
X621823Y197273D01*
X621875Y197357D01*
X621925Y197444D01*
X621970Y197532D01*
X622013Y197622D01*
X622052Y197714D01*
X622087Y197807D01*
X622119Y197901D01*
X622147Y197996D01*
X622172Y198092D01*
X622193Y198190D01*
X622210Y198288D01*
X622223Y198386D01*
X622232Y198485D01*
X622238Y198585D01*
X622240Y198684D01*
X619644Y196088D02*
X619500Y196090D01*
X619355Y196096D01*
X619211Y196105D01*
X619068Y196118D01*
X618924Y196135D01*
X618781Y196156D01*
X618639Y196181D01*
X618498Y196209D01*
X618357Y196241D01*
X618217Y196277D01*
X618078Y196316D01*
X617940Y196359D01*
X617804Y196406D01*
X617668Y196456D01*
X617534Y196510D01*
X617402Y196567D01*
X617271Y196628D01*
X617142Y196692D01*
X617014Y196760D01*
X616888Y196830D01*
X616764Y196905D01*
X616643Y196982D01*
X616523Y197063D01*
X616405Y197146D01*
X616290Y197233D01*
X616177Y197323D01*
X616066Y197416D01*
X615958Y197511D01*
X615852Y197610D01*
X615749Y197711D01*
X616074Y205176D02*
X616076Y205275D01*
X616082Y205375D01*
X616091Y205474D01*
X616104Y205572D01*
X616121Y205670D01*
X616142Y205768D01*
X616167Y205864D01*
X616195Y205959D01*
X616227Y206053D01*
X616262Y206146D01*
X616301Y206238D01*
X616344Y206328D01*
X616389Y206416D01*
X616439Y206503D01*
X616491Y206587D01*
X616547Y206670D01*
X616605Y206750D01*
X616667Y206828D01*
X616732Y206903D01*
X616800Y206976D01*
X616870Y207046D01*
X616943Y207114D01*
X617018Y207179D01*
X617096Y207241D01*
X617176Y207299D01*
X617259Y207355D01*
X617343Y207407D01*
X617430Y207457D01*
X617518Y207502D01*
X617608Y207545D01*
X617700Y207584D01*
X617793Y207619D01*
X617887Y207651D01*
X617982Y207679D01*
X618079Y207704D01*
X618176Y207725D01*
X618274Y207742D01*
X618372Y207755D01*
X618471Y207764D01*
X618571Y207770D01*
X618670Y207772D01*
X618806Y207770D01*
X618942Y207764D01*
X619078Y207755D01*
X619214Y207742D01*
X619349Y207724D01*
X619483Y207704D01*
X619617Y207679D01*
X619751Y207651D01*
X619883Y207618D01*
X620014Y207583D01*
X620145Y207543D01*
X620274Y207500D01*
X620402Y207454D01*
X620528Y207403D01*
X620654Y207350D01*
X620777Y207292D01*
X620899Y207232D01*
X621019Y207168D01*
X621138Y207100D01*
X621254Y207030D01*
X621368Y206956D01*
X621481Y206879D01*
X621591Y206798D01*
X617372Y202904D02*
X617286Y202957D01*
X617202Y203014D01*
X617120Y203073D01*
X617040Y203136D01*
X616963Y203202D01*
X616888Y203270D01*
X616816Y203342D01*
X616747Y203416D01*
X616681Y203493D01*
X616618Y203572D01*
X616558Y203654D01*
X616501Y203738D01*
X616447Y203824D01*
X616397Y203912D01*
X616350Y204002D01*
X616306Y204093D01*
X616267Y204187D01*
X616230Y204281D01*
X616198Y204377D01*
X616169Y204475D01*
X616144Y204573D01*
X616123Y204672D01*
X616105Y204772D01*
X616092Y204872D01*
X616082Y204973D01*
X616076Y205075D01*
X616074Y205176D01*
X620942Y200956D02*
X621028Y200903D01*
X621112Y200846D01*
X621194Y200787D01*
X621274Y200724D01*
X621351Y200658D01*
X621426Y200590D01*
X621498Y200518D01*
X621567Y200444D01*
X621633Y200367D01*
X621696Y200288D01*
X621756Y200206D01*
X621813Y200122D01*
X621867Y200036D01*
X621917Y199948D01*
X621964Y199858D01*
X622008Y199767D01*
X622047Y199673D01*
X622084Y199579D01*
X622116Y199483D01*
X622145Y199385D01*
X622170Y199287D01*
X622191Y199188D01*
X622209Y199088D01*
X622222Y198988D01*
X622232Y198887D01*
X622238Y198785D01*
X622240Y198684D01*
X620942Y200956D02*
X617372Y202904D01*
X627202Y196088D02*
X632395Y196088D01*
X627202Y196088D02*
X627202Y207772D01*
X632395Y207772D01*
X631097Y202579D02*
X627202Y202579D01*
X639188Y207772D02*
X639188Y196088D01*
X635942Y207772D02*
X642433Y207772D01*
D12*
X191800Y23600D02*
X113000Y23600D01*
X191800Y23600D02*
X191800Y52600D01*
X113000Y52600D01*
X113000Y23600D01*
D13*
X114100Y49100D02*
X190700Y49100D01*
D14*
X118759Y58984D02*
X118757Y58885D01*
X118751Y58785D01*
X118742Y58686D01*
X118729Y58588D01*
X118712Y58490D01*
X118691Y58392D01*
X118666Y58296D01*
X118638Y58201D01*
X118606Y58107D01*
X118571Y58014D01*
X118532Y57922D01*
X118489Y57832D01*
X118444Y57744D01*
X118394Y57657D01*
X118342Y57573D01*
X118286Y57490D01*
X118228Y57410D01*
X118166Y57332D01*
X118101Y57257D01*
X118033Y57184D01*
X117963Y57114D01*
X117890Y57046D01*
X117815Y56981D01*
X117737Y56919D01*
X117657Y56861D01*
X117574Y56805D01*
X117490Y56753D01*
X117403Y56703D01*
X117315Y56658D01*
X117225Y56615D01*
X117133Y56576D01*
X117040Y56541D01*
X116946Y56509D01*
X116851Y56481D01*
X116755Y56456D01*
X116657Y56435D01*
X116559Y56418D01*
X116461Y56405D01*
X116362Y56396D01*
X116262Y56390D01*
X116163Y56388D01*
X116019Y56390D01*
X115874Y56396D01*
X115730Y56405D01*
X115587Y56418D01*
X115443Y56435D01*
X115300Y56456D01*
X115158Y56481D01*
X115017Y56509D01*
X114876Y56541D01*
X114736Y56577D01*
X114597Y56616D01*
X114459Y56659D01*
X114323Y56706D01*
X114187Y56756D01*
X114053Y56810D01*
X113921Y56867D01*
X113790Y56928D01*
X113661Y56992D01*
X113533Y57060D01*
X113407Y57130D01*
X113283Y57205D01*
X113162Y57282D01*
X113042Y57363D01*
X112924Y57446D01*
X112809Y57533D01*
X112696Y57623D01*
X112585Y57716D01*
X112477Y57811D01*
X112371Y57910D01*
X112268Y58011D01*
X112593Y65476D02*
X112595Y65575D01*
X112601Y65675D01*
X112610Y65774D01*
X112623Y65872D01*
X112640Y65970D01*
X112661Y66068D01*
X112686Y66164D01*
X112714Y66259D01*
X112746Y66353D01*
X112781Y66446D01*
X112820Y66538D01*
X112863Y66628D01*
X112908Y66716D01*
X112958Y66803D01*
X113010Y66887D01*
X113066Y66970D01*
X113124Y67050D01*
X113186Y67128D01*
X113251Y67203D01*
X113319Y67276D01*
X113389Y67346D01*
X113462Y67414D01*
X113537Y67479D01*
X113615Y67541D01*
X113695Y67599D01*
X113778Y67655D01*
X113862Y67707D01*
X113949Y67757D01*
X114037Y67802D01*
X114127Y67845D01*
X114219Y67884D01*
X114312Y67919D01*
X114406Y67951D01*
X114501Y67979D01*
X114598Y68004D01*
X114695Y68025D01*
X114793Y68042D01*
X114891Y68055D01*
X114990Y68064D01*
X115090Y68070D01*
X115189Y68072D01*
X115325Y68070D01*
X115461Y68064D01*
X115597Y68055D01*
X115733Y68042D01*
X115868Y68024D01*
X116002Y68004D01*
X116136Y67979D01*
X116270Y67951D01*
X116402Y67918D01*
X116533Y67883D01*
X116664Y67843D01*
X116793Y67800D01*
X116921Y67754D01*
X117047Y67703D01*
X117173Y67650D01*
X117296Y67592D01*
X117418Y67532D01*
X117538Y67468D01*
X117657Y67400D01*
X117773Y67330D01*
X117887Y67256D01*
X118000Y67179D01*
X118110Y67098D01*
X113891Y63204D02*
X113805Y63257D01*
X113721Y63314D01*
X113639Y63373D01*
X113559Y63436D01*
X113482Y63502D01*
X113407Y63570D01*
X113335Y63642D01*
X113266Y63716D01*
X113200Y63793D01*
X113137Y63872D01*
X113077Y63954D01*
X113020Y64038D01*
X112966Y64124D01*
X112916Y64212D01*
X112869Y64302D01*
X112825Y64393D01*
X112786Y64487D01*
X112749Y64581D01*
X112717Y64677D01*
X112688Y64775D01*
X112663Y64873D01*
X112642Y64972D01*
X112624Y65072D01*
X112611Y65172D01*
X112601Y65273D01*
X112595Y65375D01*
X112593Y65476D01*
X117461Y61256D02*
X117547Y61203D01*
X117631Y61146D01*
X117713Y61087D01*
X117793Y61024D01*
X117870Y60958D01*
X117945Y60890D01*
X118017Y60818D01*
X118086Y60744D01*
X118152Y60667D01*
X118215Y60588D01*
X118275Y60506D01*
X118332Y60422D01*
X118386Y60336D01*
X118436Y60248D01*
X118483Y60158D01*
X118527Y60067D01*
X118566Y59973D01*
X118603Y59879D01*
X118635Y59783D01*
X118664Y59685D01*
X118689Y59587D01*
X118710Y59488D01*
X118728Y59388D01*
X118741Y59288D01*
X118751Y59187D01*
X118757Y59085D01*
X118759Y58984D01*
X117461Y61256D02*
X113891Y63204D01*
X123867Y68072D02*
X123867Y56388D01*
X123867Y68072D02*
X127113Y68072D01*
X127226Y68070D01*
X127339Y68064D01*
X127452Y68054D01*
X127565Y68040D01*
X127677Y68023D01*
X127788Y68001D01*
X127898Y67976D01*
X128008Y67946D01*
X128116Y67913D01*
X128223Y67876D01*
X128329Y67836D01*
X128433Y67791D01*
X128536Y67743D01*
X128637Y67692D01*
X128736Y67637D01*
X128833Y67579D01*
X128928Y67517D01*
X129021Y67452D01*
X129111Y67384D01*
X129199Y67313D01*
X129285Y67238D01*
X129368Y67161D01*
X129448Y67081D01*
X129525Y66998D01*
X129600Y66912D01*
X129671Y66824D01*
X129739Y66734D01*
X129804Y66641D01*
X129866Y66546D01*
X129924Y66449D01*
X129979Y66350D01*
X130030Y66249D01*
X130078Y66146D01*
X130123Y66042D01*
X130163Y65936D01*
X130200Y65829D01*
X130233Y65721D01*
X130263Y65611D01*
X130288Y65501D01*
X130310Y65390D01*
X130327Y65278D01*
X130341Y65165D01*
X130351Y65052D01*
X130357Y64939D01*
X130359Y64826D01*
X130357Y64713D01*
X130351Y64600D01*
X130341Y64487D01*
X130327Y64374D01*
X130310Y64262D01*
X130288Y64151D01*
X130263Y64041D01*
X130233Y63931D01*
X130200Y63823D01*
X130163Y63716D01*
X130123Y63610D01*
X130078Y63506D01*
X130030Y63403D01*
X129979Y63302D01*
X129924Y63203D01*
X129866Y63106D01*
X129804Y63011D01*
X129739Y62918D01*
X129671Y62828D01*
X129600Y62740D01*
X129525Y62654D01*
X129448Y62571D01*
X129368Y62491D01*
X129285Y62414D01*
X129199Y62339D01*
X129111Y62268D01*
X129021Y62200D01*
X128928Y62135D01*
X128833Y62073D01*
X128736Y62015D01*
X128637Y61960D01*
X128536Y61909D01*
X128433Y61861D01*
X128329Y61816D01*
X128223Y61776D01*
X128116Y61739D01*
X128008Y61706D01*
X127898Y61676D01*
X127788Y61651D01*
X127677Y61629D01*
X127565Y61612D01*
X127452Y61598D01*
X127339Y61588D01*
X127226Y61582D01*
X127113Y61580D01*
X127113Y61581D02*
X123867Y61581D01*
X135151Y56388D02*
X140343Y56388D01*
X135151Y56388D02*
X135151Y68072D01*
X140343Y68072D01*
X139045Y62879D02*
X135151Y62879D01*
X145057Y56388D02*
X150249Y56388D01*
X145057Y56388D02*
X145057Y68072D01*
X150249Y68072D01*
X148951Y62879D02*
X145057Y62879D01*
X154940Y68072D02*
X154940Y56388D01*
X154940Y68072D02*
X158185Y68072D01*
X158298Y68070D01*
X158411Y68064D01*
X158524Y68054D01*
X158637Y68040D01*
X158749Y68023D01*
X158860Y68001D01*
X158970Y67976D01*
X159080Y67946D01*
X159188Y67913D01*
X159295Y67876D01*
X159401Y67836D01*
X159505Y67791D01*
X159608Y67743D01*
X159709Y67692D01*
X159808Y67637D01*
X159905Y67579D01*
X160000Y67517D01*
X160093Y67452D01*
X160183Y67384D01*
X160271Y67313D01*
X160357Y67238D01*
X160440Y67161D01*
X160520Y67081D01*
X160597Y66998D01*
X160672Y66912D01*
X160743Y66824D01*
X160811Y66734D01*
X160876Y66641D01*
X160938Y66546D01*
X160996Y66449D01*
X161051Y66350D01*
X161102Y66249D01*
X161150Y66146D01*
X161195Y66042D01*
X161235Y65936D01*
X161272Y65829D01*
X161305Y65721D01*
X161335Y65611D01*
X161360Y65501D01*
X161382Y65390D01*
X161399Y65278D01*
X161413Y65165D01*
X161423Y65052D01*
X161429Y64939D01*
X161431Y64826D01*
X161431Y59634D01*
X161432Y59634D02*
X161430Y59521D01*
X161424Y59408D01*
X161414Y59295D01*
X161400Y59182D01*
X161383Y59070D01*
X161361Y58959D01*
X161336Y58849D01*
X161306Y58739D01*
X161273Y58631D01*
X161236Y58524D01*
X161196Y58418D01*
X161151Y58314D01*
X161103Y58211D01*
X161052Y58110D01*
X160997Y58011D01*
X160939Y57914D01*
X160877Y57819D01*
X160812Y57726D01*
X160744Y57636D01*
X160673Y57548D01*
X160598Y57462D01*
X160521Y57379D01*
X160441Y57299D01*
X160358Y57222D01*
X160272Y57147D01*
X160184Y57076D01*
X160094Y57008D01*
X160001Y56943D01*
X159906Y56881D01*
X159809Y56823D01*
X159710Y56768D01*
X159609Y56717D01*
X159506Y56669D01*
X159402Y56624D01*
X159296Y56584D01*
X159189Y56547D01*
X159081Y56514D01*
X158971Y56484D01*
X158861Y56459D01*
X158750Y56437D01*
X158638Y56420D01*
X158525Y56406D01*
X158412Y56396D01*
X158299Y56390D01*
X158186Y56388D01*
X158185Y56388D02*
X154940Y56388D01*
D12*
X443200Y23600D02*
X522000Y23600D01*
X522000Y52600D01*
X443200Y52600D01*
X443200Y23600D01*
D13*
X444300Y49100D02*
X520900Y49100D01*
D14*
X445714Y56388D02*
X445714Y68072D01*
X448959Y68072D02*
X442468Y68072D01*
X453540Y56388D02*
X458732Y56388D01*
X453540Y56388D02*
X453540Y68072D01*
X458732Y68072D01*
X457434Y62879D02*
X453540Y62879D01*
X463536Y68072D02*
X463536Y56388D01*
X467431Y61581D02*
X463536Y68072D01*
X467431Y61581D02*
X471325Y68072D01*
X471325Y56388D01*
X477308Y56388D02*
X477308Y68072D01*
X480554Y68072D01*
X480667Y68070D01*
X480780Y68064D01*
X480893Y68054D01*
X481006Y68040D01*
X481118Y68023D01*
X481229Y68001D01*
X481339Y67976D01*
X481449Y67946D01*
X481557Y67913D01*
X481664Y67876D01*
X481770Y67836D01*
X481874Y67791D01*
X481977Y67743D01*
X482078Y67692D01*
X482177Y67637D01*
X482274Y67579D01*
X482369Y67517D01*
X482462Y67452D01*
X482552Y67384D01*
X482640Y67313D01*
X482726Y67238D01*
X482809Y67161D01*
X482889Y67081D01*
X482966Y66998D01*
X483041Y66912D01*
X483112Y66824D01*
X483180Y66734D01*
X483245Y66641D01*
X483307Y66546D01*
X483365Y66449D01*
X483420Y66350D01*
X483471Y66249D01*
X483519Y66146D01*
X483564Y66042D01*
X483604Y65936D01*
X483641Y65829D01*
X483674Y65721D01*
X483704Y65611D01*
X483729Y65501D01*
X483751Y65390D01*
X483768Y65278D01*
X483782Y65165D01*
X483792Y65052D01*
X483798Y64939D01*
X483800Y64826D01*
X483798Y64713D01*
X483792Y64600D01*
X483782Y64487D01*
X483768Y64374D01*
X483751Y64262D01*
X483729Y64151D01*
X483704Y64041D01*
X483674Y63931D01*
X483641Y63823D01*
X483604Y63716D01*
X483564Y63610D01*
X483519Y63506D01*
X483471Y63403D01*
X483420Y63302D01*
X483365Y63203D01*
X483307Y63106D01*
X483245Y63011D01*
X483180Y62918D01*
X483112Y62828D01*
X483041Y62740D01*
X482966Y62654D01*
X482889Y62571D01*
X482809Y62491D01*
X482726Y62414D01*
X482640Y62339D01*
X482552Y62268D01*
X482462Y62200D01*
X482369Y62135D01*
X482274Y62073D01*
X482177Y62015D01*
X482078Y61960D01*
X481977Y61909D01*
X481874Y61861D01*
X481770Y61816D01*
X481664Y61776D01*
X481557Y61739D01*
X481449Y61706D01*
X481339Y61676D01*
X481229Y61651D01*
X481118Y61629D01*
X481006Y61612D01*
X480893Y61598D01*
X480780Y61588D01*
X480667Y61582D01*
X480554Y61580D01*
X480554Y61581D02*
X477308Y61581D01*
X488301Y60932D02*
X496090Y60932D01*
X500493Y56388D02*
X504388Y68072D01*
X508282Y56388D01*
X507309Y59309D02*
X501467Y59309D01*
D12*
X544800Y23600D02*
X623600Y23600D01*
X623600Y52600D01*
X544800Y52600D01*
X544800Y23600D01*
D13*
X545900Y49100D02*
X622500Y49100D01*
D14*
X547314Y56388D02*
X547314Y68072D01*
X550559Y68072D02*
X544068Y68072D01*
X555140Y56388D02*
X560332Y56388D01*
X555140Y56388D02*
X555140Y68072D01*
X560332Y68072D01*
X559034Y62879D02*
X555140Y62879D01*
X565136Y68072D02*
X565136Y56388D01*
X569031Y61581D02*
X565136Y68072D01*
X569031Y61581D02*
X572925Y68072D01*
X572925Y56388D01*
X578908Y56388D02*
X578908Y68072D01*
X582154Y68072D01*
X582267Y68070D01*
X582380Y68064D01*
X582493Y68054D01*
X582606Y68040D01*
X582718Y68023D01*
X582829Y68001D01*
X582939Y67976D01*
X583049Y67946D01*
X583157Y67913D01*
X583264Y67876D01*
X583370Y67836D01*
X583474Y67791D01*
X583577Y67743D01*
X583678Y67692D01*
X583777Y67637D01*
X583874Y67579D01*
X583969Y67517D01*
X584062Y67452D01*
X584152Y67384D01*
X584240Y67313D01*
X584326Y67238D01*
X584409Y67161D01*
X584489Y67081D01*
X584566Y66998D01*
X584641Y66912D01*
X584712Y66824D01*
X584780Y66734D01*
X584845Y66641D01*
X584907Y66546D01*
X584965Y66449D01*
X585020Y66350D01*
X585071Y66249D01*
X585119Y66146D01*
X585164Y66042D01*
X585204Y65936D01*
X585241Y65829D01*
X585274Y65721D01*
X585304Y65611D01*
X585329Y65501D01*
X585351Y65390D01*
X585368Y65278D01*
X585382Y65165D01*
X585392Y65052D01*
X585398Y64939D01*
X585400Y64826D01*
X585398Y64713D01*
X585392Y64600D01*
X585382Y64487D01*
X585368Y64374D01*
X585351Y64262D01*
X585329Y64151D01*
X585304Y64041D01*
X585274Y63931D01*
X585241Y63823D01*
X585204Y63716D01*
X585164Y63610D01*
X585119Y63506D01*
X585071Y63403D01*
X585020Y63302D01*
X584965Y63203D01*
X584907Y63106D01*
X584845Y63011D01*
X584780Y62918D01*
X584712Y62828D01*
X584641Y62740D01*
X584566Y62654D01*
X584489Y62571D01*
X584409Y62491D01*
X584326Y62414D01*
X584240Y62339D01*
X584152Y62268D01*
X584062Y62200D01*
X583969Y62135D01*
X583874Y62073D01*
X583777Y62015D01*
X583678Y61960D01*
X583577Y61909D01*
X583474Y61861D01*
X583370Y61816D01*
X583264Y61776D01*
X583157Y61739D01*
X583049Y61706D01*
X582939Y61676D01*
X582829Y61651D01*
X582718Y61629D01*
X582606Y61612D01*
X582493Y61598D01*
X582380Y61588D01*
X582267Y61582D01*
X582154Y61580D01*
X582154Y61581D02*
X578908Y61581D01*
X589901Y60932D02*
X597690Y60932D01*
X602319Y68072D02*
X604915Y56388D01*
X607512Y64177D01*
X610108Y56388D01*
X612704Y68072D01*
D17*
X558800Y203200D02*
X533400Y203200D01*
X533400Y406400D02*
X558800Y406400D01*
X558800Y203200D01*
X533400Y406400D02*
X76200Y406400D01*
X76200Y381000D02*
X533400Y381000D01*
X533400Y406400D01*
X533400Y203200D02*
X76200Y203200D01*
X533400Y203200D02*
X533400Y228600D01*
X76200Y228600D01*
X50800Y393700D02*
X76200Y406400D01*
X50800Y393700D02*
X50800Y215900D01*
X76200Y203200D01*
X76200Y381000D02*
X76200Y406400D01*
X76200Y228600D02*
X76200Y203200D01*
D12*
X595600Y379200D02*
X649000Y379200D01*
X649000Y408200D01*
X595600Y408200D01*
X595600Y379200D01*
D13*
X596700Y404700D02*
X647900Y404700D01*
D14*
X598763Y423672D02*
X594868Y411988D01*
X602657Y411988D02*
X598763Y423672D01*
X601684Y414909D02*
X595842Y414909D01*
X607351Y411988D02*
X607351Y423672D01*
X607351Y411988D02*
X612544Y411988D01*
X617813Y411988D02*
X617813Y423672D01*
X616514Y411988D02*
X619111Y411988D01*
X619111Y423672D02*
X616514Y423672D01*
X623062Y423672D02*
X626957Y411988D01*
X630851Y423672D01*
X635545Y411988D02*
X640738Y411988D01*
X635545Y411988D02*
X635545Y423672D01*
X640738Y423672D01*
X639439Y418479D02*
X635545Y418479D01*
X644553Y410690D02*
X649746Y410690D01*
X654595Y411988D02*
X654595Y423672D01*
X654595Y411988D02*
X659788Y411988D01*
X664501Y411988D02*
X669694Y411988D01*
X664501Y411988D02*
X664501Y423672D01*
X669694Y423672D01*
X668395Y418479D02*
X664501Y418479D01*
X674384Y423672D02*
X674384Y411988D01*
X674384Y423672D02*
X677630Y423672D01*
X677743Y423670D01*
X677856Y423664D01*
X677969Y423654D01*
X678082Y423640D01*
X678194Y423623D01*
X678305Y423601D01*
X678415Y423576D01*
X678525Y423546D01*
X678633Y423513D01*
X678740Y423476D01*
X678846Y423436D01*
X678950Y423391D01*
X679053Y423343D01*
X679154Y423292D01*
X679253Y423237D01*
X679350Y423179D01*
X679445Y423117D01*
X679538Y423052D01*
X679628Y422984D01*
X679716Y422913D01*
X679802Y422838D01*
X679885Y422761D01*
X679965Y422681D01*
X680042Y422598D01*
X680117Y422512D01*
X680188Y422424D01*
X680256Y422334D01*
X680321Y422241D01*
X680383Y422146D01*
X680441Y422049D01*
X680496Y421950D01*
X680547Y421849D01*
X680595Y421746D01*
X680640Y421642D01*
X680680Y421536D01*
X680717Y421429D01*
X680750Y421321D01*
X680780Y421211D01*
X680805Y421101D01*
X680827Y420990D01*
X680844Y420878D01*
X680858Y420765D01*
X680868Y420652D01*
X680874Y420539D01*
X680876Y420426D01*
X680875Y420426D02*
X680875Y415234D01*
X680876Y415234D02*
X680874Y415121D01*
X680868Y415008D01*
X680858Y414895D01*
X680844Y414782D01*
X680827Y414670D01*
X680805Y414559D01*
X680780Y414449D01*
X680750Y414339D01*
X680717Y414231D01*
X680680Y414124D01*
X680640Y414018D01*
X680595Y413914D01*
X680547Y413811D01*
X680496Y413710D01*
X680441Y413611D01*
X680383Y413514D01*
X680321Y413419D01*
X680256Y413326D01*
X680188Y413236D01*
X680117Y413148D01*
X680042Y413062D01*
X679965Y412979D01*
X679885Y412899D01*
X679802Y412822D01*
X679716Y412747D01*
X679628Y412676D01*
X679538Y412608D01*
X679445Y412543D01*
X679350Y412481D01*
X679253Y412423D01*
X679154Y412368D01*
X679053Y412317D01*
X678950Y412269D01*
X678846Y412224D01*
X678740Y412184D01*
X678633Y412147D01*
X678525Y412114D01*
X678415Y412084D01*
X678305Y412059D01*
X678194Y412037D01*
X678082Y412020D01*
X677969Y412006D01*
X677856Y411996D01*
X677743Y411990D01*
X677630Y411988D01*
X674384Y411988D01*
X374142Y292608D02*
X362458Y292608D01*
X362458Y295854D01*
X362460Y295967D01*
X362466Y296080D01*
X362476Y296193D01*
X362490Y296306D01*
X362507Y296418D01*
X362529Y296529D01*
X362554Y296639D01*
X362584Y296749D01*
X362617Y296857D01*
X362654Y296964D01*
X362694Y297070D01*
X362739Y297174D01*
X362787Y297277D01*
X362838Y297378D01*
X362893Y297477D01*
X362951Y297574D01*
X363013Y297669D01*
X363078Y297762D01*
X363146Y297852D01*
X363217Y297940D01*
X363292Y298026D01*
X363369Y298109D01*
X363449Y298189D01*
X363532Y298266D01*
X363618Y298341D01*
X363706Y298412D01*
X363796Y298480D01*
X363889Y298545D01*
X363984Y298607D01*
X364081Y298665D01*
X364180Y298720D01*
X364281Y298771D01*
X364384Y298819D01*
X364488Y298864D01*
X364594Y298904D01*
X364701Y298941D01*
X364809Y298974D01*
X364919Y299004D01*
X365029Y299029D01*
X365140Y299051D01*
X365252Y299068D01*
X365365Y299082D01*
X365478Y299092D01*
X365591Y299098D01*
X365704Y299100D01*
X365817Y299098D01*
X365930Y299092D01*
X366043Y299082D01*
X366156Y299068D01*
X366268Y299051D01*
X366379Y299029D01*
X366489Y299004D01*
X366599Y298974D01*
X366707Y298941D01*
X366814Y298904D01*
X366920Y298864D01*
X367024Y298819D01*
X367127Y298771D01*
X367228Y298720D01*
X367327Y298665D01*
X367424Y298607D01*
X367519Y298545D01*
X367612Y298480D01*
X367702Y298412D01*
X367790Y298341D01*
X367876Y298266D01*
X367959Y298189D01*
X368039Y298109D01*
X368116Y298026D01*
X368191Y297940D01*
X368262Y297852D01*
X368330Y297762D01*
X368395Y297669D01*
X368457Y297574D01*
X368515Y297477D01*
X368570Y297378D01*
X368621Y297277D01*
X368669Y297174D01*
X368714Y297070D01*
X368754Y296964D01*
X368791Y296857D01*
X368824Y296749D01*
X368854Y296639D01*
X368879Y296529D01*
X368901Y296418D01*
X368918Y296306D01*
X368932Y296193D01*
X368942Y296080D01*
X368948Y295967D01*
X368950Y295854D01*
X368949Y295854D02*
X368949Y292608D01*
X368949Y296503D02*
X374142Y299099D01*
X371546Y303964D02*
X362458Y306561D01*
X371546Y303964D02*
X371546Y310455D01*
X368949Y308508D02*
X374142Y308508D01*
M02*
