G04 EAGLE Gerber RS-274X export*
G75*
%MOMM*%
%FSLAX34Y34*%
%LPD*%
%INSoldermask Top*%
%IPPOS*%
%AMOC8*
5,1,8,0,0,1.08239X$1,22.5*%
G01*
%ADD10C,2.003200*%
%ADD11C,1.903200*%
%ADD12P,1.649562X8X22.500000*%
%ADD13R,2.903200X1.803200*%
%ADD14R,1.803200X2.903200*%
%ADD15C,2.082800*%


D10*
X292100Y478900D02*
X292100Y460900D01*
X266700Y460900D02*
X266700Y478900D01*
X393700Y478900D02*
X393700Y460900D01*
X368300Y460900D02*
X368300Y478900D01*
X85200Y101600D02*
X67200Y101600D01*
X67200Y127000D02*
X85200Y127000D01*
X85200Y152400D02*
X67200Y152400D01*
X67200Y177800D02*
X85200Y177800D01*
D11*
X520700Y431800D03*
X444500Y431800D03*
X520700Y469900D03*
X444500Y469900D03*
D10*
X317500Y47100D02*
X317500Y29100D01*
X292100Y29100D02*
X292100Y47100D01*
X266700Y47100D02*
X266700Y29100D01*
X241300Y29100D02*
X241300Y47100D01*
D12*
X546100Y139700D03*
X495300Y139700D03*
X520700Y139700D03*
D13*
X419100Y141000D03*
X419100Y113000D03*
X241300Y303500D03*
X241300Y331500D03*
D14*
X242600Y127000D03*
X214600Y127000D03*
X278100Y127000D03*
X306100Y127000D03*
D13*
X495300Y278100D03*
X495300Y306100D03*
D10*
X609600Y186800D02*
X609600Y168800D01*
X635000Y168800D02*
X635000Y186800D01*
X127000Y47100D02*
X127000Y29100D01*
X152400Y29100D02*
X152400Y47100D01*
X177800Y47100D02*
X177800Y29100D01*
X457200Y29100D02*
X457200Y47100D01*
X482600Y47100D02*
X482600Y29100D01*
X508000Y29100D02*
X508000Y47100D01*
X558800Y47100D02*
X558800Y29100D01*
X584200Y29100D02*
X584200Y47100D01*
X609600Y47100D02*
X609600Y29100D01*
D15*
X520700Y393700D03*
X495300Y393700D03*
X469900Y393700D03*
X444500Y393700D03*
X419100Y393700D03*
X393700Y393700D03*
X368300Y393700D03*
X342900Y393700D03*
X317500Y393700D03*
X292100Y393700D03*
X266700Y393700D03*
X241300Y393700D03*
X241300Y215900D03*
X266700Y215900D03*
X292100Y215900D03*
X317500Y215900D03*
X342900Y215900D03*
X368300Y215900D03*
X393700Y215900D03*
X419100Y215900D03*
X444500Y215900D03*
X469900Y215900D03*
X495300Y215900D03*
X520700Y215900D03*
X215900Y393700D03*
X190500Y393700D03*
X165100Y393700D03*
X139700Y393700D03*
X114300Y393700D03*
X88900Y393700D03*
X88900Y215900D03*
X114300Y215900D03*
X139700Y215900D03*
X165100Y215900D03*
X190500Y215900D03*
X215900Y215900D03*
D10*
X609600Y384700D02*
X609600Y402700D01*
X635000Y402700D02*
X635000Y384700D01*
D13*
X393700Y303500D03*
X393700Y331500D03*
M02*
